<svg width="18" height="15" viewBox="0 0 18 15" fill="none" xmlns="http://www.w3.org/2000/svg">
<path d="M2.9723 14H0.441051L5.04972 0.909091H7.97727L12.5923 14H10.0611L6.56463 3.59375H6.46236L2.9723 14ZM3.0554 8.86719H9.95881V10.772H3.0554V8.86719ZM15.6397 14.1406C15.252 14.1406 14.9196 14.0043 14.6426 13.7315C14.3656 13.4588 14.2292 13.1264 14.2335 12.7344C14.2292 12.3509 14.3656 12.0227 14.6426 11.75C14.9196 11.4773 15.252 11.3409 15.6397 11.3409C16.0147 11.3409 16.3407 11.4773 16.6177 11.75C16.899 12.0227 17.0417 12.3509 17.046 12.7344C17.0417 12.9943 16.9735 13.2308 16.8414 13.4439C16.7136 13.657 16.5431 13.8274 16.3301 13.9553C16.1213 14.0788 15.8912 14.1406 15.6397 14.1406Z" fill="black"/>
</svg>
