<svg width="10" height="12" viewBox="0 0 10 12" fill="none" xmlns="http://www.w3.org/2000/svg">
<path fill-rule="evenodd" clip-rule="evenodd" d="M3.05957 8.07574H6.19604C5.70715 7.52576 5.46313 6.81299 5.34076 6.19159C5.18805 5.47894 5.20844 4.90857 5.20844 4.90857H4.03723C4.03723 4.90857 4.05762 5.47894 3.91492 6.19159C3.80286 6.81299 3.55835 7.52576 3.05957 8.07574Z" fill="#F9B54C"/>
<path fill-rule="evenodd" clip-rule="evenodd" d="M2.9173 5.26517C2.88666 5.26517 2.85633 5.26517 2.82569 5.24457L1.54236 4.58264C0.972052 4.28738 0.554754 3.7579 0.391546 3.1467L0.02503 1.70078C-0.0361272 1.45621 0.0147761 1.19156 0.177862 0.987915C0.340704 0.784149 0.575018 0.661865 0.839544 0.661865H2.9173C3.02924 0.661865 3.12086 0.753723 3.12086 0.875763C3.12086 0.987915 3.02924 1.07953 2.9173 1.07953H0.839544C0.707342 1.07953 0.58515 1.14062 0.503485 1.2424C0.422125 1.34427 0.391546 1.47668 0.422125 1.59885L0.788702 3.04504C0.92127 3.54388 1.25715 3.97171 1.72571 4.21616L3.01899 4.87793C3.11072 4.92902 3.15119 5.06131 3.10035 5.15305C3.06995 5.22427 2.9986 5.26517 2.9173 5.26517Z" fill="#F9B54C"/>
<path fill-rule="evenodd" clip-rule="evenodd" d="M6.31861 5.26517C6.24756 5.26517 6.17572 5.22427 6.13514 5.15305C6.08435 5.06131 6.125 4.92902 6.22669 4.87793L7.51014 4.21616C7.97852 3.97171 8.32483 3.54388 8.4469 3.04504L8.81348 1.59885C8.84406 1.47668 8.82373 1.34427 8.74243 1.2424C8.66101 1.14062 8.53882 1.07953 8.40625 1.07953H6.31861C6.20636 1.07953 6.11487 0.987915 6.11487 0.875763C6.11487 0.753723 6.20636 0.661865 6.31861 0.661865H8.40625C8.66101 0.661865 8.90552 0.784149 9.06812 0.987915C9.22083 1.19156 9.28186 1.45621 9.21064 1.70078L8.84406 3.1467C8.69135 3.7579 8.27405 4.28738 7.70331 4.58264L6.42054 5.24457C6.38977 5.26517 6.34931 5.26517 6.31861 5.26517Z" fill="#F9B54C"/>
<path fill-rule="evenodd" clip-rule="evenodd" d="M4.61743 6.41591C3.23273 6.41591 2.10229 5.29567 2.09216 3.91054L2.06152 0H4.62756H7.17371L7.14319 3.91054V3.97176V3.98198V4.04308C7.14319 4.06337 7.14319 4.08376 7.13306 4.10405V4.16524C7.13306 4.18562 7.12292 4.20595 7.12292 4.22621C7.12292 4.26704 7.11255 4.30769 7.10242 4.34862V4.35878C7.10242 4.37904 7.09235 4.39943 7.09235 4.41982C7.08215 4.48085 7.06171 4.53185 7.05164 4.59294H7.04138C7.04138 4.61324 7.03113 4.63362 7.03113 4.65392C6.70532 5.68266 5.7478 6.41591 4.61743 6.41591Z" fill="#FFD05B"/>
<rect x="2.91699" y="7.97388" width="3.40135" height="1" fill="#FEE187"/>
<path fill-rule="evenodd" clip-rule="evenodd" d="M2.06152 8.87009H7.17371C7.17371 8.54428 6.90875 8.26917 6.57275 8.26917H2.67224C2.3363 8.26917 2.06152 8.54428 2.06152 8.87009Z" fill="#FFD05B"/>
<rect x="1.27832" y="8.83948" width="6.69054" height="2.25069" fill="#E6E9EE"/>
<rect x="3.19238" y="9.4812" width="2.8617" height="1" fill="#BA7958"/>
<path fill-rule="evenodd" clip-rule="evenodd" d="M3.43683 10.0617C3.48767 10.0617 3.52844 10.0107 3.52844 9.95969C3.52844 9.90897 3.48767 9.86816 3.43683 9.86816C3.38599 9.86816 3.33496 9.90897 3.33496 9.95969C3.33496 10.0107 3.38599 10.0617 3.43683 10.0617Z" fill="#FEFEFE"/>
<path fill-rule="evenodd" clip-rule="evenodd" d="M5.83972 10.0617C5.89087 10.0617 5.93164 10.0107 5.93164 9.95969C5.93164 9.90897 5.89087 9.86816 5.83972 9.86816C5.78882 9.86816 5.74805 9.90897 5.74805 9.95969C5.74805 10.0107 5.78882 10.0617 5.83972 10.0617Z" fill="#FEFEFE"/>
</svg>
