<svg width="18" height="16" viewBox="0 0 18 16" fill="none" xmlns="http://www.w3.org/2000/svg">
<path d="M14.926 9.39878V11.6785H17.2057V13.1984H14.926V15.4781H13.4061V13.1984H11.1264V11.6785H13.4061V9.39878H14.926ZM14.9321 0.279785C15.3485 0.279785 15.6859 0.617948 15.6859 1.03438V8.13884C15.1977 7.96641 14.6838 7.87852 14.1661 7.87895V1.79962H2.00738L2.00814 12.4384L9.06929 5.37654C9.33968 5.10527 9.76979 5.0779 10.0724 5.31271L10.1431 5.3773L12.8377 8.075C11.6471 8.43781 10.6564 9.27136 10.0954 10.3824C9.53432 11.4935 9.45162 12.7855 9.86644 13.959L1.24139 13.9583C0.824931 13.9579 0.487549 13.6201 0.487549 13.2037L0.487549 1.03438C0.490443 0.619129 0.826138 0.283097 1.24139 0.279785H14.9321H14.9321ZM5.04705 3.31945C5.88643 3.31945 6.56688 3.9999 6.56688 4.83928C6.56688 5.67866 5.88643 6.35911 5.04705 6.35911C4.20767 6.35911 3.52722 5.67866 3.52722 4.83928C3.52722 3.9999 4.20767 3.31945 5.04705 3.31945Z" fill="black"/>
</svg>
