<svg width="25" height="22" viewBox="0 0 25 22" fill="none" xmlns="http://www.w3.org/2000/svg">
<path fill-rule="evenodd" clip-rule="evenodd" d="M0.000240539 13.0786C-0.0119634 11.9511 0.439582 10.9513 1.49929 10.6244L1.52573 10.5819C1.55672 10.524 1.59801 10.4717 1.64777 10.4272C1.71191 10.3824 1.78437 10.3496 1.86134 10.3305L1.92032 10.3092C7.05817 8.51453 9.37488 5.82056 10.7071 3.99107C10.7071 5.78769 11.1811 8.12968 12.015 10.3962C12.8713 12.717 14.108 14.9816 15.6172 16.5384C14.0449 16.1129 12.0719 15.5714 8.86232 15.9872C8.72791 16.2986 8.65085 16.6296 8.63451 16.9658C8.62393 17.0707 8.63656 17.1765 8.67159 17.2764C8.70662 17.3763 8.76328 17.4681 8.83791 17.546L8.88673 17.5885C9.09013 17.7645 9.18979 17.8515 9.23454 18.0082C9.26446 18.2156 9.2555 18.4265 9.2081 18.6309L9.18979 18.7605C9.11453 19.3271 9.40336 19.4432 9.69015 19.5592C9.97694 19.6752 10.2007 19.7681 10.3166 20.0794C10.3248 20.1046 10.3248 20.1316 10.3166 20.1568C10.1986 20.737 9.80812 21.0541 9.41556 21.3732C9.31997 21.4525 9.22234 21.5318 9.13894 21.6072H9.12674C8.32941 22.2145 7.79041 22.052 7.38158 21.5647C7.06021 21.1779 6.83647 20.5977 6.629 20.0543L6.53951 19.8184C6.20353 18.863 5.93178 17.8882 5.72591 16.9001L5.65676 16.61C5.4798 16.6564 5.29471 16.7086 5.10148 16.7627C4.8574 16.8304 4.61332 16.9039 4.37128 16.9774L4.29399 17.0045C4.25382 17.0296 4.2068 17.043 4.15873 17.043C4.11065 17.043 4.06363 17.0296 4.02347 17.0045C2.74002 17.4106 1.66811 16.8304 0.952146 15.8635C0.649892 15.4554 0.415923 15.0052 0.258557 14.5291C0.0973756 14.0604 0.0103198 13.5716 0.000240539 13.0786ZM17.8607 3.13047C17.7964 3.17708 17.723 3.21109 17.6448 3.2305C17.5665 3.24992 17.485 3.25435 17.405 3.24356C17.3249 3.23276 17.2479 3.20695 17.1784 3.16761C17.109 3.12828 17.0484 3.07621 17.0003 3.01443L16.9861 2.99703C16.8928 2.8725 16.8541 2.71842 16.878 2.56726C16.9019 2.4161 16.9866 2.27966 17.1142 2.18671C18.1027 1.49243 19.0872 0.792344 20.0757 0.113534C20.2061 0.0237907 20.3677 -0.0149729 20.5272 0.00523397C20.6901 0.0289775 20.8363 0.113126 20.934 0.23924V0.248909C21.0279 0.373714 21.0659 0.528778 21.0398 0.680176C21.0281 0.757026 21.0003 0.830858 20.958 0.897298C20.9157 0.963738 20.8598 1.02143 20.7937 1.06696L17.8607 3.13047ZM21.0723 14.2892C20.9919 14.2877 20.9125 14.271 20.8389 14.2401C20.7652 14.2092 20.6987 14.1648 20.6432 14.1094C20.5871 14.0546 20.543 13.9899 20.5133 13.9189C20.4836 13.8478 20.469 13.7719 20.4703 13.6955V13.682C20.4703 13.6047 20.4865 13.5281 20.5181 13.4568C20.5496 13.3855 20.5958 13.3209 20.654 13.2669C20.7122 13.2128 20.7811 13.1704 20.8568 13.142C20.9325 13.1137 21.0134 13.1 21.0947 13.1018C22.187 13.1018 23.2975 13.1405 24.3898 13.1598C24.554 13.1634 24.7101 13.2283 24.8243 13.3405C24.9385 13.4527 25.0016 13.6032 25 13.7594C24.9968 13.9162 24.9288 14.0655 24.8108 14.1751C24.7529 14.2293 24.6842 14.2719 24.6088 14.3004C24.5333 14.329 24.4527 14.3429 24.3715 14.3415L21.0784 14.2815L21.0723 14.2892ZM21.1679 11.251C21.0873 11.2576 21.006 11.2489 20.929 11.2254C20.8519 11.2018 20.7805 11.1639 20.719 11.1139C20.6574 11.0639 20.607 11.0027 20.5706 10.9339C20.5342 10.8652 20.5125 10.7902 20.5069 10.7134V10.6999C20.4977 10.5467 20.5513 10.3961 20.6563 10.2797C20.7613 10.1632 20.9097 10.09 21.0703 10.0752C22.0873 9.99786 23.1226 9.9147 24.1416 9.85281C24.3045 9.84319 24.4648 9.89475 24.588 9.99639C24.7113 10.098 24.7876 10.2416 24.8006 10.3962C24.8071 10.4733 24.7973 10.5508 24.7718 10.6242C24.7463 10.6976 24.7056 10.7654 24.6522 10.8236C24.5449 10.9421 24.3929 11.0157 24.2291 11.0286C23.2426 11.1215 22.1585 11.1988 21.1679 11.2491V11.251ZM20.7286 8.42944C20.6499 8.45067 20.5676 8.45696 20.4864 8.44794C20.4052 8.43893 20.3266 8.41478 20.2552 8.37688C20.1838 8.33899 20.121 8.28809 20.0703 8.22709C20.0196 8.16609 19.982 8.09619 19.9597 8.02138C19.9374 7.94748 19.9308 7.87009 19.9402 7.79373C19.9497 7.71737 19.975 7.64356 20.0147 7.57657C20.0952 7.43982 20.2288 7.33846 20.3869 7.29422C21.4466 7.02927 22.5022 6.70437 23.5619 6.43362C23.6397 6.41242 23.7211 6.40611 23.8014 6.41508C23.8817 6.42404 23.9593 6.44809 24.0298 6.48584C24.1719 6.56107 24.2776 6.68591 24.3247 6.83394C24.3693 6.98473 24.3495 7.14617 24.2694 7.28309C24.1894 7.42002 24.0558 7.52133 23.8975 7.56497L20.7266 8.42557L20.7286 8.42944ZM19.4472 5.66005C19.3743 5.69459 19.2949 5.71513 19.2136 5.72051C19.1324 5.72589 19.0508 5.71599 18.9735 5.69139C18.8963 5.66679 18.8249 5.62796 18.7634 5.57712C18.7019 5.52628 18.6516 5.46443 18.6153 5.3951C18.5781 5.32601 18.5559 5.25053 18.55 5.17313C18.544 5.09573 18.5545 5.01798 18.5807 4.94449C18.6332 4.79602 18.745 4.6731 18.8919 4.60219L21.9429 3.15367C22.0155 3.1178 22.095 3.0962 22.1766 3.09014C22.2582 3.08408 22.3403 3.0937 22.4179 3.11842C22.4955 3.14314 22.5671 3.18246 22.6284 3.23403C22.6898 3.28561 22.7395 3.34838 22.7748 3.41862C22.8116 3.48785 22.8335 3.56339 22.8391 3.64079C22.8447 3.71819 22.8339 3.79587 22.8073 3.86923C22.7547 4.01719 22.6429 4.13948 22.4961 4.2096L19.4452 5.66005H19.4472ZM11.9499 2.32595C11.9764 2.29694 12.0048 2.26987 12.0313 2.24473C12.1147 2.15395 12.2173 2.08082 12.3323 2.03006C12.4636 1.98823 12.6047 1.98287 12.7391 2.01459C13.1967 2.08421 13.6869 2.40137 14.1853 2.88679C15.4057 4.08389 16.6911 6.36787 17.6064 8.76788C18.5217 11.1679 19.0709 13.6723 18.7963 15.2988C18.6926 15.9041 18.477 16.3934 18.1231 16.7163L18.1048 16.7299C17.9559 16.8316 17.7837 16.8979 17.6024 16.9233C17.5863 16.9093 17.5693 16.8964 17.5515 16.8846C16.3332 16.0569 15.2551 14.6838 14.348 13.0689C14.5799 13.1115 14.8768 12.9471 15.1616 12.6667C16.5854 11.2394 15.8857 8.74467 14.11 8.16642C13.3859 7.93435 12.6659 7.93435 12.3811 8.06779L12.3506 8.08326C11.6997 5.69486 11.5146 3.48631 11.9499 2.32595Z" fill="#463196"/>
</svg>
