<svg width="16" height="16" viewBox="0 0 16 16" fill="none" xmlns="http://www.w3.org/2000/svg">
<path d="M4.65989 11.6069H1.30892C0.833041 11.6069 0.447266 11.2211 0.447266 10.7452V5.5753C0.447266 5.09942 0.833041 4.71364 1.30892 4.71364H4.65989L9.22149 0.98096C9.35032 0.875338 9.5285 0.85346 9.67906 0.924778C9.82962 0.996095 9.92557 1.14782 9.92546 1.31442V15.0061C9.92557 15.1727 9.82962 15.3244 9.67906 15.3957C9.5285 15.4671 9.35032 15.4452 9.22149 15.3396L4.66075 11.6069H4.65989ZM13.254 12.1161L12.0288 10.8908C12.8766 10.2389 13.373 9.22977 13.3721 8.16026C13.3721 6.92809 12.7258 5.84672 11.7522 5.23753L12.9921 3.99761C14.3157 4.97131 15.0968 6.51703 15.0954 8.16026C15.0954 9.74742 14.3802 11.1674 13.254 12.1161Z" fill="#C8C1DF"/>
</svg>
