<svg width="15" height="8" viewBox="0 0 15 8" fill="none" xmlns="http://www.w3.org/2000/svg">
<path fill-rule="evenodd" clip-rule="evenodd" d="M13.2599 7.09802H12.0273L12.2925 6.04883H12.9951L13.2599 7.09802Z" fill="#FF7058"/>
<rect x="12.5264" y="3.30957" width="1" height="3.08557" fill="#FF7058"/>
<path fill-rule="evenodd" clip-rule="evenodd" d="M13.1377 6.04865C13.1377 5.7843 12.924 5.56006 12.6488 5.56006C12.3738 5.56006 12.1602 5.7843 12.1602 6.04865C12.1602 6.32385 12.3738 6.5481 12.6488 6.5481C12.924 6.5481 13.1377 6.32385 13.1377 6.04865Z" fill="#324A5E"/>
<path fill-rule="evenodd" clip-rule="evenodd" d="M0 3.22797L7.05713 0.529297L14.125 3.22797L10.5298 4.60303V3.52344C10.5298 2.72925 8.72748 2.36255 7.05713 2.36255C5.38721 2.36255 3.58453 2.72925 3.58453 3.52344V4.60303L0 3.22797Z" fill="#324A5E"/>
<path fill-rule="evenodd" clip-rule="evenodd" d="M6.24316 4.84723C6.49792 4.8371 6.77307 4.81671 7.05786 4.81671C7.35327 4.81671 7.62842 4.8371 7.87256 4.84723C8.84027 4.90826 9.99109 5.07147 10.6224 5.40759V3.51337C10.6224 2.69867 8.77905 2.3219 7.05786 2.3219C5.34729 2.3219 3.50391 2.69867 3.50391 3.51337V5.40759C4.13538 5.07147 5.27588 4.90826 6.24316 4.84723Z" fill="#2B3B4E"/>
</svg>
