<svg width="23" height="23" viewBox="0 0 23 23" fill="none" xmlns="http://www.w3.org/2000/svg">
<path d="M20.7405 10.9438C20.8165 10.8756 20.9067 10.8215 21.006 10.7846C21.1052 10.7478 21.2116 10.7288 21.319 10.7288C21.4265 10.7288 21.5329 10.7478 21.6321 10.7846C21.7314 10.8215 21.8216 10.8756 21.8976 10.9438C21.9735 11.0119 22.0338 11.0928 22.0749 11.1819C22.116 11.271 22.1372 11.3664 22.1372 11.4628C22.1372 11.5592 22.116 11.6546 22.0749 11.7437C22.0338 11.8328 21.9735 11.9137 21.8976 11.9818L11.3684 21.4267C10.2037 22.4305 8.6456 22.983 7.03068 22.9646C5.41577 22.9462 3.87373 22.3586 2.73777 21.3286C1.60182 20.2986 0.963146 18.909 0.95976 17.46C0.956374 16.011 1.58855 14.6189 2.71968 13.5847L15.3551 2.24476L15.421 2.19097C16.3742 1.43617 17.3694 1.00947 18.4185 0.968232C19.4676 0.926996 20.5407 1.28557 21.5938 2.10491L21.6078 2.11567L21.6378 2.14256C22.1012 2.54857 22.4647 3.03715 22.7049 3.57686C22.9304 4.09847 23.008 4.66217 22.9307 5.21734C22.8419 5.89285 22.5672 6.53793 22.1314 7.09447C21.7506 7.56928 21.3203 8.01052 20.8464 8.41223L9.1203 18.9364C8.63458 19.371 7.97753 19.6164 7.29153 19.6195C6.60553 19.6225 5.94583 19.3829 5.45538 18.9525L5.4374 18.9364C4.95793 18.5067 4.68456 17.926 4.6756 17.3181C4.66664 16.7102 4.9228 16.1232 5.38944 15.6823L5.4374 15.6339L15.5369 6.57633C15.6129 6.50817 15.7031 6.4541 15.8023 6.41722C15.9016 6.38033 16.008 6.36134 16.1154 6.36134C16.2229 6.36134 16.3292 6.38033 16.4285 6.41722C16.5278 6.4541 16.618 6.50817 16.6939 6.57633C16.7699 6.64449 16.8302 6.72541 16.8713 6.81447C16.9124 6.90353 16.9336 6.99898 16.9336 7.09537C16.9336 7.19176 16.9124 7.28721 16.8713 7.37627C16.8302 7.46533 16.7699 7.54624 16.6939 7.61441L6.57244 16.6989C6.40722 16.8641 6.31802 17.0795 6.32284 17.3014C6.32766 17.5233 6.42615 17.7354 6.59842 17.8947C6.77968 18.0567 7.02505 18.1476 7.28085 18.1476C7.53664 18.1476 7.78201 18.0567 7.96327 17.8947L19.6954 7.37595C20.0946 7.03716 20.459 6.66695 20.7845 6.26975C21.069 5.9066 21.2488 5.48591 21.3081 5.04522C21.352 4.72681 21.3081 4.40357 21.1802 4.10396C21.023 3.76274 20.7905 3.45356 20.4967 3.19498C19.7853 2.64636 19.1159 2.40612 18.4804 2.43122C17.845 2.45632 17.1795 2.75572 16.5061 3.29L3.87671 14.6209C3.05289 15.3808 2.59397 16.4002 2.59845 17.4602C2.60293 18.5203 3.07046 19.5365 3.90067 20.2907C4.73089 21.045 5.85761 21.4771 7.03897 21.4944C8.22034 21.5117 9.36218 21.1128 10.2194 20.3832L20.7405 10.9438Z" fill="black"/>
</svg>
