<svg width="12" height="15" viewBox="0 0 12 15" fill="none" xmlns="http://www.w3.org/2000/svg">
<path fill-rule="evenodd" clip-rule="evenodd" d="M7.2002 7.29285H4.15527C4.62357 8.68799 4.18582 9.32971 4.18582 9.32971C4.18582 9.32971 4.84784 9.55365 5.67261 9.55365C6.4975 9.55365 7.15948 9.32971 7.15948 9.32971C7.15948 9.32971 6.72144 8.68799 7.2002 7.29285Z" fill="#F0B97D"/>
<path fill-rule="evenodd" clip-rule="evenodd" d="M3.45244 9.44162C3.38121 9.47205 3.30975 9.50281 3.23853 9.53336C3.20798 9.55363 3.1673 9.57393 3.13654 9.58418C3.10609 9.60448 3.06543 9.61473 3.03488 9.63503C3.00433 9.65541 2.97379 9.66577 2.93288 9.68607C2.90245 9.69632 2.8719 9.71661 2.84148 9.72676C2.81082 9.74715 2.78027 9.75731 2.74963 9.77769C2.71909 9.78784 2.68854 9.80814 2.65799 9.81839C2.62756 9.83867 2.59702 9.84892 2.56647 9.85907C2.53572 9.87958 2.51543 9.88983 2.48489 9.91013C2.45435 9.92026 2.4238 9.94067 2.4035 9.95081C2.37285 9.96095 2.34232 9.98125 2.32191 9.9915C2.29147 10.0016 2.26083 10.022 2.24043 10.0323C2.21001 10.0425 2.18959 10.0628 2.15895 10.0731C2.13866 10.0832 2.108 10.1036 2.08771 10.1138C2.06743 10.124 2.03688 10.1443 2.01649 10.1544C1.98584 10.1647 1.96555 10.1748 1.94514 10.1951C1.92485 10.2054 1.89421 10.2154 1.87381 10.2257C1.85352 10.2358 1.83324 10.2563 1.81282 10.2666C1.78218 10.2767 1.76189 10.2869 1.74149 10.2971L1.6804 10.3378C1.66 10.348 1.63962 10.3581 1.61922 10.3684C1.5988 10.3784 1.57841 10.3989 1.55812 10.4091C1.53772 10.4192 1.52769 10.4296 1.50729 10.4398L1.4462 10.4702C1.42581 10.4804 1.41556 10.4905 1.39526 10.5008C1.37486 10.5108 1.36461 10.5212 1.34421 10.5312C1.32404 10.5415 1.31378 10.5516 1.2935 10.5619L1.24234 10.5923L1.20163 10.6228L1.15082 10.6535C1.14067 10.6638 1.12027 10.6739 1.11012 10.6841L1.06944 10.7146C1.04904 10.7146 1.03867 10.7247 1.02853 10.735L0.987839 10.7654L0.947159 10.7858L0.916611 10.8166L0.875916 10.8369L0.845276 10.8571L0.814743 10.8877L0.784195 10.9081L0.753647 10.9285L0.723221 10.9488L0.692673 10.9692L0.672272 10.9895L0.641617 11.0101L0.621338 11.0304L0.600922 11.0507L0.570282 11.0711L0.549988 11.0812L0.529587 11.1016L0.509293 11.1118L0.499161 11.132L0.478546 11.1423L0.458252 11.1627L0.448105 11.1728C0.274887 11.3255 0.122269 11.6209 0 11.9978C1.51744 13.3115 3.50328 14.1059 5.67247 14.1059C7.84157 14.1059 9.82753 13.3115 11.3552 11.9978C11.2228 11.6209 11.0801 11.3255 10.907 11.1728C10.6015 10.9081 9.91914 10.3684 7.73991 9.37039V9.36024L7.33247 9.17688C7.26115 9.14633 7.18993 9.1158 7.12883 9.08514L5.67247 11.947L4.23651 9.08514L4.61328 9.00366L4.19583 9.09528C4.043 9.16663 3.90044 9.22772 3.75798 9.29916L3.73758 9.30931C3.6357 9.34999 3.54407 9.39067 3.45244 9.44162ZM3.45244 9.44162C3.38121 9.47205 3.30975 9.50281 3.23853 9.53336L3.45244 9.44162Z" fill="#45A5AE"/>
<path fill-rule="evenodd" clip-rule="evenodd" d="M7.24106 9.14639L7.12912 9.08514L5.67276 11.947L4.23676 9.08514L4.19604 9.09537L4.10449 9.13623L5.67276 12.2625L7.24106 9.14639Z" fill="#FEFEFE"/>
<path fill-rule="evenodd" clip-rule="evenodd" d="M7.12869 9.0851L6.72119 9.02412L4.61316 9.00372L4.23633 9.0851L5.67233 11.947L7.12869 9.0851Z" fill="#F0B97D"/>
<path fill-rule="evenodd" clip-rule="evenodd" d="M2.5872 4.17664C1.81315 4.03407 2.47508 6.32542 3.02498 5.97909L3.33049 6.86514C3.59538 7.65947 4.27757 8.38256 4.79704 8.95284C5.00068 9.17688 6.24321 9.17688 6.44688 8.96309C7.01713 8.36227 7.69935 7.67987 7.95405 6.85501L8.22893 5.97909C8.78911 6.32542 9.44096 4.03407 8.67717 4.17664C8.72801 2.39449 7.47538 0.663162 5.63215 0.653015C3.78886 0.663162 2.52604 2.39449 2.5872 4.17664Z" fill="#FED198"/>
<path fill-rule="evenodd" clip-rule="evenodd" d="M3.14636 5.9995C3.14636 5.9995 2.22995 3.9525 2.5762 2.19073C2.5762 2.19073 2.77985 0.449379 4.65366 0.13359C4.65366 0.13359 6.55799 -0.395775 7.22 0.653034C7.22 0.653034 8.92072 0.74477 8.89029 2.24168C8.89029 2.24168 8.82898 4.64505 7.97354 5.9995C7.97354 5.9995 8.34027 4.11546 7.76999 3.67761C7.76999 3.67761 8.04477 2.6083 7.36258 2.55746C7.36258 2.55746 6.43595 3.27031 5.39704 3.44342C5.39704 3.44342 6.09976 3.08694 6.38501 2.50642C6.38501 2.50642 4.90824 3.58609 3.64539 3.81015C3.64539 3.81015 4.09351 3.38222 4.31769 2.6899C4.31769 2.6899 3.64539 3.61653 3.21768 3.92195L3.14636 5.9995Z" fill="#1F120E"/>
</svg>
