<svg width="136" height="18" viewBox="0 0 136 18" fill="none" xmlns="http://www.w3.org/2000/svg">
<g clip-path="url(#clip0_218_2)">
<path d="M0 17.09V15.71L1.79 15.41V2.84L0 2.53V1.14H6.88C8.26684 1.05833 9.6417 1.43809 10.79 2.22C11.2679 2.60716 11.6455 3.10372 11.891 3.66768C12.1364 4.23164 12.2424 4.84641 12.2 5.46C12.1995 6.15285 11.9593 6.82419 11.52 7.36C11.0522 7.9294 10.4362 8.35852 9.74 8.6C10.3507 8.71447 10.9221 8.98295 11.4 9.38C11.8562 9.75903 12.2189 10.2381 12.46 10.78C12.7206 11.3473 12.8504 11.9658 12.84 12.59C12.8802 13.2204 12.7728 13.8514 12.5263 14.433C12.2798 15.0145 11.901 15.5306 11.42 15.94C10.3043 16.7566 8.94074 17.1629 7.56 17.09H0ZM3.94 7.92H7.44C8.1302 7.95127 8.80515 7.71073 9.32 7.25C9.55654 7.00849 9.73939 6.71973 9.85657 6.40264C9.97376 6.08556 10.0226 5.74729 10 5.41C10.0265 5.04725 9.96689 4.68337 9.82614 4.34799C9.68538 4.01262 9.46742 3.71521 9.19 3.48C8.50068 3.00901 7.67296 2.78359 6.84 2.84H3.94V7.92ZM3.94 15.41H7.56C8.39049 15.4589 9.20972 15.1989 9.86 14.68C10.1369 14.4142 10.3527 14.0914 10.4925 13.734C10.6324 13.3766 10.6929 12.9931 10.67 12.61C10.6845 12.0582 10.5822 11.5096 10.37 11C10.1737 10.5798 9.8524 10.2306 9.45 10C8.97133 9.74323 8.43278 9.61894 7.89 9.64H3.94V15.41Z" fill="white"/>
<path d="M14.14 17.09V15.71L15.92 15.41V1.7L14.14 1.39V0H18.08V6.82C18.4688 6.26518 18.9826 5.80958 19.58 5.49C20.1972 5.16939 20.8846 5.00784 21.58 5.02C22.1329 4.98035 22.6877 5.06182 23.2059 5.25872C23.724 5.45561 24.193 5.76319 24.58 6.16C25.3437 7.1622 25.7008 8.41579 25.58 9.67V15.41L27.37 15.71V17.09H21.62V15.71L23.41 15.41V9.64C23.4727 8.86393 23.2486 8.09182 22.78 7.47C22.5345 7.22622 22.2398 7.03766 21.9156 6.91694C21.5914 6.79622 21.2451 6.74613 20.9 6.77C20.3322 6.76285 19.7728 6.90787 19.28 7.19C18.7951 7.47358 18.384 7.8676 18.08 8.34V15.41L19.87 15.71V17.09H14.14Z" fill="white"/>
<path d="M32.65 17.33C31.6315 17.3963 30.6263 17.0707 29.84 16.42C29.502 16.0902 29.2381 15.6922 29.0657 15.2526C28.8933 14.8129 28.8163 14.3416 28.84 13.87C28.8165 13.1527 29.0349 12.4483 29.46 11.87C29.9212 11.2733 30.5418 10.8192 31.25 10.56C32.1497 10.2324 33.1028 10.0764 34.06 10.1H36.2V9C36.2194 8.69264 36.1712 8.38476 36.0589 8.09798C35.9466 7.81121 35.7729 7.55249 35.55 7.34C35.0363 6.91941 34.3826 6.70864 33.72 6.75C33.2799 6.74167 32.8413 6.80241 32.42 6.93C32.0641 7.04699 31.7272 7.21544 31.42 7.43L31.2 9.05H29.53V6.33C30.0836 5.88565 30.714 5.5467 31.39 5.33C32.1558 5.1028 32.9513 4.99156 33.75 5C34.9631 4.9186 36.1653 5.27325 37.14 6C37.5599 6.37294 37.8883 6.8375 38.0999 7.35772C38.3114 7.87794 38.4004 8.43987 38.36 9V14.71C38.36 14.86 38.36 15.01 38.36 15.16C38.3501 15.3032 38.3501 15.4468 38.36 15.59L39.51 15.71V17.09H36.41C36.34 16.77 36.29 16.48 36.25 16.23C36.21 15.98 36.19 15.72 36.17 15.46C35.7489 16.0077 35.2174 16.4609 34.61 16.79C34.0153 17.1388 33.3394 17.325 32.65 17.33ZM33 15.52C33.7021 15.5369 34.395 15.3567 35 15C35.5387 14.7242 35.9814 14.292 36.27 13.76V11.62H34C33.1922 11.554 32.391 11.8091 31.77 12.33C31.5359 12.5249 31.3461 12.7676 31.2133 13.0418C31.0805 13.316 31.0078 13.6154 31 13.92C30.9863 14.1416 31.0223 14.3634 31.1053 14.5693C31.1884 14.7752 31.3164 14.9599 31.48 15.11C31.9208 15.4252 32.4605 15.5708 33 15.52Z" fill="white"/>
<path d="M41.2 17.09V15.71L42.99 15.41V6.94L41.2 6.63V5.24H44.92L45.1 6.75V6.96C45.4043 6.39573 45.8315 5.90703 46.35 5.53C46.8492 5.17616 47.4482 4.99052 48.06 5C48.2946 5.00055 48.5287 5.02062 48.76 5.06L49.27 5.17L49 7.2L47.5 7.11C46.9689 7.04899 46.4341 7.18803 46 7.5C45.6057 7.81328 45.2991 8.22322 45.11 8.69V15.41L46.89 15.71V17.09H41.2Z" fill="white"/>
<path d="M54.42 17.33C53.3982 17.3989 52.3888 17.0732 51.6 16.42C51.262 16.0902 50.9981 15.6922 50.8257 15.2526C50.6533 14.8129 50.5763 14.3416 50.6 13.87C50.5737 13.1538 50.7885 12.4496 51.21 11.87C51.674 11.2718 52.2981 10.8175 53.01 10.56C53.906 10.2315 54.856 10.0755 55.81 10.1H58V9C58.0174 8.69284 57.9683 8.38556 57.8561 8.09909C57.7439 7.81263 57.5713 7.55371 57.35 7.34C56.8314 6.92138 56.1754 6.71103 55.51 6.75C55.0732 6.74088 54.6377 6.80165 54.22 6.93C53.8636 7.04576 53.5265 7.2143 53.22 7.43L53 9.05H51.29V6.33C51.8472 5.88553 52.481 5.54663 53.16 5.33C53.9223 5.10231 54.7145 4.99105 55.51 5C56.7231 4.9186 57.9253 5.27325 58.9 6C59.3229 6.37099 59.6541 6.83496 59.8675 7.35548C60.0809 7.876 60.1708 8.43891 60.13 9V15.16C60.1201 15.3032 60.1201 15.4468 60.13 15.59L61.28 15.71V17.09H58.18C58.11 16.77 58.06 16.48 58.02 16.23C57.98 15.98 57.96 15.72 57.95 15.46C57.5242 16.0032 56.9937 16.4555 56.39 16.79C55.7911 17.1375 55.1123 17.3235 54.42 17.33ZM54.73 15.52C55.4318 15.5337 56.1238 15.3538 56.73 15C57.2631 14.7165 57.7038 14.2862 58 13.76V11.62H55.78C54.9692 11.5546 54.1651 11.8095 53.54 12.33C53.3095 12.5268 53.1235 12.7703 52.9942 13.0444C52.8649 13.3185 52.7953 13.617 52.79 13.92C52.7776 14.1424 52.8151 14.3647 52.8999 14.5706C52.9847 14.7766 53.1146 14.9609 53.28 15.11C53.7 15.4131 54.2135 15.5583 54.73 15.52Z" fill="white"/>
<path d="M67.17 17.28C66.7878 17.2985 66.4057 17.2399 66.0467 17.1076C65.6876 16.9753 65.3588 16.7721 65.08 16.51C64.7926 16.163 64.5767 15.7626 64.4446 15.3318C64.3124 14.9011 64.2667 14.4485 64.31 14V6.84H62.44V5.24H64.31V2.38H66.47V5.24H69V6.84H66.47V14C66.4327 14.4468 66.553 14.8926 66.81 15.26C66.9212 15.3916 67.0609 15.4961 67.2187 15.5654C67.3764 15.6348 67.5479 15.6671 67.72 15.66C68.0048 15.6595 68.289 15.6361 68.57 15.59L69.31 15.47L69.6 16.88C69.2223 16.9875 68.8382 17.071 68.45 17.13C68.0277 17.2122 67.5998 17.2624 67.17 17.28Z" fill="white"/>
<path d="M71.06 17.09V15.71L72.85 15.41V2.84L71.06 2.53V1.14H76.79V2.53L75 2.84V15.44H80.64L80.89 12.92H82.55V17.09H71.06Z" fill="white"/>
<path d="M84.17 17.09V15.71L85.95 15.41V6.94L84.17 6.63V5.24H88.11V15.41L89.9 15.71V17.09H84.17ZM85.84 2.31V0H88.11V2.31H85.84Z" fill="white"/>
<path d="M91.39 17.09V15.71L93.17 15.41V6.94L91.39 6.63V5.24H95.1L95.26 7C95.6265 6.39961 96.1347 5.89829 96.74 5.54C97.3483 5.19136 98.0389 5.01181 98.74 5.02C99.2911 4.98113 99.8441 5.06101 100.362 5.25423C100.879 5.44744 101.349 5.74951 101.74 6.14C102.512 7.12458 102.886 8.36271 102.79 9.61V15.41L104.58 15.71V17.09H98.85V15.71L100.64 15.41V9.65C100.709 8.85631 100.481 8.06535 100 7.43C99.7474 7.1957 99.4492 7.01613 99.1239 6.90256C98.7987 6.78898 98.4535 6.74385 98.11 6.77C97.528 6.75673 96.9547 6.91308 96.46 7.22C95.9773 7.52436 95.5813 7.94798 95.31 8.45V15.45L97.1 15.75V17.13L91.39 17.09Z" fill="white"/>
<path d="M106 17.09V15.71L107.78 15.41V1.7L106 1.39V0H109.94V15.41L111.73 15.71V17.09H106ZM109.79 13.67L109 12L114.15 6.87V6.8L112.88 6.66V5.24H118V6.63L116.47 6.92L109.79 13.67ZM113.61 17.09V15.71L114.82 15.57L111.39 11.14L112.51 9.42L117.3 15.49L119.01 15.75V17.13L113.61 17.09Z" fill="white"/>
<path d="M120.19 17.09V15.71L121.97 15.41V6.94L120.19 6.63V5.24H123.9L124.09 6.75V6.96C124.388 6.39418 124.812 5.90479 125.33 5.53C125.819 5.18597 126.402 5.00091 127 5C127.235 5.00055 127.469 5.02062 127.7 5.06C127.872 5.08659 128.042 5.12332 128.21 5.17L127.93 7.17L126.42 7.08C125.912 7.04476 125.407 7.19387 125 7.5C124.6 7.81005 124.289 8.22069 124.1 8.69V15.41L125.89 15.71V17.09H120.19Z" fill="white"/>
<path d="M134.24 17.51C134.737 17.51 135.14 17.1071 135.14 16.61C135.14 16.1129 134.737 15.71 134.24 15.71C133.743 15.71 133.34 16.1129 133.34 16.61C133.34 17.1071 133.743 17.51 134.24 17.51Z" fill="white"/>
<path d="M136 12.93C136.002 13.1796 135.937 13.4251 135.81 13.64C135.679 13.8414 135.496 14.0037 135.28 14.11C135.033 14.2258 134.763 14.2839 134.49 14.28H134.37C134.108 14.286 133.848 14.2313 133.61 14.12C133.388 14.0198 133.2 13.8564 133.07 13.65C132.934 13.435 132.864 13.1845 132.87 12.93C132.865 12.7107 132.906 12.4928 132.99 12.29C133.067 12.1157 133.18 11.9591 133.32 11.83H134V12.26L133.48 12.35C133.408 12.4158 133.353 12.4982 133.32 12.59C133.277 12.6946 133.257 12.807 133.26 12.92C133.257 13.0766 133.311 13.229 133.41 13.35C133.51 13.4778 133.64 13.5777 133.79 13.64C133.962 13.7087 134.145 13.7426 134.33 13.74H134.45C134.644 13.7444 134.837 13.7139 135.02 13.65C135.169 13.5913 135.3 13.4948 135.4 13.37C135.486 13.2433 135.532 13.0933 135.53 12.94C135.537 12.7719 135.48 12.6073 135.37 12.48C135.265 12.3539 135.114 12.2748 134.95 12.26V11.76C135.123 11.77 135.291 11.8214 135.44 11.91C135.594 12.0079 135.719 12.1463 135.8 12.31C135.917 12.4969 135.986 12.71 136 12.93Z" fill="white"/>
<path d="M136 9.89C136.007 10.1391 135.941 10.3847 135.809 10.5963C135.677 10.8079 135.486 10.9761 135.26 11.08C135.012 11.1914 134.742 11.246 134.47 11.24H134.41C134.135 11.2472 133.861 11.1925 133.61 11.08C133.39 10.977 133.202 10.8141 133.07 10.61C132.939 10.3944 132.87 10.1471 132.87 9.895C132.87 9.6429 132.939 9.39562 133.07 9.18C133.202 8.97588 133.39 8.81304 133.61 8.71C133.861 8.59747 134.135 8.5428 134.41 8.55H134.47C134.742 8.54293 135.012 8.59763 135.26 8.71C135.48 8.81304 135.668 8.97588 135.8 9.18C135.935 9.39191 136.004 9.63883 136 9.89ZM135.57 9.89C135.574 9.73013 135.521 9.57406 135.42 9.45C135.317 9.32889 135.182 9.23888 135.03 9.19C134.85 9.12689 134.661 9.09641 134.47 9.1H134.41C134.216 9.09649 134.023 9.12695 133.84 9.19C133.686 9.23907 133.55 9.3331 133.45 9.46C133.346 9.58218 133.292 9.73957 133.3 9.9C133.296 10.0599 133.349 10.2159 133.45 10.34C133.548 10.4672 133.685 10.5586 133.84 10.6C134.023 10.663 134.216 10.6935 134.41 10.69H134.47C134.661 10.6936 134.85 10.6631 135.03 10.6C135.185 10.5586 135.322 10.4672 135.42 10.34C135.512 10.2088 135.554 10.0494 135.54 9.89H135.57Z" fill="white"/>
<path d="M135.91 8.13H135.56L135.48 7.67H133.33L133.25 8.13H132.9V7.13H133.29C133.151 7.03632 133.037 6.90908 132.96 6.76C132.877 6.59586 132.836 6.41384 132.84 6.23C132.836 6.05003 132.885 5.87287 132.98 5.72C133.077 5.564 133.226 5.44714 133.4 5.39C133.236 5.29553 133.099 5.16143 133 5C132.898 4.8351 132.846 4.644 132.85 4.45C132.844 4.31202 132.87 4.17458 132.926 4.0481C132.981 3.92162 133.065 3.80942 133.17 3.72C133.462 3.51683 133.816 3.42462 134.17 3.46H135.54L135.62 3H135.97V4.49H135.62L135.48 4H134.1C133.879 3.97873 133.658 4.0315 133.47 4.15C133.408 4.20628 133.359 4.2761 133.328 4.3541C133.297 4.43211 133.284 4.51623 133.29 4.6C133.284 4.68704 133.3 4.77414 133.335 4.85413C133.369 4.93411 133.423 5.00467 133.49 5.06C133.632 5.18474 133.811 5.25863 134 5.27H135.48L135.56 4.81H135.91V6.31H135.56L135.48 5.85H134.1C133.881 5.83394 133.664 5.89015 133.48 6.01C133.416 6.0653 133.365 6.13469 133.332 6.21275C133.299 6.29081 133.285 6.37543 133.29 6.46C133.283 6.60667 133.317 6.7524 133.39 6.88C133.462 6.9857 133.563 7.06888 133.68 7.12H135.48L135.56 6.67H135.91V8.13Z" fill="white"/>
</g>
<defs>
<clipPath id="clip0_218_2">
<rect width="135.97" height="17.51" fill="white"/>
</clipPath>
</defs>
</svg>
