<svg xmlns="http://www.w3.org/2000/svg" viewBox="0 0 135.97 17.51"><defs><style>.cls-1{fill:#44368c;}</style></defs><g id="Layer_2" data-name="Layer 2"><g id="Layer_1-2" data-name="Layer 1"><path class="cls-1" d="M0,17.09V15.71l1.79-.3V2.84L0,2.53V1.14H6.88a6.29,6.29,0,0,1,3.91,1.08A3.83,3.83,0,0,1,12.2,5.46a3,3,0,0,1-.68,1.9A4,4,0,0,1,9.74,8.6a3.65,3.65,0,0,1,1.66.78,3.86,3.86,0,0,1,1.06,1.4,4.17,4.17,0,0,1,.38,1.81,4.06,4.06,0,0,1-1.42,3.35,6,6,0,0,1-3.86,1.15ZM3.94,7.92h3.5a2.64,2.64,0,0,0,1.88-.67A2.4,2.4,0,0,0,10,5.41a2.31,2.31,0,0,0-.81-1.93,3.72,3.72,0,0,0-2.35-.64H3.94Zm0,7.49H7.56a3.37,3.37,0,0,0,2.3-.73,2.65,2.65,0,0,0,.81-2.07,3.92,3.92,0,0,0-.3-1.61,2.25,2.25,0,0,0-.92-1,3.05,3.05,0,0,0-1.56-.36H3.94Z"/><path class="cls-1" d="M14.14,17.09V15.71l1.78-.3V1.7l-1.78-.31V0h3.94V6.82a4.32,4.32,0,0,1,1.5-1.33,4.18,4.18,0,0,1,2-.47,3.81,3.81,0,0,1,3,1.14,5,5,0,0,1,1,3.51v5.74l1.79.3v1.38H21.62V15.71l1.79-.3V9.64a3.18,3.18,0,0,0-.63-2.17,2.43,2.43,0,0,0-1.88-.7,3.18,3.18,0,0,0-1.62.42,3.57,3.57,0,0,0-1.2,1.15v7.07l1.79.3v1.38Z"/><path class="cls-1" d="M32.65,17.33a4,4,0,0,1-2.81-.91,3.33,3.33,0,0,1-1-2.55,3.2,3.2,0,0,1,.62-2,4,4,0,0,1,1.79-1.31,7.66,7.66,0,0,1,2.81-.46H36.2V9a2.11,2.11,0,0,0-.65-1.66,2.63,2.63,0,0,0-1.83-.59,4.21,4.21,0,0,0-1.3.18,3.84,3.84,0,0,0-1,.5L31.2,9.05H29.53V6.33a5.8,5.8,0,0,1,1.86-1A8,8,0,0,1,33.75,5a5.1,5.1,0,0,1,3.39,1,3.66,3.66,0,0,1,1.22,3v5.71c0,.15,0,.3,0,.45a3.11,3.11,0,0,0,0,.43l1.15.12v1.38h-3.1c-.07-.32-.12-.61-.16-.86s-.06-.51-.08-.77a4.93,4.93,0,0,1-1.56,1.33A3.93,3.93,0,0,1,32.65,17.33ZM33,15.52a3.76,3.76,0,0,0,2-.52,3,3,0,0,0,1.27-1.24V11.62H34a3.08,3.08,0,0,0-2.23.71A2.14,2.14,0,0,0,31,13.92a1.49,1.49,0,0,0,.48,1.19A2.25,2.25,0,0,0,33,15.52Z"/><path class="cls-1" d="M41.2,17.09V15.71l1.79-.3V6.94L41.2,6.63V5.24h3.72l.18,1.51,0,.21a4.28,4.28,0,0,1,1.25-1.43A2.88,2.88,0,0,1,48.06,5a4.23,4.23,0,0,1,.7.06l.51.11L49,7.2l-1.5-.09A2.15,2.15,0,0,0,46,7.5a2.92,2.92,0,0,0-.89,1.19v6.72l1.78.3v1.38Z"/><path class="cls-1" d="M54.42,17.33a4,4,0,0,1-2.82-.91,3.33,3.33,0,0,1-1-2.55,3.2,3.2,0,0,1,.61-2,4,4,0,0,1,1.8-1.31,7.57,7.57,0,0,1,2.8-.46H58V9a2.14,2.14,0,0,0-.65-1.66,2.68,2.68,0,0,0-1.84-.59,4.1,4.1,0,0,0-1.29.18,3.75,3.75,0,0,0-1,.5L53,9.05H51.29V6.33a5.85,5.85,0,0,1,1.87-1A7.9,7.9,0,0,1,55.51,5a5.1,5.1,0,0,1,3.39,1,3.64,3.64,0,0,1,1.23,3v6.16a3.11,3.11,0,0,0,0,.43l1.15.12v1.38h-3.1c-.07-.32-.12-.61-.16-.86s-.06-.51-.07-.77a5.16,5.16,0,0,1-1.56,1.33A4,4,0,0,1,54.42,17.33Zm.31-1.81a3.82,3.82,0,0,0,2-.52A3.16,3.16,0,0,0,58,13.76V11.62H55.78a3.11,3.11,0,0,0-2.24.71,2.14,2.14,0,0,0-.75,1.59,1.49,1.49,0,0,0,.49,1.19A2.2,2.2,0,0,0,54.73,15.52Z"/><path class="cls-1" d="M67.17,17.28a2.85,2.85,0,0,1-2.09-.77A3.42,3.42,0,0,1,64.31,14V6.84H62.44V5.24h1.87V2.38h2.16V5.24H69v1.6H66.47V14a1.92,1.92,0,0,0,.34,1.26,1.13,1.13,0,0,0,.91.4,5.3,5.3,0,0,0,.85-.07l.74-.12.29,1.41a9.31,9.31,0,0,1-1.15.25A8.52,8.52,0,0,1,67.17,17.28Z"/><path class="cls-1" d="M71.06,17.09V15.71l1.79-.3V2.84l-1.79-.31V1.14h5.73V2.53L75,2.84v12.6h5.64l.25-2.52h1.66v4.17Z"/><path class="cls-1" d="M84.17,17.09V15.71l1.78-.3V6.94l-1.78-.31V5.24h3.94V15.41l1.79.3v1.38ZM85.84,2.31V0h2.27V2.31Z"/><path class="cls-1" d="M91.39,17.09V15.71l1.78-.3V6.94l-1.78-.31V5.24H95.1L95.26,7a4.3,4.3,0,0,1,1.48-1.46,3.93,3.93,0,0,1,2-.52,3.86,3.86,0,0,1,3,1.12,5,5,0,0,1,1.05,3.47v5.8l1.79.3v1.38H98.85V15.71l1.79-.3V9.65A3.22,3.22,0,0,0,100,7.43a2.5,2.5,0,0,0-1.89-.66,3,3,0,0,0-1.65.45,3.32,3.32,0,0,0-1.15,1.23v7l1.79.3v1.38Z"/><path class="cls-1" d="M106,17.09V15.71l1.78-.3V1.7L106,1.39V0h3.94V15.41l1.79.3v1.38Zm3.79-3.42L109,12l5.15-5.13,0-.07-1.27-.14V5.24H118V6.63l-1.53.29Zm3.82,3.42V15.71l1.21-.14,0,0-3.43-4.43,1.12-1.72,4.79,6.07,1.71.26v1.38Z"/><path class="cls-1" d="M120.19,17.09V15.71l1.78-.3V6.94l-1.78-.31V5.24h3.71l.19,1.51,0,.21a4.15,4.15,0,0,1,1.24-1.43A2.91,2.91,0,0,1,127,5a4.23,4.23,0,0,1,.7.06,4.42,4.42,0,0,1,.51.11l-.28,2-1.51-.09A2.12,2.12,0,0,0,125,7.5a2.86,2.86,0,0,0-.9,1.19v6.72l1.79.3v1.38Z"/><circle class="cls-1" cx="134.24" cy="16.61" r="0.9"/><path class="cls-1" d="M136,12.93a1.37,1.37,0,0,1-.19.71,1.34,1.34,0,0,1-.53.47,1.8,1.8,0,0,1-.79.17h-.12a1.7,1.7,0,0,1-.76-.16,1.24,1.24,0,0,1-.54-.47,1.29,1.29,0,0,1-.2-.72,1.59,1.59,0,0,1,.12-.64,1.39,1.39,0,0,1,.33-.46H134v.43l-.52.09a.6.6,0,0,0-.16.24.81.81,0,0,0-.06.33.66.66,0,0,0,.15.43.94.94,0,0,0,.38.29,1.4,1.4,0,0,0,.54.1h.12a1.62,1.62,0,0,0,.57-.09.92.92,0,0,0,.38-.28.75.75,0,0,0,.13-.43.66.66,0,0,0-.16-.46.62.62,0,0,0-.42-.22v-.5h0a1.08,1.08,0,0,1,.49.15,1,1,0,0,1,.36.4A1.33,1.33,0,0,1,136,12.93Z"/><path class="cls-1" d="M136,9.89a1.27,1.27,0,0,1-.74,1.19,1.83,1.83,0,0,1-.79.16h-.06a1.84,1.84,0,0,1-.8-.16,1.3,1.3,0,0,1-.54-.47,1.38,1.38,0,0,1,0-1.43,1.3,1.3,0,0,1,.54-.47,1.84,1.84,0,0,1,.8-.16h.06a1.8,1.8,0,0,1,.79.16,1.3,1.3,0,0,1,.54.47A1.28,1.28,0,0,1,136,9.89Zm-.43,0a.67.67,0,0,0-.15-.44.86.86,0,0,0-.39-.26,1.6,1.6,0,0,0-.56-.09h-.06a1.66,1.66,0,0,0-.57.09.81.81,0,0,0-.39.27.63.63,0,0,0-.15.44.67.67,0,0,0,.15.44.73.73,0,0,0,.39.26,1.66,1.66,0,0,0,.57.09h.06a1.6,1.6,0,0,0,.56-.09.73.73,0,0,0,.39-.26A.68.68,0,0,0,135.54,9.89Z"/><path class="cls-1" d="M135.91,8.13h-.35l-.08-.46h-2.15l-.08.46h-.35v-1l.39,0a1,1,0,0,1-.33-.37,1.12,1.12,0,0,1-.12-.53.93.93,0,0,1,.14-.51.78.78,0,0,1,.42-.33A1.13,1.13,0,0,1,133,5a1,1,0,0,1-.15-.55.91.91,0,0,1,.32-.73,1.49,1.49,0,0,1,1-.26h1.37l.08-.46h.35V4.49h-.35L135.48,4H134.1a1,1,0,0,0-.63.15.55.55,0,0,0-.18.45.55.55,0,0,0,.2.46.85.85,0,0,0,.51.21h1.48l.08-.46h.35V6.31h-.35l-.08-.46H134.1a1,1,0,0,0-.62.16.55.55,0,0,0-.19.45.77.77,0,0,0,.1.42.68.68,0,0,0,.29.24h1.8l.08-.45h.35Z"/></g></g></svg>