<svg width="12" height="11" viewBox="0 0 12 11" fill="none" xmlns="http://www.w3.org/2000/svg">
<path d="M3.97613 10.1798H8.53583C8.95204 10.1798 9.29402 9.92531 9.44247 9.55948L10.9562 5.97003C11.0013 5.85339 11.0251 5.73144 11.0251 5.5989V4.57561C11.0251 4.01625 10.5744 3.39327 10.023 3.39327H6.86306L7.34024 1.23271L7.35614 1.07365C7.35614 0.864223 7.27131 0.673351 7.13611 0.5355L6.60061 0L3.26036 3.37471C3.08009 3.55763 2.96875 3.81213 2.96875 4.09313V9.18304C2.96875 9.7424 3.42472 10.1798 3.97613 10.1798Z" fill="black"/>
<path d="M0 4.2417H1.69664V10.1799H0V4.2417Z" fill="black"/>
</svg>
