<svg width="14" height="9" viewBox="0 0 14 9" fill="none" xmlns="http://www.w3.org/2000/svg">
<path d="M13.4502 4.18234C12.2696 1.87884 9.93233 0.320312 7.25612 0.320312C4.57992 0.320312 2.24202 1.87993 1.06208 4.18256C0.961079 4.38234 0.961079 4.61824 1.06208 4.81803C2.24267 7.12153 4.57992 8.68005 7.25612 8.68005C9.93233 8.68005 12.2702 7.12044 13.4502 4.81781C13.5512 4.61802 13.5512 4.38212 13.4502 4.18234ZM7.25612 7.63509C5.52476 7.63509 4.12122 6.23154 4.12122 4.50018C4.12122 2.76882 5.52476 1.36528 7.25612 1.36528C8.98748 1.36528 10.391 2.76882 10.391 4.50018C10.3919 6.23189 8.98783 7.63593 7.25612 7.63509ZM7.25612 2.41025C7.06958 2.41285 6.88424 2.44061 6.70512 2.49276C7.01023 2.90739 6.96671 3.48273 6.60269 3.84675C6.23867 4.21077 5.66333 4.25429 5.2487 3.94918C5.01442 4.81231 5.35667 5.72873 6.09939 6.22698C6.84211 6.72524 7.81986 6.69435 8.52965 6.15021C9.23944 5.60607 9.52317 4.66988 9.23488 3.82326C8.94658 2.97663 8.15048 2.40814 7.25612 2.41025L7.25612 2.41025Z" fill="black"/>
</svg>
