<svg width="20" height="20" viewBox="0 0 20 20" fill="none" xmlns="http://www.w3.org/2000/svg">
<g clip-path="url(#clip0_21_9)">
<path d="M9.167 1.667C10.6504 1.667 12.1004 2.10687 13.3338 2.93098C14.5671 3.75509 15.5284 4.92643 16.0961 6.29687C16.6638 7.66732 16.8123 9.17532 16.5229 10.6302C16.2335 12.085 15.5192 13.4214 14.4703 14.4703C13.4214 15.5192 12.085 16.2335 10.6302 16.5229C9.17532 16.8123 7.66732 16.6638 6.29687 16.0961C4.92643 15.5284 3.75509 14.5671 2.93098 13.3338C2.10687 12.1004 1.667 10.6504 1.667 9.167C1.667 7.17788 2.45718 5.27022 3.8637 3.8637C5.27022 2.45718 7.17788 1.667 9.167 1.667ZM9.167 15C10.3207 15 11.4484 14.6579 12.4076 14.017C13.3669 13.376 14.1145 12.465 14.556 11.3992C14.9975 10.3334 15.113 9.16053 14.8879 8.02904C14.6629 6.89755 14.1073 5.85821 13.2916 5.04245C12.4758 4.22669 11.4365 3.67115 10.305 3.44608C9.17347 3.22101 8.00065 3.33652 6.93481 3.77801C5.86897 4.2195 4.95798 4.96713 4.31704 5.92636C3.6761 6.88559 3.334 8.01334 3.334 9.167C3.33387 9.93304 3.48465 10.6916 3.77774 11.3993C4.07083 12.1071 4.50048 12.7502 5.04215 13.2918C5.58382 13.8335 6.2269 14.2632 6.93465 14.5563C7.6424 14.8493 8.40096 15.0001 9.167 15ZM16.238 15.059L18.596 17.416L17.417 18.595L15.06 16.237L16.238 15.059Z" fill="#463196"/>
</g>
<defs>
<clipPath id="clip0_21_9">
<rect width="20" height="20" fill="white"/>
</clipPath>
</defs>
</svg>
