<svg width="5" height="18" viewBox="0 0 5 18" fill="none" xmlns="http://www.w3.org/2000/svg">
<path d="M4.85352 15.0616C4.85352 13.9497 3.94894 13.0452 2.83707 13.0452C1.72519 13.0452 0.82061 13.9497 0.82061 15.0616C0.82061 16.1735 1.72519 17.0781 2.83707 17.0781C3.94894 17.0781 4.85352 16.1735 4.85352 15.0616Z" fill="#463196"/>
<path d="M4.85352 2.38682C4.85352 1.27494 3.94894 0.370361 2.83707 0.370361C1.72519 0.370361 0.82061 1.27494 0.82061 2.38682C0.82061 3.49869 1.72519 4.40327 2.83707 4.40327C3.94894 4.40327 4.85352 3.49869 4.85352 2.38682Z" fill="#463196"/>
<path d="M4.85352 8.72421C4.85352 7.61234 3.94894 6.70776 2.83707 6.70776C1.72519 6.70776 0.82061 7.61234 0.82061 8.72421C0.82061 9.83609 1.72519 10.7407 2.83707 10.7407C3.94894 10.7407 4.85352 9.83609 4.85352 8.72421Z" fill="#463196"/>
</svg>
