<svg width="16" height="16" viewBox="0 0 16 16" fill="none" xmlns="http://www.w3.org/2000/svg">
<path d="M8.00002 0.754395C3.85698 0.754395 0.5 4.11136 0.5 8.25437C0.5 12.3974 3.85698 15.7544 8.00002 15.7544C12.1431 15.7544 15.5 12.3974 15.5 8.25437C15.5 4.11136 12.1431 0.754395 8.00002 0.754395ZM8.50483 8.90341C8.50483 9.18105 8.27767 9.40822 8.00002 9.40822H4.53847C4.26083 9.40822 4.03366 9.18105 4.03366 8.90341C4.03366 8.62577 4.26083 8.3986 4.53847 8.3986H7.49521V3.639C7.49521 3.36136 7.72238 3.1342 8.00002 3.1342C8.27767 3.1342 8.50483 3.36136 8.50483 3.639V8.90341Z" fill="#463196"/>
</svg>
