<svg width="23" height="23" viewBox="0 0 23 23" fill="none" xmlns="http://www.w3.org/2000/svg">
<path d="M22.375 11.5C22.375 17.6509 17.3894 22.6348 11.2402 22.6348C5.0911 22.6348 0.105469 17.6509 0.105469 11.5C0.105469 5.35267 5.0911 0.365234 11.2402 0.365234C17.3894 0.365234 22.375 5.35267 22.375 11.5ZM11.539 4.04689C9.09221 4.04689 7.53164 5.07762 6.30619 6.90951C6.14743 7.14685 6.20054 7.46693 6.42809 7.63947L7.98601 8.82074C8.2197 8.99796 8.55267 8.9558 8.73424 8.72547C9.5363 7.70816 10.0863 7.11825 11.307 7.11825C12.2243 7.11825 13.3588 7.70857 13.3588 8.598C13.3588 9.2704 12.8037 9.61571 11.8981 10.1235C10.8419 10.7155 9.4443 11.4525 9.4443 13.2959V13.4755C9.4443 13.7731 9.68554 14.0143 9.98308 14.0143H12.4974C12.7949 14.0143 13.0362 13.7731 13.0362 13.4755V13.4157C13.0362 12.1378 16.7711 12.0846 16.7711 8.62651C16.7711 6.02232 14.0698 4.04689 11.539 4.04689ZM11.2402 15.1817C10.1014 15.1817 9.17491 16.1081 9.17491 17.247C9.17491 18.3858 10.1014 19.3123 11.2402 19.3123C12.3791 19.3123 13.3056 18.3858 13.3056 17.247C13.3056 16.1081 12.3791 15.1817 11.2402 15.1817Z" fill="#463196"/>
</svg>
