<svg width="18" height="18" viewBox="0 0 18 18" fill="none" xmlns="http://www.w3.org/2000/svg">
<path d="M12.6917 5.45791C11.6864 4.45262 10.3718 3.94568 9.04857 3.94568V9.10101L5.40545 12.7441C7.41604 14.7547 10.6811 14.7547 12.7003 12.7441C14.7109 10.7335 14.7109 7.46849 12.6917 5.45791ZM9.04857 0.508789C4.30564 0.508789 0.456299 4.3581 0.456299 9.10101C0.456299 13.8439 4.30564 17.6932 9.04857 17.6932C13.7915 17.6932 17.6408 13.8439 17.6408 9.10101C17.6408 4.3581 13.7915 0.508789 9.04857 0.508789ZM9.04857 15.9748C5.25079 15.9748 2.17475 12.8988 2.17475 9.10101C2.17475 5.30325 5.25079 2.22723 9.04857 2.22723C12.8464 2.22723 15.9224 5.30325 15.9224 9.10101C15.9224 12.8988 12.8464 15.9748 9.04857 15.9748Z" fill="#463196"/>
</svg>
