<svg width="16" height="13" viewBox="0 0 16 13" fill="none" xmlns="http://www.w3.org/2000/svg">
<path d="M14.6798 0.462374C13.2308 0.544608 10.3507 0.843932 8.57269 1.93229C8.45 2.00738 8.38046 2.14092 8.38046 2.28053V11.902C8.38046 12.2074 8.71442 12.4004 8.99603 12.2587C10.8253 11.338 13.4708 11.0868 14.7789 11.018C15.2256 10.9945 15.5727 10.6365 15.5727 10.2073V1.27414C15.573 0.805856 15.1669 0.434873 14.6798 0.462374H14.6798ZM7.34234 1.93229C5.56462 0.843932 2.68454 0.544873 1.2355 0.462374C0.748438 0.434873 0.342285 0.805856 0.342285 1.27414V10.2076C0.342285 10.637 0.689472 10.995 1.13608 11.0183C2.44471 11.0871 5.09157 11.3385 6.92085 12.2598C7.20166 12.4012 7.53457 12.2085 7.53457 11.9039V2.27577C7.53457 2.13589 7.46529 2.00765 7.34234 1.93229Z" fill="#463196"/>
</svg>
