<svg width="12" height="14" viewBox="0 0 12 14" fill="none" xmlns="http://www.w3.org/2000/svg">
<path d="M11.0456 13.3621H1.00912C0.66268 13.3621 0.381836 13.0812 0.381836 12.7348V1.44369C0.381836 1.09725 0.66268 0.816406 1.00912 0.816406H11.0456C11.3921 0.816406 11.6729 1.09725 11.6729 1.44369V12.7348C11.6729 13.0812 11.3921 13.3621 11.0456 13.3621ZM10.4184 12.1075V2.07097H1.6364V12.1075H10.4184ZM2.89097 3.32554H5.4001V5.83467H2.89097V3.32554ZM2.89097 7.08923H9.16379V8.3438H2.89097V7.08923ZM2.89097 9.59836H9.16379V10.8529H2.89097V9.59836ZM6.65466 3.95282H9.16379V5.20738H6.65466V3.95282Z" fill="#463196"/>
</svg>
