<svg width="25" height="23" viewBox="0 0 25 23" fill="none" xmlns="http://www.w3.org/2000/svg">
<path fill-rule="evenodd" clip-rule="evenodd" d="M6.06898 19.1128V10.8179H9.44832C10.8725 11.1012 12.3129 11.9601 13.7452 12.9563H16.3698C17.5579 13.0372 18.1785 14.3661 17.0249 15.2408C16.1053 15.9873 14.8907 15.9446 13.6476 15.8209C12.789 15.7737 12.7504 17.0509 13.6476 17.0531C13.9568 17.0801 14.2946 16.9992 14.5916 16.9992C16.1439 16.9992 17.4236 16.6709 18.2069 15.3128L18.5996 14.2987L22.5039 12.1603C24.457 11.4497 25.8384 13.7163 24.4143 15.2768C21.6896 17.475 18.7748 19.37 15.7126 20.9342C13.5601 22.3823 11.4055 22.3328 9.25097 20.9342L6.06898 19.1128ZM11.7412 1.47731H14.7544V0.521668C14.7544 0.383313 14.8041 0.250625 14.8926 0.152793C14.9811 0.0549613 15.1012 0 15.2264 0L18.6851 0C18.8102 0 18.9303 0.0549613 19.0188 0.152793C19.1073 0.250625 19.1571 0.383313 19.1571 0.521668V1.47731H22.1702C22.2581 1.47862 22.3449 1.49916 22.4255 1.53776C22.5062 1.57635 22.5792 1.63223 22.6402 1.70217C22.7677 1.83949 22.8409 2.02706 22.8436 2.22383V4.04742C22.1116 4.60334 21.3361 5.08571 20.5263 5.48876C19.695 5.90269 18.827 6.21995 17.9363 6.43541V5.74734C17.9363 5.60064 17.8836 5.45994 17.7898 5.35621C17.6959 5.25247 17.5686 5.19419 17.4359 5.19419H16.4796C16.3469 5.19419 16.2196 5.25247 16.1257 5.35621C16.0319 5.45994 15.9791 5.60064 15.9791 5.74734V6.42191C15.1104 6.20719 14.2638 5.89528 13.4523 5.49101C12.6202 5.07582 11.8241 4.57757 11.0739 4.00245V2.2036C11.0744 2.00817 11.1449 1.82093 11.27 1.68274C11.395 1.54455 11.5644 1.46666 11.7412 1.46607V1.47731ZM18.3107 0.712796H15.5865C15.5789 0.712548 15.5714 0.714017 15.5644 0.717112C15.5574 0.720206 15.5511 0.724861 15.5458 0.730785C15.5345 0.743374 15.5279 0.760263 15.5275 0.778005V1.45258H18.3758V0.778005C18.3758 0.769174 18.3742 0.760435 18.371 0.752318C18.3679 0.744201 18.3633 0.736875 18.3575 0.730785C18.3513 0.724338 18.3439 0.719406 18.3358 0.716307C18.3278 0.713209 18.3192 0.712013 18.3107 0.712796ZM17.4175 5.68663H16.4796C16.4724 5.68656 16.4653 5.68812 16.4586 5.69121C16.452 5.6943 16.446 5.69887 16.441 5.70462C16.4353 5.70973 16.4309 5.7163 16.428 5.72374C16.4252 5.73119 16.424 5.73929 16.4247 5.74734V7.92845C16.4252 7.94442 16.431 7.95962 16.441 7.97118C16.4461 7.97664 16.4521 7.98086 16.4588 7.98357C16.4655 7.98628 16.4726 7.98742 16.4796 7.98692H17.4135C17.4277 7.98697 17.4414 7.98139 17.4521 7.97118C17.4574 7.96574 17.4616 7.95912 17.4644 7.95176C17.4672 7.94439 17.4686 7.93645 17.4684 7.92845V5.74734C17.4685 5.73937 17.4671 5.73147 17.4643 5.72412C17.4615 5.71678 17.4573 5.71014 17.4521 5.70462C17.4475 5.69836 17.4416 5.69345 17.4348 5.69031C17.4281 5.68718 17.4208 5.68591 17.4135 5.68663H17.4175ZM17.918 7.22465C17.943 7.22785 17.9683 7.22785 17.9933 7.22465C18.9731 6.99603 19.928 6.65229 20.8416 6.19931C21.5296 5.85702 22.194 5.45946 22.8294 5.00981V9.8937C22.8286 9.99093 22.8103 10.087 22.7753 10.1762C22.7404 10.2654 22.6896 10.346 22.6259 10.4131C22.5649 10.4831 22.492 10.5389 22.4113 10.5775C22.3306 10.6161 22.2438 10.6367 22.1559 10.638H11.7412C11.6533 10.6372 11.5663 10.6169 11.4856 10.5782C11.4049 10.5396 11.332 10.4835 11.2713 10.4131C11.208 10.3457 11.1574 10.2651 11.1225 10.1759C11.0876 10.0868 11.069 9.99084 11.0678 9.8937V4.94685C11.7228 5.41529 12.409 5.82797 13.1206 6.18132C14.0343 6.6343 14.9892 6.97804 15.969 7.20666H15.9812V7.91721C15.9801 7.99191 15.9926 8.06608 16.0182 8.13526C16.0437 8.20443 16.0816 8.26718 16.1297 8.31971C16.1759 8.37147 16.2311 8.41246 16.2919 8.44027C16.3527 8.46808 16.4179 8.48213 16.4837 8.4816H17.4175C17.4833 8.48213 17.5486 8.46808 17.6094 8.44027C17.6702 8.41246 17.7253 8.37147 17.7716 8.31971C17.8649 8.21647 17.9176 8.07665 17.918 7.9307V7.22465ZM0.441491 10.0196H4.61023C4.7275 10.0202 4.8398 10.0721 4.92253 10.164C5.00527 10.2559 5.05172 10.3802 5.05172 10.5098V19.4659C5.05118 19.5951 5.0045 19.7189 4.92182 19.8102C4.83914 19.9016 4.72715 19.9532 4.61023 19.9538H0.441491C0.324565 19.9532 0.212581 19.9016 0.129901 19.8102C0.0472211 19.7189 0.000535138 19.5951 0 19.4659L0 10.5098C-1.23387e-06 10.3802 0.0464479 10.2559 0.129186 10.164C0.211923 10.0721 0.324214 10.0202 0.441491 10.0196ZM2.52688 11.5284C2.65685 11.5284 2.7839 11.571 2.89197 11.6508C3.00004 11.7306 3.08427 11.8441 3.134 11.9768C3.18374 12.1095 3.19676 12.2555 3.1714 12.3964C3.14604 12.5373 3.08346 12.6667 2.99155 12.7683C2.89965 12.8698 2.78256 12.939 2.65508 12.967C2.52761 12.9951 2.39547 12.9807 2.2754 12.9257C2.15532 12.8707 2.05268 12.7776 1.98048 12.6582C1.90827 12.5388 1.86973 12.3983 1.86973 12.2547C1.86973 12.0621 1.93896 11.8773 2.0622 11.7411C2.18544 11.6049 2.35259 11.5284 2.52688 11.5284Z" fill="#463196"/>
</svg>
