<svg width="11" height="13" viewBox="0 0 11 13" fill="none" xmlns="http://www.w3.org/2000/svg">
<path d="M5.73058 7.8695V9.02352C4.71648 8.66498 3.59144 8.82108 2.71326 9.44217C1.83509 10.0633 1.3131 11.072 1.3133 12.1477L0.208985 12.1471C0.208638 10.7807 0.840666 9.49103 1.9208 8.65414C3.00093 7.81725 4.40756 7.52734 5.73058 7.86895L5.73058 7.8695ZM4.62626 7.17819C2.79585 7.17819 1.3133 5.69564 1.3133 3.86522C1.3133 2.0348 2.79585 0.552246 4.62626 0.552246C6.45667 0.552246 7.93921 2.0348 7.93921 3.86522C7.93921 5.69564 6.45667 7.17819 4.62626 7.17819ZM4.62626 6.07387C5.84653 6.07387 6.8349 5.0855 6.8349 3.86522C6.8349 2.64494 5.84653 1.65657 4.62626 1.65657C3.40599 1.65657 2.41762 2.64494 2.41762 3.86522C2.41762 5.0855 3.40599 6.07387 4.62626 6.07387ZM7.93921 9.38684V7.73035H9.04353V9.38684H10.7V10.4912H9.04353V12.1477H7.93921V10.4912H6.28273V9.38684H7.93921Z" fill="#463196"/>
</svg>
