<svg width="14" height="13" viewBox="0 0 14 13" fill="none" xmlns="http://www.w3.org/2000/svg">
<path d="M8.29848 4.70212H12.0603C12.7095 4.70212 13.2358 5.22843 13.2358 5.87768V7.11437C13.236 7.268 13.206 7.42016 13.1477 7.56226L11.3285 11.9794C11.2377 12.1997 11.023 12.3434 10.7848 12.3433H0.892467C0.567845 12.3433 0.304688 12.0801 0.304688 11.7555V5.87768C0.304688 5.55306 0.567846 5.2899 0.892467 5.2899H2.93911C3.13007 5.28995 3.30915 5.19723 3.41933 5.04127L6.62449 0.499473C6.70822 0.380819 6.86606 0.34111 6.99597 0.406016L8.0622 0.939134C8.68045 1.24815 8.99977 1.94626 8.82925 2.61608L8.29848 4.70212ZM3.83136 6.2233V11.1677H10.391L12.0603 7.11437V5.87768H8.29848C7.93584 5.87768 7.59336 5.71015 7.37064 5.42374C7.14787 5.13717 7.06994 4.76396 7.15937 4.41234L7.69013 2.32689C7.72436 2.19285 7.66048 2.05309 7.53672 1.99126L7.1482 1.7973L4.37976 5.71898C4.23282 5.92705 4.04473 6.09751 3.83136 6.2233H3.83136ZM2.6558 6.46546H1.48025V11.1677H2.6558V6.46546Z" fill="#463196"/>
</svg>
