<svg width="18" height="15" viewBox="0 0 18 15" fill="none" xmlns="http://www.w3.org/2000/svg">
<path d="M12.4964 5.32599H10.1058C10.0376 4.93395 9.91193 4.58665 9.72869 4.28409C9.54545 3.97727 9.31747 3.71733 9.04474 3.50426C8.77202 3.29119 8.46094 3.13139 8.11151 3.02486C7.76634 2.91406 7.39347 2.85866 6.9929 2.85866C6.28125 2.85866 5.65057 3.03764 5.10085 3.3956C4.55114 3.74929 4.12074 4.26918 3.80966 4.95526C3.49858 5.63707 3.34304 6.47017 3.34304 7.45455C3.34304 8.45597 3.49858 9.29972 3.80966 9.9858C4.125 10.6676 4.5554 11.1832 5.10085 11.5327C5.65057 11.8778 6.27912 12.0504 6.98651 12.0504C7.37855 12.0504 7.74503 11.9993 8.08594 11.897C8.43111 11.7905 8.74006 11.6349 9.01278 11.4304C9.28977 11.2259 9.52202 10.9744 9.70952 10.6761C9.90128 10.3778 10.0334 10.0369 10.1058 9.65341L12.4964 9.66619C12.407 10.2884 12.2131 10.8722 11.9148 11.4176C11.6207 11.9631 11.2351 12.4446 10.7578 12.8622C10.2805 13.2756 9.7223 13.5994 9.0831 13.8338C8.44389 14.0639 7.73438 14.179 6.95455 14.179C5.80398 14.179 4.77699 13.9126 3.87358 13.38C2.97017 12.8473 2.25852 12.0781 1.73864 11.0724C1.21875 10.0668 0.958807 8.8608 0.958807 7.45455C0.958807 6.04403 1.22088 4.83807 1.74503 3.83665C2.26918 2.83097 2.98295 2.06179 3.88636 1.52912C4.78977 0.996448 5.8125 0.730113 6.95455 0.730113C7.68324 0.730113 8.3608 0.832386 8.98722 1.03693C9.61364 1.24148 10.1719 1.5419 10.6619 1.93821C11.152 2.33026 11.5547 2.81179 11.87 3.38281C12.1896 3.94957 12.3984 4.5973 12.4964 5.32599ZM15.9913 14.1406C15.6035 14.1406 15.2711 14.0043 14.9941 13.7315C14.7172 13.4588 14.5808 13.1264 14.585 12.7344C14.5808 12.3509 14.7172 12.0227 14.9941 11.75C15.2711 11.4773 15.6035 11.3409 15.9913 11.3409C16.3663 11.3409 16.6923 11.4773 16.9693 11.75C17.2505 12.0227 17.3933 12.3509 17.3975 12.7344C17.3933 12.9943 17.3251 13.2308 17.193 13.4439C17.0652 13.657 16.8947 13.8274 16.6816 13.9553C16.4728 14.0788 16.2427 14.1406 15.9913 14.1406Z" fill="black"/>
</svg>
