<svg width="23" height="24" viewBox="0 0 23 24" fill="none" xmlns="http://www.w3.org/2000/svg">
<path fill-rule="evenodd" clip-rule="evenodd" d="M18.0334 23.2824C17.1316 22.9404 16.3626 22.4978 15.7569 22.0828C14.4284 22.6207 12.9769 22.9167 11.4583 22.9167C5.13007 22.9167 0 17.7866 0 11.4583C0 5.13007 5.13007 0 11.4583 0C17.7866 0 22.9167 5.13007 22.9167 11.4583C22.9167 13.8321 22.1938 16.0399 20.9561 17.8699C20.8776 19.383 21.6723 20.7502 22.4971 21.96C23.2195 23.0195 23.0382 23.8733 21.6912 23.9497C21.0875 23.9839 19.7816 23.9452 18.0334 23.2824ZM2.08333 11.4583C2.08333 6.28067 6.28067 2.08333 11.4583 2.08333C16.636 2.08333 20.8333 6.28067 20.8333 11.4583C20.8333 13.4899 20.1883 15.3678 19.0917 16.9023C18.6065 17.5815 18.856 18.854 19.0225 19.5845C19.1841 20.2935 19.5346 21.047 19.8808 21.6795C19.5494 21.5996 19.1782 21.4883 18.7721 21.3344C17.8374 20.9799 17.065 20.4817 16.5202 20.0635C16.211 19.8262 15.7953 19.7815 15.4427 19.9473C14.2348 20.5153 12.8851 20.8333 11.4583 20.8333C6.28067 20.8333 2.08333 16.636 2.08333 11.4583ZM7.32293 14.8359C7.16071 14.1871 7.67311 13.5419 8.3335 13.5415H14.5835C15.243 13.5419 15.7562 14.1846 15.5941 14.8333C15.0547 16.6543 13.3181 17.7083 11.4585 17.7083C9.67021 17.7083 7.78023 16.6652 7.32293 14.8359ZM16.1458 9.375C16.1458 10.2379 15.4462 10.9375 14.5833 10.9375C13.7204 10.9375 13.0208 10.2379 13.0208 9.375C13.0208 8.51205 13.7204 7.8125 14.5833 7.8125C15.4462 7.8125 16.1458 8.51205 16.1458 9.375ZM8.33333 10.9375C9.19628 10.9375 9.89583 10.2379 9.89583 9.375C9.89583 8.51205 9.19628 7.8125 8.33333 7.8125C7.47039 7.8125 6.77083 8.51205 6.77083 9.375C6.77083 10.2379 7.47039 10.9375 8.33333 10.9375Z" fill="#FFA500"/>
</svg>
