<svg width="15" height="15" viewBox="0 0 15 15" fill="none" xmlns="http://www.w3.org/2000/svg">
<path d="M7.25 14.125C3.45294 14.125 0.375 11.0471 0.375 7.25C0.375 3.45294 3.45294 0.375 7.25 0.375C11.0471 0.375 14.125 3.45294 14.125 7.25C14.125 11.0471 11.0471 14.125 7.25 14.125ZM7.25 12.75C10.2876 12.75 12.75 10.2876 12.75 7.25C12.75 4.21243 10.2876 1.75 7.25 1.75C4.21243 1.75 1.75 4.21243 1.75 7.25C1.75 10.2876 4.21243 12.75 7.25 12.75ZM7.25 6.27788L9.19425 4.33294L10.1671 5.30575L8.22213 7.25L10.1671 9.19425L9.19425 10.1671L7.25 8.22213L5.30575 10.1671L4.33294 9.19425L6.27788 7.25L4.33294 5.30575L5.30575 4.33294L7.25 6.27788Z" fill="#A66CFF"/>
</svg>
