<svg width="29" height="35" viewBox="0 0 29 35" fill="none" xmlns="http://www.w3.org/2000/svg">
<path d="M14.8481 17.1497L18.4345 13.5632C18.8395 13.1582 18.9037 12.5599 18.5774 12.2336L18.2215 11.8777C17.931 11.5872 17.4255 11.6065 17.0323 11.8994L18.7249 10.2171C19.1299 9.81213 19.1941 9.21382 18.8678 8.88751L18.5117 8.5316C18.1854 8.20526 17.5871 8.26951 17.1823 8.67448L17.8432 8.01353C18.2482 7.60859 18.3124 7.01026 17.9861 6.68395L17.6302 6.32804C17.3039 6.00172 16.7056 6.06597 16.3006 6.47091L15.3452 7.42637C15.7502 7.0214 15.8144 6.42309 15.4881 6.09678L15.1322 5.74087C14.8059 5.41453 14.2076 5.4788 13.8026 5.88375L9.06107 10.4695L8.68186 10.8487C8.68186 10.8487 9.15412 9.70173 9.15412 8.8569C9.15412 8.01232 8.58518 7.32115 7.89002 7.32115C7.19485 7.32115 6.62591 8.01228 6.62591 8.8569C6.62591 9.70146 6.15365 10.8487 6.15365 10.8487C6.15365 10.8487 4.41282 14.5492 6.4745 16.6112C8.53636 18.6731 9.93205 20.0688 12.5613 19.0335C13.5461 18.6458 14.8481 17.1497 14.8481 17.1497Z" stroke="#463196"/>
<path d="M22.3045 12.9861H20.9544C21.5266 12.9857 21.9944 12.6083 21.9944 12.147V11.6436C21.9944 11.1821 21.5258 10.8044 20.9532 10.8044L18.7856 10.7682L18.1427 11.4072C18.3257 11.4485 18.4941 11.5361 18.6299 11.6721L18.9858 12.028C19.2039 12.2462 19.308 12.5637 19.272 12.8998C19.2379 13.2174 19.0855 13.5259 18.8429 13.7685L15.2812 17.3303H15.2968L15.279 17.3481C15.1667 17.4762 13.9798 18.813 12.9868 19.2612L13.2128 19.28L18.2723 19.5097C18.8449 19.5097 19.3135 19.1321 19.3135 18.6706V18.1671C19.3135 17.7532 18.9365 17.4071 18.4456 17.34L21.3697 17.3491C21.9422 17.3491 22.4108 16.9716 22.4108 16.5099V16.0065C22.4108 15.545 21.9422 15.1674 21.3697 15.1674H22.3047C22.8772 15.1674 23.3458 14.7898 23.3458 14.3283V13.8248C23.3454 13.3638 22.8771 12.9861 22.3045 12.9861Z" stroke="#463196"/>
<path d="M15.3873 3.21342C15.3941 3.21403 15.4012 3.21444 15.4081 3.21444C15.5192 3.21444 15.614 3.12992 15.6248 3.01702L15.7932 1.2385C15.8046 1.11871 15.7166 1.0123 15.5968 1.00095C15.477 0.989808 15.3706 1.07758 15.3592 1.19736L15.1908 2.97588C15.1794 3.09567 15.2673 3.20206 15.3873 3.21342Z" stroke="#463196"/>
<path d="M12.1068 3.6929C12.1435 3.77296 12.2225 3.82019 12.305 3.82019C12.3354 3.82019 12.3662 3.8139 12.3956 3.80032C12.5051 3.75025 12.5531 3.62094 12.503 3.51149L11.7596 1.88697C11.7095 1.77753 11.5802 1.72928 11.4708 1.77955C11.3613 1.82961 11.3133 1.95893 11.3633 2.06837L12.1068 3.6929Z" stroke="#463196"/>
<path d="M8.33856 4.82034L9.79457 5.85543C9.83288 5.88258 9.87707 5.89575 9.92064 5.89575C9.98874 5.89575 10.056 5.86393 10.0984 5.80415C10.1681 5.70607 10.1452 5.57006 10.0471 5.50033L8.59109 4.46502C8.49298 4.39531 8.35699 4.41821 8.28726 4.51631C8.21731 4.6146 8.24046 4.75059 8.33856 4.82034Z" stroke="#463196"/>
<path d="M20.4738 6.62586C20.5042 6.62586 20.535 6.61959 20.5644 6.60599L22.1889 5.86255C22.2983 5.81249 22.3466 5.68319 22.2963 5.57374C22.2463 5.4643 22.117 5.41605 22.0075 5.46631L20.383 6.20975C20.2735 6.2598 20.2255 6.3891 20.2756 6.49857C20.312 6.57863 20.3911 6.62586 20.4738 6.62586Z" stroke="#463196"/>
<path d="M18.2713 4.20123C18.3096 4.22838 18.3538 4.24156 18.3973 4.24156C18.4654 4.24156 18.5328 4.20973 18.5751 4.14995L19.6104 2.6939C19.6801 2.5958 19.6572 2.4598 19.5591 2.39008C19.461 2.32035 19.325 2.34326 19.2553 2.44135L18.22 3.8974C18.1503 3.9953 18.1732 4.1315 18.2713 4.20123Z" stroke="#463196"/>
</svg>
