<svg width="25" height="20" viewBox="0 0 25 20" fill="none" xmlns="http://www.w3.org/2000/svg">
<g clip-path="url(#clip0_4_16)">
<path d="M20.6543 0.10324C20.5801 0.156337 20.0996 0.49262 19.5898 0.855452C19.0801 1.21533 18.6152 1.54572 18.5566 1.58702C18.4727 1.64601 18.459 1.66666 18.4824 1.68731C18.5 1.70206 18.6836 1.79941 18.8906 1.9056C19.0977 2.01179 19.2695 2.10324 19.2715 2.10619C19.2813 2.11799 18.8477 2.8407 18.4805 3.42772C17.4141 5.12979 16.1484 6.77286 14.8398 8.15044C11.4746 11.6903 7.50391 13.9882 2.54297 15.2655C2.48242 15.2832 2.48047 15.2891 2.49023 15.3776C2.49609 15.4307 2.52148 15.6549 2.54687 15.8791C2.57227 16.1003 2.59766 16.292 2.60547 16.3038C2.62109 16.3274 3.09766 16.2065 3.83594 15.9852C9.34766 14.3333 13.7656 11.2448 17.3438 6.53687C18.0176 5.65191 18.9336 4.28613 19.5098 3.31268C19.6738 3.03244 19.8164 2.80826 19.8242 2.8171C19.832 2.823 19.9336 3.05604 20.0488 3.33333C20.1641 3.61062 20.2617 3.83185 20.2656 3.82595C20.2734 3.81416 20.7988 0.0176941 20.7949 0.0117944C20.793 0.00884454 20.7305 0.0501425 20.6543 0.10324Z" fill="#C8C1DF"/>
<path d="M21.959 3.26843L21.543 3.58407V10.8171V18.0531H21.1914H20.8398V12.7286V7.40413H20.2207H19.5996L19.1758 7.71976L18.75 8.0354V13.0442V18.0531H18.3984H18.0469V14.3805C18.0469 10.9027 18.0449 10.708 18.0137 10.708C17.9941 10.708 17.7129 10.708 17.3887 10.708L16.7988 10.705L16.3789 11.0236L15.957 11.3422V14.6962V18.0531H15.6055H15.2539V15.6224C15.2539 13.4336 15.25 13.1917 15.2227 13.174C15.2051 13.1652 14.9336 13.1563 14.6191 13.1563H14.0449L13.6094 13.4867L13.1738 13.8201L13.168 15.9381L13.1641 18.0531H12.8125H12.4609V16.5044V14.9558H11.8535H11.248L10.8184 15.2714L10.3906 15.5841V16.8201V18.0531H10.0293H9.66797V17.1681V16.2832H9.0625H8.45703L8.02734 16.6077L7.59766 16.9322V17.4926V18.0531H7.24609H6.89453V17.6844V17.3156H6.27539L5.6543 17.3127L5.23047 17.6313C4.91406 17.8673 4.80469 17.9617 4.80469 18C4.80469 18.0501 4.77734 18.0531 4.45313 18.0531C4.22266 18.0531 4.10156 18.0413 4.10156 18.0236C4.10156 17.9853 2.91016 18.0029 2.70508 18.0442C2.58008 18.0708 2.45703 18.1563 1.28906 19.0324L0.00976562 19.9941L11.5938 19.9971L23.1758 20L24.084 19.0324L24.9902 18.0678L24.3027 18.059L23.6133 18.0531V10.5015V2.94985L22.9941 2.9528H22.373L21.959 3.26843Z" fill="#C8C1DF"/>
</g>
<defs>
<clipPath id="clip0_4_16">
<rect width="25" height="20" fill="white"/>
</clipPath>
</defs>
</svg>
