<svg width="22" height="22" viewBox="0 0 22 22" fill="none" xmlns="http://www.w3.org/2000/svg">
<g clip-path="url(#clip0_39_17)">
<path d="M5.59951 3.62145C6.59954 3.62145 7.41023 2.81077 7.41023 1.81073C7.41023 0.810699 6.59954 1.14441e-05 5.59951 1.14441e-05C4.59948 1.14441e-05 3.78879 0.810699 3.78879 1.81073C3.78879 2.81077 4.59948 3.62145 5.59951 3.62145Z" fill="#463196"/>
<path d="M12.7163 8.27535C13.1262 8.02085 13.2522 7.48219 12.9977 7.07225C12.8151 6.77817 12.4862 6.6312 12.1636 6.66512L12.1916 6.19218C12.396 6.03514 12.5284 5.78897 12.5284 5.51124C12.5284 5.03684 12.1438 4.65226 11.6694 4.65226C11.195 4.65226 10.8104 5.03684 10.8104 5.51124C10.8104 5.78897 10.9428 6.03514 11.1472 6.19218L11.2043 7.15733L10.0251 7.88951L10.0169 6.25586C10.0112 5.12153 9.08371 4.19868 7.94938 4.19868H7.08982C6.92722 4.62037 6.13382 6.67804 5.96986 7.10322L6.23084 5.87133C6.24899 5.78587 6.23583 5.69668 6.19373 5.62012L5.83852 4.97408L6.15366 4.40086C6.17553 4.36108 6.17481 4.31269 6.15167 4.27359C6.12854 4.23449 6.08528 4.19858 6.03989 4.19858H5.17394C5.12855 4.19858 5.08775 4.23449 5.06462 4.27359C5.04149 4.31269 5.04076 4.36108 5.06264 4.40086L5.37845 4.97524L5.02257 5.62245C4.98124 5.69755 4.96779 5.78485 4.98443 5.86896L5.21406 7.10313C5.09109 6.78427 4.24233 4.49905 4.12643 4.19853H3.24964C2.11531 4.19853 1.18781 5.12138 1.1821 6.25572L1.14987 12.6744C1.14745 13.1569 1.53662 13.55 2.01915 13.5525C2.02065 13.5525 2.02215 13.5525 2.02365 13.5525C2.5041 13.5525 2.89482 13.1642 2.89724 12.6832L2.92947 6.26457C2.92996 6.16895 3.00768 6.09181 3.10325 6.0921C3.19883 6.09234 3.27611 6.16992 3.27611 6.26544L3.27655 20.9515C3.27655 21.5305 3.74591 21.9999 4.32498 21.9999C4.90405 21.9999 5.37337 21.5306 5.37337 20.9515V12.7978C5.37337 12.6728 5.4747 12.5714 5.5997 12.5714C5.7247 12.5714 5.82604 12.6728 5.82604 12.7978V20.9516C5.82604 21.5306 6.2954 22 6.87447 22C7.45349 22 7.92286 21.5306 7.92286 20.9516L7.90423 6.26109C7.90408 6.16024 7.98577 6.07836 8.08667 6.07821C8.18757 6.07807 8.2694 6.15975 8.26955 6.26065C8.26955 6.26196 8.26955 6.26327 8.26955 6.26462L8.28556 9.45982C8.289 10.1469 9.04509 10.5548 9.6201 10.1977L11.3217 9.14115L11.3407 9.46137C11.3486 9.59576 11.4599 9.70067 11.5945 9.70067H11.7442C11.8788 9.70067 11.9901 9.59576 11.998 9.46137L12.0435 8.69294L12.7163 8.27535Z" fill="#463196"/>
<path d="M20.5667 5.93226C20.1887 5.55426 19.5758 5.55426 19.1979 5.93226L12.491 12.6391C12.1131 13.0171 12.1131 13.6299 12.491 14.0079C12.8689 14.3858 13.4818 14.3859 13.8598 14.0079L14.7181 13.1495V21.4145C14.7181 21.7379 14.9802 22 15.3036 22H18.8752C19.1985 22 19.4607 21.7379 19.4607 21.4145V8.40703L20.5667 7.30101C20.9446 6.92301 20.9446 6.31021 20.5667 5.93226Z" fill="#463196"/>
</g>
<defs>
<clipPath id="clip0_39_17">
<rect width="22" height="22" fill="white"/>
</clipPath>
</defs>
</svg>
