<svg width="20" height="16" viewBox="0 0 20 16" fill="none" xmlns="http://www.w3.org/2000/svg">
<path d="M3.21484 8.63307V12.4632C3.21484 12.583 3.27682 12.6904 3.38011 12.7524L8.83401 15.8884C9.05299 16.0165 9.32982 15.8554 9.32982 15.5992V11.7236C9.32982 11.6038 9.26784 11.4964 9.16455 11.4344L3.71065 8.33972C3.48754 8.2199 3.21484 8.38103 3.21484 8.63307Z" fill="#9E9CA2"/>
<path d="M10.8174 15.8884L16.2754 12.7524C16.3787 12.6945 16.4407 12.583 16.4407 12.4631V8.59171C16.4407 8.33554 16.168 8.17853 15.9449 8.30249L10.491 11.4385C10.3877 11.4963 10.3257 11.6079 10.3257 11.7277V15.6033C10.3216 15.8553 10.5984 16.0164 10.8174 15.8884Z" fill="#9E9CA2"/>
<path d="M9.49938 0.154638L0.740089 5.26973C0.516975 5.39782 0.516975 5.71596 0.740089 5.84404L9.49938 10.7112C9.70184 10.8269 9.95387 10.8269 10.1563 10.7112L17.9281 6.26135C18.1471 6.13327 18.2174 6.2944 18.2174 6.55057V12.8887C18.2174 13.1696 18.3785 13.3018 18.6718 13.3018V13.3018C18.8536 13.3018 19.085 13.1696 19.085 12.8887V5.79033C19.085 5.67051 19.023 5.56309 18.9198 5.50111L10.1563 0.154638C9.95387 0.0389489 9.70184 0.0389489 9.49938 0.154638Z" fill="#9E9CA2"/>
</svg>
