<svg width="18" height="18" viewBox="0 0 18 18" fill="none" xmlns="http://www.w3.org/2000/svg">
<path d="M7.61588 15.3361V12.4513C7.61588 11.3458 8.47323 10.4764 9.74158 9.98005C8.92361 9.67584 8.05777 9.52059 7.18506 9.52165C5.55653 9.52165 4.05209 10.0533 2.83629 10.952C3.60179 13.1169 5.39305 14.76 7.61589 15.3361H7.61588ZM15.2674 12.1807C14.927 11.7214 13.7939 11.245 12.355 11.245C10.6265 11.245 9.33919 11.9317 9.33919 12.4513V15.5532C11.7721 15.5546 14.0254 14.2727 15.2674 12.1807V12.1807ZM7.22814 8.22917C8.29887 8.22917 9.16686 7.36117 9.16686 6.29045C9.16686 5.21972 8.29887 4.35173 7.22814 4.35173C6.15742 4.35173 5.28942 5.21972 5.28942 6.29045C5.28942 7.36117 6.15742 8.22917 7.22814 8.22917ZM12.355 9.09082C13.3067 9.09082 14.0783 8.31927 14.0783 7.36751C14.0783 6.41576 13.3067 5.64421 12.355 5.64421C11.4032 5.64421 10.6317 6.41576 10.6317 7.36751C10.6317 8.31927 11.4032 9.09082 12.355 9.09082ZM9.33919 17.2765C4.58028 17.2765 0.722656 13.4189 0.722656 8.65999C0.722656 3.90108 4.58028 0.043457 9.33919 0.043457C14.0981 0.043457 17.9557 3.90108 17.9557 8.65999C17.9557 13.4189 14.0981 17.2765 9.33919 17.2765Z" fill="#C8C1DF"/>
</svg>
