<svg id="Group_5" data-name="Group 5" xmlns="http://www.w3.org/2000/svg" width="28.442" height="28.442" viewBox="0 0 28.442 28.442">
  <path id="Path_9" data-name="Path 9" d="M0,0H28.442V28.442H0Z" fill="none"/>
  <path id="Path_10" data-name="Path 10" d="M10.947,13.258a2.666,2.666,0,1,1,2.666-2.666A2.666,2.666,0,0,1,10.947,13.258Zm.533,9.775V19.065a2.877,2.877,0,0,1,.479-1.586,7.671,7.671,0,0,0-5.965,1.679,9.495,9.495,0,0,0,5.486,3.875ZM4.907,17a10.092,10.092,0,0,1,9.5-1.337A9.988,9.988,0,0,1,18,15.036a8.739,8.739,0,0,1,4.984,1.37A9.481,9.481,0,1,0,4.907,17ZM22,18.693c-.466-.632-2.024-1.287-4-1.287-2.377,0-4.148.945-4.148,1.659v4.266A9.476,9.476,0,0,0,22,18.693ZM13.851,25.7A11.851,11.851,0,1,1,25.7,13.851,11.851,11.851,0,0,1,13.851,25.7ZM18,14.443a2.37,2.37,0,1,1,2.37-2.37A2.37,2.37,0,0,1,18,14.443Z" transform="translate(0.37 0.37)" fill="#bebebe"/>
</svg>
