<svg width="27" height="27" viewBox="0 0 27 27" fill="none" xmlns="http://www.w3.org/2000/svg">
<mask id="path-1-inside-1_13_52" fill="white">
<path d="M18.1806 15.902C17.5408 15.902 17.0001 15.6582 16.5584 15.1704C16.1167 14.6827 15.8958 14.0856 15.8958 13.3792C15.8958 12.6728 16.1167 12.0758 16.5584 11.588C17.0001 11.1003 17.5408 10.8564 18.1806 10.8564C18.8203 10.8564 19.361 11.1003 19.8027 11.588C20.2444 12.0758 20.4653 12.6728 20.4653 13.3792C20.4653 14.0856 20.2444 14.6827 19.8027 15.1704C19.361 15.6582 18.8203 15.902 18.1806 15.902ZM13.4167 21.8333V20.4646C13.4167 19.9994 13.5058 19.6013 13.684 19.2703C13.8623 18.9392 14.1134 18.6843 14.4375 18.5054C15.037 18.1654 15.6447 17.9149 16.2604 17.7539C16.8762 17.5929 17.5162 17.5123 18.1806 17.5123C18.8449 17.5123 19.4849 17.5884 20.1007 17.7405C20.7165 17.8925 21.3241 18.1475 21.9236 18.5054C22.2477 18.6664 22.4988 18.9169 22.6771 19.2568C22.8553 19.5968 22.9444 19.9994 22.9444 20.4646V21.8333H13.4167ZM11.2778 13.2182C10.2083 13.2182 9.33333 12.8425 8.65278 12.091C7.97222 11.3395 7.63194 10.3733 7.63194 9.19243C7.63194 8.01154 7.97222 7.04535 8.65278 6.29388C9.33333 5.5424 10.2083 5.16667 11.2778 5.16667C12.3472 5.16667 13.2222 5.5424 13.9028 6.29388C14.5833 7.04535 14.9236 8.01154 14.9236 9.19243C14.9236 10.3733 14.5833 11.3395 13.9028 12.091C13.2222 12.8425 12.3472 13.2182 11.2778 13.2182ZM3.5 21.8333V19.3105C3.5 18.7022 3.63773 18.143 3.91319 17.6331C4.18866 17.1232 4.59916 16.734 5.14468 16.4656C6.23573 15.9289 7.27951 15.5263 8.27604 15.2579C9.27257 14.9895 10.2711 14.8553 11.2716 14.8553C11.7942 14.8553 12.2581 14.8822 12.6632 14.9359C13.0683 14.9895 13.5058 15.07 13.9757 15.1774L13.3559 15.8618L12.7361 16.5462C12.5255 16.5104 12.2986 16.488 12.0556 16.4791C11.8125 16.4701 11.5533 16.4656 11.2778 16.4656C10.3602 16.4656 9.4624 16.5685 8.58438 16.7743C7.70637 16.98 6.75694 17.3603 5.73611 17.9149C5.50926 18.0401 5.32292 18.237 5.17708 18.5054C5.03125 18.7737 4.95833 19.0421 4.95833 19.3105V20.223H11.9583V21.8333H3.5ZM11.2778 11.6079C11.9097 11.6079 12.4323 11.3798 12.8455 10.9235C13.2587 10.4673 13.4653 9.89023 13.4653 9.19243C13.4653 8.49463 13.2587 7.9176 12.8455 7.46135C12.4323 7.00509 11.9097 6.77697 11.2778 6.77697C10.6458 6.77697 10.1233 7.00509 9.71007 7.46135C9.29687 7.9176 9.09028 8.49463 9.09028 9.19243C9.09028 9.89023 9.29687 10.4673 9.71007 10.9235C10.1233 11.3798 10.6458 11.6079 11.2778 11.6079Z"/>
</mask>
<path d="M18.1806 15.902C17.5408 15.902 17.0001 15.6582 16.5584 15.1704C16.1167 14.6827 15.8958 14.0856 15.8958 13.3792C15.8958 12.6728 16.1167 12.0758 16.5584 11.588C17.0001 11.1003 17.5408 10.8564 18.1806 10.8564C18.8203 10.8564 19.361 11.1003 19.8027 11.588C20.2444 12.0758 20.4653 12.6728 20.4653 13.3792C20.4653 14.0856 20.2444 14.6827 19.8027 15.1704C19.361 15.6582 18.8203 15.902 18.1806 15.902ZM13.4167 21.8333V20.4646C13.4167 19.9994 13.5058 19.6013 13.684 19.2703C13.8623 18.9392 14.1134 18.6843 14.4375 18.5054C15.037 18.1654 15.6447 17.9149 16.2604 17.7539C16.8762 17.5929 17.5162 17.5123 18.1806 17.5123C18.8449 17.5123 19.4849 17.5884 20.1007 17.7405C20.7165 17.8925 21.3241 18.1475 21.9236 18.5054C22.2477 18.6664 22.4988 18.9169 22.6771 19.2568C22.8553 19.5968 22.9444 19.9994 22.9444 20.4646V21.8333H13.4167ZM11.2778 13.2182C10.2083 13.2182 9.33333 12.8425 8.65278 12.091C7.97222 11.3395 7.63194 10.3733 7.63194 9.19243C7.63194 8.01154 7.97222 7.04535 8.65278 6.29388C9.33333 5.5424 10.2083 5.16667 11.2778 5.16667C12.3472 5.16667 13.2222 5.5424 13.9028 6.29388C14.5833 7.04535 14.9236 8.01154 14.9236 9.19243C14.9236 10.3733 14.5833 11.3395 13.9028 12.091C13.2222 12.8425 12.3472 13.2182 11.2778 13.2182ZM3.5 21.8333V19.3105C3.5 18.7022 3.63773 18.143 3.91319 17.6331C4.18866 17.1232 4.59916 16.734 5.14468 16.4656C6.23573 15.9289 7.27951 15.5263 8.27604 15.2579C9.27257 14.9895 10.2711 14.8553 11.2716 14.8553C11.7942 14.8553 12.2581 14.8822 12.6632 14.9359C13.0683 14.9895 13.5058 15.07 13.9757 15.1774L13.3559 15.8618L12.7361 16.5462C12.5255 16.5104 12.2986 16.488 12.0556 16.4791C11.8125 16.4701 11.5533 16.4656 11.2778 16.4656C10.3602 16.4656 9.4624 16.5685 8.58438 16.7743C7.70637 16.98 6.75694 17.3603 5.73611 17.9149C5.50926 18.0401 5.32292 18.237 5.17708 18.5054C5.03125 18.7737 4.95833 19.0421 4.95833 19.3105V20.223H11.9583V21.8333H3.5ZM11.2778 11.6079C11.9097 11.6079 12.4323 11.3798 12.8455 10.9235C13.2587 10.4673 13.4653 9.89023 13.4653 9.19243C13.4653 8.49463 13.2587 7.9176 12.8455 7.46135C12.4323 7.00509 11.9097 6.77697 11.2778 6.77697C10.6458 6.77697 10.1233 7.00509 9.71007 7.46135C9.29687 7.9176 9.09028 8.49463 9.09028 9.19243C9.09028 9.89023 9.29687 10.4673 9.71007 10.9235C10.1233 11.3798 10.6458 11.6079 11.2778 11.6079Z" fill="black"/>
<path d="M13.4167 21.8333H8.41667V26.8333H13.4167V21.8333ZM14.4375 18.5054L16.8539 22.8827L16.8789 22.8689L16.9037 22.8548L14.4375 18.5054ZM21.9236 18.5054L19.3609 22.7987L19.5263 22.8974L19.6988 22.9831L21.9236 18.5054ZM22.9444 21.8333V26.8333H27.9444V21.8333H22.9444ZM8.65278 6.29388L4.9467 2.93754L4.94669 2.93755L8.65278 6.29388ZM13.9028 6.29388L17.6089 2.93755L17.6089 2.93754L13.9028 6.29388ZM3.5 21.8333H-1.5V26.8333H3.5V21.8333ZM5.14468 16.4656L7.35189 20.9521L7.35191 20.9521L5.14468 16.4656ZM13.9757 15.1774L17.6818 18.5337L23.4135 12.2047L15.0893 10.303L13.9757 15.1774ZM12.7361 16.5462L11.8982 21.4755L14.6015 21.935L16.4422 19.9025L12.7361 16.5462ZM5.73611 17.9149L3.34907 13.5215L3.33437 13.5295L3.31972 13.5376L5.73611 17.9149ZM4.95833 20.223H-0.0416667V25.223H4.95833V20.223ZM11.9583 20.223H16.9583V15.223H11.9583V20.223ZM11.9583 21.8333V26.8333H16.9583V21.8333H11.9583ZM18.1806 10.902C18.513 10.902 18.9255 10.9694 19.3509 11.1613C19.7728 11.3516 20.0744 11.6042 20.2645 11.8141L12.8523 18.5267C14.2111 20.0271 16.0835 20.902 18.1806 20.902V10.902ZM20.2645 11.8141C20.4572 12.0269 20.6326 12.3021 20.7509 12.6222C20.8672 12.9365 20.8958 13.205 20.8958 13.3792H10.8958C10.8958 15.2268 11.5135 17.0484 12.8523 18.5267L20.2645 11.8141ZM20.8958 13.3792C20.8958 13.5534 20.8672 13.822 20.7509 14.1363C20.6326 14.4563 20.4572 14.7316 20.2645 14.9444L12.8523 8.2317C11.5135 9.71007 10.8958 11.5317 10.8958 13.3792H20.8958ZM20.2645 14.9444C20.0744 15.1542 19.7728 15.4069 19.3509 15.5972C18.9255 15.789 18.513 15.8564 18.1806 15.8564V5.85641C16.0835 5.85641 14.2111 6.73135 12.8523 8.2317L20.2645 14.9444ZM18.1806 15.8564C17.8481 15.8564 17.4356 15.789 17.0102 15.5972C16.5883 15.4069 16.2867 15.1542 16.0966 14.9444L23.5088 8.2317C22.15 6.73136 20.2776 5.85641 18.1806 5.85641V15.8564ZM16.0966 14.9444C15.9039 14.7316 15.7286 14.4563 15.6102 14.1363C15.4939 13.822 15.4653 13.5534 15.4653 13.3792H25.4653C25.4653 11.5316 24.8476 9.71007 23.5088 8.2317L16.0966 14.9444ZM15.4653 13.3792C15.4653 13.205 15.4939 12.9365 15.6102 12.6222C15.7286 12.3021 15.9039 12.0269 16.0966 11.8141L23.5088 18.5267C24.8476 17.0484 25.4653 15.2268 25.4653 13.3792H15.4653ZM16.0966 11.8141C16.2867 11.6042 16.5883 11.3516 17.0102 11.1613C17.4356 10.9694 17.8481 10.902 18.1806 10.902V20.902C20.2776 20.902 22.15 20.0271 23.5088 18.5267L16.0966 11.8141ZM18.4167 21.8333V20.4646H8.41667V21.8333H18.4167ZM18.4167 20.4646C18.4167 20.6331 18.383 21.09 18.0863 21.6409L9.28174 16.8996C8.62856 18.1126 8.41667 19.3656 8.41667 20.4646H18.4167ZM18.0863 21.6409C17.8168 22.1413 17.3849 22.5896 16.8539 22.8827L12.0211 14.128C10.8419 14.779 9.90775 15.7371 9.28174 16.8996L18.0863 21.6409ZM16.9037 22.8548C17.1568 22.7113 17.3628 22.6337 17.5255 22.5912L14.9954 12.9166C13.9265 13.1961 12.9172 13.6196 11.9713 14.1559L16.9037 22.8548ZM17.5255 22.5912C17.7105 22.5428 17.9244 22.5123 18.1806 22.5123V12.5123C17.108 12.5123 16.0419 12.6429 14.9954 12.9166L17.5255 22.5912ZM18.1806 22.5123C18.4599 22.5123 18.6964 22.5439 18.9019 22.5946L21.2995 12.8863C20.2735 12.6329 19.2299 12.5123 18.1806 12.5123V22.5123ZM18.9019 22.5946C18.9921 22.6169 19.1434 22.6688 19.3609 22.7987L24.4863 14.2121C23.5048 13.6262 22.4408 13.1682 21.2995 12.8863L18.9019 22.5946ZM19.6988 22.9831C19.0203 22.646 18.528 22.1111 18.249 21.5789L27.1052 16.9348C26.4696 15.7227 25.4751 14.6868 24.1485 14.0276L19.6988 22.9831ZM18.249 21.5789C17.9799 21.0657 17.9444 20.6382 17.9444 20.4646H27.9444C27.9444 19.3605 27.7308 18.1279 27.1052 16.9348L18.249 21.5789ZM17.9444 20.4646V21.8333H27.9444V20.4646H17.9444ZM22.9444 16.8333H13.4167V26.8333H22.9444V16.8333ZM11.2778 8.21819C11.3379 8.21819 11.5341 8.23121 11.7923 8.34207C12.0569 8.45569 12.2488 8.6131 12.3589 8.73465L4.94669 15.4473C6.63227 17.3085 8.88377 18.2182 11.2778 18.2182V8.21819ZM12.3589 8.73465C12.4693 8.85655 12.555 9.00495 12.6032 9.14179C12.6473 9.26696 12.6319 9.30213 12.6319 9.19243H2.63194C2.63194 11.3963 3.29808 13.6269 4.94669 15.4473L12.3589 8.73465ZM12.6319 9.19243C12.6319 9.08273 12.6473 9.1179 12.6032 9.24306C12.555 9.3799 12.4693 9.5283 12.3589 9.6502L4.94669 2.93755C3.29807 4.75797 2.63194 6.98852 2.63194 9.19243H12.6319ZM12.3589 9.65021C12.2488 9.77176 12.0569 9.92918 11.7923 10.0428C11.5341 10.1537 11.3379 10.1667 11.2778 10.1667V0.166666C8.88378 0.166666 6.63228 1.07632 4.9467 2.93754L12.3589 9.65021ZM11.2778 10.1667C11.2176 10.1667 11.0214 10.1537 10.7632 10.0428C10.4987 9.92918 10.3068 9.77176 10.1967 9.65021L17.6089 2.93754C15.9233 1.07632 13.6718 0.166666 11.2778 0.166666V10.1667ZM10.1967 9.6502C10.0863 9.5283 10.0005 9.3799 9.95234 9.24306C9.90826 9.1179 9.92361 9.08273 9.92361 9.19243H19.9236C19.9236 6.98852 19.2575 4.75797 17.6089 2.93755L10.1967 9.6502ZM9.92361 9.19243C9.92361 9.30213 9.90826 9.26696 9.95234 9.14179C10.0005 9.00495 10.0863 8.85655 10.1967 8.73465L17.6089 15.4473C19.2575 13.6269 19.9236 11.3963 19.9236 9.19243H9.92361ZM10.1967 8.73465C10.3068 8.6131 10.4987 8.45569 10.7632 8.34207C11.0214 8.23121 11.2176 8.21819 11.2778 8.21819V18.2182C13.6718 18.2182 15.9233 17.3085 17.6089 15.4473L10.1967 8.73465ZM8.5 21.8333V19.3105H-1.5V21.8333H8.5ZM8.5 19.3105C8.5 19.3867 8.49098 19.4976 8.45818 19.6308C8.42509 19.7651 8.3746 19.8943 8.31235 20.0095L-0.485964 15.2567C-1.17556 16.5332 -1.5 17.9151 -1.5 19.3105H8.5ZM8.31235 20.0095C8.20489 20.2085 8.05581 20.409 7.86763 20.5874C7.68116 20.7642 7.49714 20.8806 7.35189 20.9521L2.93748 11.9792C1.50838 12.6823 0.308323 13.7863 -0.485964 15.2567L8.31235 20.0095ZM7.35191 20.9521C8.20224 20.5337 8.94186 20.2568 9.57631 20.0859L6.97577 10.4299C5.61717 10.7958 4.26922 11.324 2.93745 11.9792L7.35191 20.9521ZM9.57631 20.0859C10.1623 19.9281 10.7239 19.8553 11.2716 19.8553V9.85534C9.81829 9.85534 8.38285 10.051 6.97577 10.4299L9.57631 20.0859ZM11.2716 19.8553C11.6319 19.8553 11.8693 19.8744 12.0064 19.8925L13.32 9.97918C12.6469 9.88999 11.9566 9.85534 11.2716 9.85534V19.8553ZM12.0064 19.8925C12.2337 19.9226 12.5172 19.973 12.8621 20.0518L15.0893 10.303C14.4944 10.1671 13.9028 10.0564 13.32 9.97918L12.0064 19.8925ZM10.2696 11.8211L9.64981 12.5055L17.062 19.2181L17.6818 18.5337L10.2696 11.8211ZM9.64981 12.5055L9.03002 13.1898L16.4422 19.9025L17.062 19.2181L9.64981 12.5055ZM13.574 11.6169C13.1193 11.5396 12.6717 11.4984 12.2398 11.4825L11.8713 21.4757C11.8975 21.4766 11.9127 21.478 11.9176 21.4784C11.9226 21.4789 11.9157 21.4784 11.8982 21.4755L13.574 11.6169ZM12.2398 11.4825C11.9277 11.4709 11.6065 11.4656 11.2778 11.4656V21.4656C11.5001 21.4656 11.6973 21.4693 11.8713 21.4757L12.2398 11.4825ZM11.2778 11.4656C9.9828 11.4656 8.702 11.6113 7.44364 11.9062L9.72512 21.6424C10.2228 21.5258 10.7376 21.4656 11.2778 21.4656V11.4656ZM7.44364 11.9062C6.02669 12.2382 4.65561 12.8116 3.34907 13.5215L8.12315 22.3083C8.85828 21.9089 9.38604 21.7219 9.72512 21.6424L7.44364 11.9062ZM3.31972 13.5376C2.11751 14.2012 1.3023 15.1639 0.78377 16.1181L9.5704 20.8926C9.34354 21.3101 8.90101 21.8791 8.1525 22.2923L3.31972 13.5376ZM0.78377 16.1181C0.295446 17.0168 -0.0416667 18.099 -0.0416667 19.3105H9.95833C9.95833 19.9853 9.76705 20.5307 9.5704 20.8926L0.78377 16.1181ZM-0.0416667 19.3105V20.223H9.95833V19.3105H-0.0416667ZM4.95833 25.223H11.9583V15.223H4.95833V25.223ZM6.95833 20.223V21.8333H16.9583V20.223H6.95833ZM11.9583 16.8333H3.5V26.8333H11.9583V16.8333ZM11.2778 16.6079C13.279 16.6079 15.1622 15.814 16.5516 14.2798L9.1394 7.56718C9.36979 7.31278 9.70519 7.04563 10.1432 6.85441C10.5781 6.66456 10.9802 6.60789 11.2778 6.60789V16.6079ZM16.5516 14.2798C17.9096 12.7802 18.4653 10.9529 18.4653 9.19243H8.46528C8.46528 9.04544 8.4878 8.78476 8.60296 8.46313C8.72163 8.13168 8.90787 7.82283 9.1394 7.56718L16.5516 14.2798ZM18.4653 9.19243C18.4653 7.43194 17.9096 5.60462 16.5516 4.10502L9.1394 10.8177C8.90787 10.562 8.72163 10.2532 8.60296 9.92172C8.4878 9.60009 8.46528 9.33941 8.46528 9.19243H18.4653ZM16.5516 4.10502C15.1622 2.57084 13.279 1.77697 11.2778 1.77697V11.777C10.9802 11.777 10.5781 11.7203 10.1432 11.5304C9.70519 11.3392 9.36979 11.0721 9.1394 10.8177L16.5516 4.10502ZM11.2778 1.77697C9.27659 1.77697 7.39338 2.57084 6.00398 4.10502L13.4162 10.8177C13.1858 11.0721 12.8504 11.3392 12.4123 11.5304C11.9775 11.7203 11.5754 11.777 11.2778 11.777V1.77697ZM6.00398 4.10502C4.64591 5.60462 4.09028 7.43194 4.09028 9.19243H14.0903C14.0903 9.33941 14.0678 9.60009 13.9526 9.92172C13.8339 10.2532 13.6477 10.562 13.4162 10.8177L6.00398 4.10502ZM4.09028 9.19243C4.09028 10.9529 4.64591 12.7802 6.00398 14.2798L13.4162 7.56718C13.6477 7.82283 13.8339 8.13168 13.9526 8.46313C14.0678 8.78476 14.0903 9.04544 14.0903 9.19243H4.09028ZM6.00398 14.2798C7.39338 15.814 9.27659 16.6079 11.2778 16.6079V6.60789C11.5754 6.60789 11.9775 6.66456 12.4123 6.85441C12.8504 7.04563 13.1858 7.31278 13.4162 7.56718L6.00398 14.2798Z" fill="#463196" mask="url(#path-1-inside-1_13_52)"/>
<path d="M26 13.5C26 6.59644 20.4036 1 13.5 1C6.59644 1 1 6.59644 1 13.5C1 20.4036 6.59644 26 13.5 26C20.4036 26 26 20.4036 26 13.5Z" stroke="#463196" stroke-width="2"/>
</svg>
