<svg width="20" height="24" viewBox="0 0 20 24" fill="none" xmlns="http://www.w3.org/2000/svg">
<path d="M19.1178 19.0187L14.1731 23.2947C13.6471 23.7495 12.9587 24 12.2347 24H2.82051C1.26528 24 0 22.8435 0 21.4219L0 2.57812C0 1.15655 1.26528 0 2.82051 0L17.1795 0C18.7347 0 20 1.15655 20 2.57813L20 17.1458C20 17.8513 19.6785 18.5339 19.1178 19.0187ZM17.6236 18.375H13.7949C13.6535 18.375 13.5385 18.4801 13.5385 18.6094V21.9077L17.6236 18.375ZM17.1795 1.40625L2.82051 1.40625C2.11359 1.40625 1.53846 1.93195 1.53846 2.57812L1.53846 21.4219C1.53846 22.068 2.11359 22.5938 2.82051 22.5938H12V18.6094C12 17.7047 12.8052 16.9688 13.7949 16.9688L18.4615 16.9688L18.4615 2.57813C18.4615 1.93195 17.8864 1.40625 17.1795 1.40625Z" fill="#463196"/>
<path d="M3.76923 7.79605L15.0513 7.79605C15.4761 7.79605 15.8205 7.39397 15.8205 6.89802C15.8205 6.40207 15.4761 6 15.0513 6L3.76923 6C3.34441 6 3 6.40207 3 6.89802C3 7.39397 3.34441 7.79605 3.76923 7.79605Z" fill="#463196"/>
<path d="M3.76923 12.5855L15.0513 12.5855C15.4761 12.5855 15.8205 12.1834 15.8205 11.6875C15.8205 11.1915 15.4761 10.7895 15.0513 10.7895L3.76923 10.7895C3.34441 10.7895 3 11.1915 3 11.6875C3 12.1834 3.34441 12.5855 3.76923 12.5855Z" fill="#463196"/>
<path d="M3.76924 17.375H7.49846C7.92328 17.375 8.26769 16.9729 8.26769 16.4769C8.26769 15.981 7.92328 15.5789 7.49846 15.5789H3.76924C3.34442 15.5789 3.00001 15.981 3.00001 16.4769C3.00001 16.9729 3.34442 17.375 3.76924 17.375Z" fill="#463196"/>
</svg>
