<svg width="16" height="15" viewBox="0 0 16 15" fill="none" xmlns="http://www.w3.org/2000/svg">
<path d="M4.72727 14H0.291193V0.909091H4.81676C6.11648 0.909091 7.23296 1.17116 8.16619 1.69531C9.10369 2.2152 9.82386 2.96307 10.3267 3.93892C10.8295 4.91477 11.081 6.08239 11.081 7.44176C11.081 8.8054 10.8274 9.97727 10.3203 10.9574C9.81747 11.9375 9.09091 12.6896 8.14062 13.2138C7.1946 13.7379 6.05682 14 4.72727 14ZM2.66264 11.9482H4.61222C5.52415 11.9482 6.2848 11.782 6.89418 11.4496C7.50355 11.1129 7.96165 10.6122 8.26847 9.94744C8.57528 9.27841 8.72869 8.44318 8.72869 7.44176C8.72869 6.44034 8.57528 5.60937 8.26847 4.94886C7.96165 4.28409 7.50781 3.78764 6.90696 3.45952C6.31037 3.12713 5.56889 2.96094 4.68253 2.96094H2.66264V11.9482ZM13.8311 14.1406C13.4434 14.1406 13.111 14.0043 12.834 13.7315C12.557 13.4588 12.4206 13.1264 12.4249 12.7344C12.4206 12.3509 12.557 12.0227 12.834 11.75C13.111 11.4773 13.4434 11.3409 13.8311 11.3409C14.2061 11.3409 14.5321 11.4773 14.8091 11.75C15.0904 12.0227 15.2331 12.3509 15.2374 12.7344C15.2331 12.9943 15.165 13.2308 15.0328 13.4439C14.905 13.657 14.7346 13.8274 14.5215 13.9553C14.3127 14.0788 14.0826 14.1406 13.8311 14.1406Z" fill="black"/>
</svg>
