<svg width="123" height="92" viewBox="0 0 123 92" fill="none" xmlns="http://www.w3.org/2000/svg">
<g clip-path="url(#clip0_48_9)">
<path fill-rule="evenodd" clip-rule="evenodd" d="M87.29 16.88C89.5348 16.88 91.7292 17.5457 93.5957 18.7928C95.4622 20.04 96.917 21.8126 97.776 23.8865C98.6351 25.9605 98.8599 28.2426 98.4219 30.4443C97.984 32.646 96.903 34.6683 95.3157 36.2557C93.7283 37.843 91.706 38.924 89.5043 39.3619C87.3026 39.7999 85.0205 39.5751 82.9465 38.716C80.8726 37.857 79.1 36.4022 77.8528 34.5357C76.6057 32.6692 75.94 30.4748 75.94 28.23C75.94 26.7395 76.2336 25.2636 76.804 23.8865C77.3744 22.5095 78.2104 21.2583 79.2643 20.2043C80.3183 19.1504 81.5695 18.3144 82.9465 17.744C84.3236 17.1736 85.7995 16.88 87.29 16.88ZM114.62 91.27H8.26C6.07027 91.2606 3.97366 90.3831 2.43 88.83C1.66144 88.0658 1.0512 87.1575 0.634222 86.1571C0.217243 85.1567 0.00172086 84.0838 0 83L0 8.26C0.000372356 6.06945 0.870864 3.96876 2.42 2.42C3.96876 0.870864 6.06945 0.000372356 8.26 0L114.62 0C116.809 0.00567323 118.905 0.879644 120.45 2.43C121.999 3.97876 122.87 6.07945 122.87 8.27V83C122.87 84.0831 122.656 85.1556 122.24 86.1559C121.825 87.1563 121.217 88.065 120.45 88.83C118.906 90.3831 116.81 91.2606 114.62 91.27ZM107.27 81.84L87.6 50.46C87.1929 49.8134 86.6285 49.2806 85.9596 48.9113C85.2907 48.542 84.5391 48.3483 83.775 48.3483C83.0109 48.3483 82.2593 48.542 81.5904 48.9113C80.9215 49.2806 80.3571 49.8134 79.95 50.46L70.66 65.39L80.77 81.84H76.62L49.05 37.84C46.51 34.45 42.44 34.71 40.17 37.84L13.17 81.84H9.42V9.42H113.42V81.84H107.27Z" fill="#C8C1DF"/>
</g>
<defs>
<clipPath id="clip0_48_9">
<rect width="122.88" height="91.27" fill="white"/>
</clipPath>
</defs>
</svg>
