<svg width="123" height="123" viewBox="0 0 123 123" fill="none" xmlns="http://www.w3.org/2000/svg">
<g clip-path="url(#clip0_45_2)">
<path d="M61.44 0C69.76 0 77.69 1.66 84.94 4.66L85.05 4.71C92.52 7.82 99.25 12.37 104.88 18.01C110.54 23.66 115.1 30.43 118.22 37.96C121.23 45.2 122.88 53.14 122.88 61.45C122.88 69.77 121.22 77.7 118.22 84.95L118.17 85.06C115.05 92.53 110.51 99.26 104.87 104.89C99.22 110.55 92.45 115.11 84.92 118.23C77.68 121.24 69.74 122.89 61.43 122.89C53.12 122.89 45.18 121.23 37.93 118.23L37.82 118.18C30.35 115.07 23.62 110.52 17.99 104.89L18 104.87C12.34 99.21 7.78 92.45 4.66 84.94C1.66 77.69 0 69.76 0 61.44C0 53.12 1.66 45.19 4.66 37.94L4.71 37.83C7.82 30.36 12.37 23.63 18 18H18.01C23.67 12.34 30.43 7.78 37.95 4.66C45.19 1.66 53.12 0 61.44 0ZM16.99 94.47L17.23 94.33C23.13 91.04 38.49 89.95 44.87 85.5C45.34 84.8 45.84 83.78 46.33 82.67C47.06 81 47.73 79.17 48.15 77.93C46.37 75.83 44.84 73.46 43.38 71.13L38.55 63.44C36.79 60.8 35.87 58.4 35.81 56.42C35.78 55.49 35.94 54.65 36.29 53.9C36.65 53.12 37.2 52.47 37.95 51.97C38.3 51.73 38.69 51.53 39.12 51.38C38.8 47.21 38.69 41.96 38.89 37.56C38.99 36.52 39.2 35.47 39.48 34.43C40.72 30.02 43.81 26.47 47.64 24.03C49.75 22.68 52.07 21.67 54.48 20.99C56.02 20.55 53.17 15.65 54.76 15.48C62.43 14.69 74.84 21.7 80.2 27.49C82.88 30.39 84.57 34.24 84.93 39.33L84.63 51.87C85.97 52.28 86.83 53.13 87.17 54.5C87.56 56.03 87.14 58.17 85.84 61.1C85.82 61.15 85.79 61.21 85.76 61.26L80.25 70.33C78.23 73.66 76.17 77.01 73.5 79.64C73.75 80 74 80.35 74.24 80.7C75.33 82.3 76.43 83.9 77.84 85.33C77.89 85.38 77.93 85.43 77.96 85.48C84.3 89.96 99.73 91.05 105.65 94.35L105.89 94.49C112.76 85.27 116.82 73.84 116.82 61.46C116.82 46.17 110.62 32.32 100.6 22.31C90.6 12.28 76.75 6.08 61.46 6.08C46.17 6.08 32.32 12.28 22.31 22.3C12.27 32.3 6.07 46.15 6.07 61.44C6.07 73.82 10.13 85.25 16.99 94.47Z" fill="#463196"/>
</g>
<defs>
<clipPath id="clip0_45_2">
<rect width="122.88" height="122.88" fill="white"/>
</clipPath>
</defs>
</svg>
