<svg width="24" height="24" viewBox="0 0 24 24" fill="none" xmlns="http://www.w3.org/2000/svg">
<path d="M18.0237 20.7895H5.9358C5.63445 20.7895 5.34544 20.9092 5.13235 21.1223C4.91926 21.3354 4.79955 21.6244 4.79955 21.9258V23.0629C4.79954 23.1078 4.80837 23.1523 4.82556 23.1938C4.84274 23.2353 4.86793 23.273 4.89969 23.3048C4.93146 23.3366 4.96917 23.3618 5.01067 23.379C5.05218 23.3962 5.09666 23.405 5.14159 23.405H18.8178C18.9086 23.405 18.9956 23.369 19.0598 23.3048C19.1239 23.2406 19.16 23.1536 19.16 23.0629V21.9259C19.16 21.7767 19.1306 21.6289 19.0735 21.491C19.0164 21.3532 18.9327 21.2279 18.8272 21.1224C18.7217 21.0168 18.5964 20.9331 18.4586 20.876C18.3207 20.8189 18.1729 20.7895 18.0237 20.7895Z" fill="#463196"/>
<path d="M20.8853 2.31847H18.99V1.70126C18.99 1.5073 18.913 1.32128 18.7758 1.18411C18.6387 1.04694 18.4527 0.969847 18.2588 0.969788H5.8287C5.73264 0.969783 5.63752 0.988699 5.54877 1.02546C5.46002 1.06221 5.37937 1.11609 5.31145 1.18402C5.24352 1.25194 5.18964 1.33258 5.15287 1.42133C5.11611 1.51008 5.09719 1.6052 5.09719 1.70126V2.31847H3.1149C2.66635 2.31901 2.23632 2.49743 1.91915 2.81461C1.60198 3.13178 1.42355 3.56181 1.42302 4.01036V5.10641C1.41193 5.98465 1.63118 6.85047 2.05891 7.61759C2.48664 8.38471 3.10792 9.02636 3.86085 9.47861C4.51534 9.85615 5.24751 10.079 6.00135 10.1301C6.01748 10.1312 6.0336 10.1317 6.04973 10.1317C6.07637 10.1309 6.10293 10.1284 6.12926 10.1242C6.85474 11.3032 7.91475 12.2396 9.17427 12.8139C9.63496 13.0324 10.0233 13.3784 10.2933 13.8109C10.5633 14.2434 10.7035 14.7443 10.6974 15.2541V16.5101C10.6974 16.7352 10.608 16.951 10.4489 17.1101C10.2898 17.2693 10.074 17.3587 9.84897 17.3587H8.09483C7.82181 17.3588 7.55997 17.4672 7.36692 17.6603C7.17387 17.8533 7.06542 18.1152 7.06542 18.3882V19.7955H17.0219V18.388C17.0219 18.115 16.9134 17.8532 16.7203 17.6602C16.5273 17.4672 16.2654 17.3587 15.9924 17.3587H14.2383C14.0132 17.3587 13.7974 17.2693 13.6382 17.1102C13.4791 16.9511 13.3897 16.7352 13.3897 16.5102V15.2539C13.3836 14.7441 13.5238 14.2432 13.7938 13.8107C14.0638 13.3782 14.4522 13.0322 14.9129 12.8138C16.1698 12.2407 17.2281 11.3072 17.9535 10.1317C17.9685 10.1317 17.9837 10.1311 17.9988 10.1301C18.7525 10.0791 19.4846 9.8562 20.1389 9.47861C20.8919 9.0264 21.5133 8.38477 21.9411 7.61765C22.3689 6.85053 22.5882 5.98469 22.5772 5.10641V4.01036C22.5766 3.56181 22.3982 3.13178 22.081 2.81461C21.7639 2.49743 21.3338 2.31901 20.8853 2.31847ZM4.51823 8.34244C3.96434 8.00572 3.50831 7.5298 3.19554 6.96204C2.88277 6.39429 2.72416 5.75452 2.73552 5.10641V4.01036C2.73562 3.90978 2.77563 3.81334 2.84676 3.74222C2.91788 3.67109 3.01432 3.63108 3.1149 3.63097H5.09719V6.48848C5.09776 7.24658 5.22281 7.99944 5.46735 8.71702C5.13468 8.63822 4.81505 8.51207 4.51823 8.34244ZM14.6704 6.8175L13.8717 7.39777C13.7801 7.4643 13.712 7.55811 13.677 7.66576C13.642 7.7734 13.642 7.88935 13.677 7.99699L13.982 8.93576C14.017 9.04341 14.017 9.15937 13.982 9.26702C13.947 9.37467 13.8789 9.46849 13.7873 9.53502C13.6957 9.60156 13.5855 9.6374 13.4723 9.6374C13.3591 9.63741 13.2488 9.60158 13.1572 9.53505L12.3585 8.95485C12.2669 8.88834 12.1566 8.85252 12.0435 8.85252C11.9303 8.85252 11.82 8.88834 11.7285 8.95485L10.9297 9.53505C10.8381 9.60158 10.7279 9.63741 10.6147 9.6374C10.5015 9.6374 10.3912 9.60156 10.2996 9.53502C10.2081 9.46849 10.1399 9.37467 10.1049 9.26702C10.07 9.15937 10.07 9.04341 10.1049 8.93576L10.41 7.99699C10.4449 7.88934 10.4449 7.77339 10.4099 7.66575C10.375 7.5581 10.3068 7.4643 10.2152 7.39777L9.417 6.8175C9.32542 6.75097 9.25725 6.65716 9.22227 6.54951C9.18728 6.44186 9.18728 6.3259 9.22225 6.21825C9.25722 6.11059 9.32538 6.01677 9.41695 5.95024C9.50852 5.8837 9.61881 5.84786 9.732 5.84786H10.719C10.8322 5.84787 10.9425 5.81204 11.0341 5.74552C11.1257 5.679 11.1938 5.58519 11.2288 5.47755L11.5339 4.53878C11.5689 4.43112 11.637 4.33731 11.7286 4.27078C11.8202 4.20425 11.9304 4.16841 12.0436 4.16841C12.1568 4.16841 12.2671 4.20425 12.3587 4.27078C12.4503 4.33731 12.5184 4.43112 12.5534 4.53878L12.8585 5.47755C12.8935 5.58517 12.9616 5.67896 13.0532 5.74547C13.1448 5.81199 13.2551 5.84783 13.3682 5.84786H14.3554C14.4686 5.84788 14.5788 5.88373 14.6704 5.95026C14.762 6.0168 14.8301 6.11061 14.8651 6.21825C14.9001 6.3259 14.9001 6.44185 14.8651 6.5495C14.8301 6.65715 14.762 6.75096 14.6704 6.8175ZM21.2647 5.10637C21.276 5.75454 21.1173 6.39437 20.8045 6.96216C20.4916 7.52995 20.0355 8.0059 19.4816 8.34262C19.2135 8.49622 18.9265 8.61431 18.6279 8.69392C18.8673 7.9832 18.9896 7.23831 18.9902 6.48836V3.63086H20.8853C20.9859 3.63097 21.0823 3.67098 21.1534 3.7421C21.2246 3.81323 21.2646 3.90966 21.2647 4.01025V5.10637Z" fill="#463196"/>
</svg>
