<svg width="18" height="18" viewBox="0 0 18 18" fill="none" xmlns="http://www.w3.org/2000/svg">
<path d="M6.89322 15.2926V12.4078C6.89322 11.3023 7.75057 10.4329 9.01892 9.93659C8.20095 9.63238 7.33511 9.47713 6.4624 9.47819C4.83387 9.47819 3.32943 10.0098 2.11363 10.9085C2.87913 13.0734 4.67038 14.7165 6.89322 15.2926ZM14.5447 12.1372C14.2043 11.6779 13.0712 11.2015 11.6323 11.2015C9.90384 11.2015 8.61653 11.8882 8.61653 12.4078V15.5097C11.0494 15.5111 13.3027 14.2292 14.5447 12.1372ZM6.50548 8.18571C7.57621 8.18571 8.4442 7.31771 8.4442 6.24699C8.4442 5.17626 7.57621 4.30827 6.50548 4.30827C5.43476 4.30827 4.56676 5.17626 4.56676 6.24699C4.56676 7.31771 5.43476 8.18571 6.50548 8.18571ZM11.6323 9.04736C12.584 9.04736 13.3556 8.27581 13.3556 7.32405C13.3556 6.3723 12.584 5.60075 11.6323 5.60075C10.6805 5.60075 9.90904 6.3723 9.90904 7.32405C9.90904 8.27581 10.6805 9.04736 11.6323 9.04736ZM8.61653 17.233C3.85762 17.233 0 13.3754 0 8.61653C0 3.85762 3.85762 0 8.61653 0C13.3754 0 17.233 3.85762 17.233 8.61653C17.233 13.3754 13.3754 17.233 8.61653 17.233Z" fill="#463196"/>
</svg>
