<svg width="25" height="25" viewBox="0 0 25 25" fill="none" xmlns="http://www.w3.org/2000/svg">
<path d="M15.2086 7.5946C15.1055 7.49154 14.9657 7.43364 14.8199 7.43364C14.6742 7.43364 14.5344 7.49154 14.4313 7.5946L11.7345 10.2915L10.5687 9.12564C10.5176 9.07455 10.4571 9.03403 10.3904 9.00637C10.3237 8.97871 10.2522 8.96446 10.18 8.96444C10.1078 8.96442 10.0363 8.97862 9.96959 9.00624C9.90288 9.03386 9.84227 9.07436 9.79122 9.12541C9.74016 9.17646 9.69967 9.23707 9.67205 9.30378C9.64443 9.37049 9.63023 9.44198 9.63025 9.51418C9.63027 9.58638 9.64452 9.65787 9.67218 9.72456C9.69984 9.79125 9.74036 9.85183 9.79145 9.90286L11.3459 11.4573C11.3969 11.5083 11.4575 11.5488 11.5242 11.5764C11.5909 11.6041 11.6623 11.6183 11.7345 11.6183C11.8067 11.6183 11.8781 11.6041 11.9448 11.5764C12.0115 11.5488 12.0721 11.5083 12.1231 11.4573L15.2086 8.37182C15.3116 8.26875 15.3695 8.12897 15.3695 7.98321C15.3695 7.83745 15.3116 7.69767 15.2086 7.5946Z" fill="#463196"/>
<path d="M24.4987 14.0345C24.4729 13.8837 24.412 13.7411 24.321 13.6182C24.2299 13.4953 24.1113 13.3955 23.9746 13.3269C23.0608 12.8722 21.0576 12.1994 21.0576 12.1994V11.5386L21.113 11.4962C21.502 11.1987 21.7622 10.7633 21.84 10.2798L21.8509 10.2092H21.9061C22.0529 10.2093 22.1965 10.1656 22.3183 10.0836C22.4401 10.0017 22.5347 9.88518 22.5899 9.74912C22.6559 9.62986 22.6906 9.49585 22.6908 9.35955C22.6908 9.26548 22.6727 9.17228 22.6376 9.085C22.6206 8.98953 22.5677 8.90415 22.4899 8.84626L22.3044 8.7345L22.3511 8.53374C22.6842 7.07744 21.5568 5.76656 20.0429 5.73076C20.0061 5.72967 19.9692 5.72967 19.9334 5.73076C19.8976 5.72967 19.8607 5.72967 19.8238 5.73076C18.31 5.76656 17.1825 7.07744 17.5167 8.53374L17.5623 8.7345L17.3778 8.84626C17.2997 8.90404 17.2465 8.98941 17.2292 9.085C17.194 9.17227 17.1759 9.26547 17.176 9.35955C17.1762 9.49584 17.2109 9.62986 17.2769 9.74912C17.3324 9.88514 17.4272 10.0015 17.5492 10.0835C17.6711 10.1654 17.8147 10.2092 17.9616 10.2092H18.0159L18.0266 10.2798C18.1045 10.7633 18.3648 11.1987 18.7538 11.4963L18.809 11.5386V12.1994C18.809 12.1994 16.8058 12.8722 15.8933 13.3269C15.7697 13.3886 15.6605 13.4759 15.5732 13.583C16.3979 13.8836 17.4006 14.2699 18.0353 14.5857C18.3041 14.7206 18.5375 14.9166 18.7167 15.158C18.896 15.3994 19.0161 15.6795 19.0674 15.9758C19.0946 16.1353 19.1195 16.3079 19.1412 16.4869H24.6832C24.669 15.6666 24.6074 14.8477 24.4987 14.0345Z" fill="#463196"/>
<path d="M6.96457 14.5857C7.59939 14.2699 8.60209 13.8836 9.4267 13.583C9.33938 13.4759 9.2303 13.3886 9.10669 13.3269C8.19406 12.8722 6.19085 12.1994 6.19085 12.1994V11.5385L6.24619 11.4962C6.63521 11.1986 6.8954 10.7633 6.97325 10.2797L6.9841 10.2092H7.03835C7.18527 10.2092 7.32886 10.1654 7.45081 10.0834C7.57275 10.0015 7.66754 9.8851 7.72309 9.74909C7.78908 9.62983 7.8238 9.49581 7.82403 9.35951C7.82401 9.26544 7.80597 9.17224 7.77086 9.08496C7.75347 8.98937 7.70031 8.904 7.62219 8.84623L7.4376 8.73445L7.48329 8.5337C7.81741 7.0774 6.69003 5.76653 5.17623 5.73071C5.13933 5.72963 5.10243 5.72963 5.06662 5.73071C5.03081 5.72963 4.99391 5.72963 4.95702 5.73071C3.44321 5.76652 2.31572 7.0774 2.64876 8.5337L2.69553 8.73445L2.50997 8.84623C2.43215 8.90409 2.37936 8.98949 2.36238 9.08496C2.32728 9.17224 2.30923 9.26544 2.30921 9.35951C2.30943 9.49581 2.34415 9.62983 2.41013 9.74909C2.46531 9.88514 2.55985 10.0016 2.68166 10.0836C2.80346 10.1656 2.94697 10.2093 3.09379 10.2092H3.14913L3.15987 10.2797C3.23776 10.7633 3.49799 11.1986 3.88704 11.4962L3.94228 11.5385V12.1994C3.94228 12.1994 1.93905 12.8722 1.02546 13.3269C0.888743 13.3955 0.770066 13.4953 0.679001 13.6182C0.587937 13.7411 0.527035 13.8836 0.501209 14.0344C0.392543 14.8477 0.330982 15.6665 0.316833 16.4869H5.85879C5.8805 16.3078 5.90545 16.1353 5.93258 15.9758C5.98389 15.6795 6.10399 15.3994 6.28322 15.158C6.46245 14.9165 6.69582 14.7205 6.96457 14.5857Z" fill="#463196"/>
<path d="M17.7448 15.1684C16.5598 14.5777 13.9591 13.7047 13.9591 13.7047H13.7391L13.0275 14.6541L13.6946 19.2701H18.6652C18.6472 18.205 18.5674 17.142 18.4262 16.0862C18.3925 15.8905 18.3133 15.7054 18.195 15.546C18.0766 15.3866 17.9224 15.2572 17.7448 15.1684Z" fill="#463196"/>
<path d="M11.0408 13.7047C11.0408 13.7047 8.44012 14.5776 7.25512 15.1684C7.07752 15.2572 6.92331 15.3866 6.80494 15.546C6.68657 15.7055 6.60737 15.8905 6.57373 16.0862C6.43248 17.142 6.35266 18.2051 6.33467 19.2701H11.3054L11.9724 14.6541L11.2608 13.7047H11.0408Z" fill="#463196"/>
</svg>
