<svg width="18" height="18" viewBox="0 0 18 18" fill="none" xmlns="http://www.w3.org/2000/svg">
<path d="M8.61653 17.233C3.85762 17.233 0 13.3754 0 8.61653C0 3.85762 3.85762 0 8.61653 0C13.3754 0 17.233 3.85762 17.233 8.61653C17.233 13.3754 13.3754 17.233 8.61653 17.233ZM7.75488 11.2015V12.9248H9.47814V11.2015H7.75488ZM9.47814 9.78407C10.9094 9.35271 11.8091 7.93851 11.5933 6.45935C11.3775 4.9802 10.1113 3.88196 8.61653 3.87744C7.1787 3.87744 5.94083 4.8919 5.65843 6.30149L7.34904 6.6399C7.48248 5.97227 8.11096 5.52263 8.78592 5.6119C9.46084 5.70117 9.95084 6.29874 9.90614 6.9781C9.86144 7.65747 9.29734 8.18566 8.61653 8.18571C8.14065 8.18571 7.75488 8.57148 7.75488 9.04736V10.3398H9.47814V9.78407Z" fill="#463196"/>
</svg>
