<svg width="16" height="18" viewBox="0 0 16 18" fill="none" xmlns="http://www.w3.org/2000/svg">
<path d="M3.44661 3.44661V0.861653C3.44661 0.385775 3.83239 0 4.30827 0H14.6482C15.124 0 15.5098 0.385775 15.5098 0.861653V12.9248C15.5098 13.4006 15.124 13.7864 14.6482 13.7864H12.0632V16.3714C12.0632 16.847 11.6754 17.233 11.1954 17.233H0.86768C0.63819 17.2344 0.4176 17.1443 0.25476 16.9825C0.091908 16.8208 0.000226 16.6009 0 16.3714L0.00258499 4.30827C0.00258499 3.83263 0.39033 3.44661 0.87027 3.44661H3.44661ZM5.16992 3.44661H12.0632V12.0631H13.7865V1.7233H5.16992V3.44661ZM3.44661 7.75488V9.47814H8.61654V7.75488H3.44661ZM3.44661 11.2015V12.9248H8.61654V11.2015H3.44661Z" fill="#463196"/>
</svg>
