<svg width="19" height="17" viewBox="0 0 19 17" fill="none" xmlns="http://www.w3.org/2000/svg">
<path d="M11.0849 6.82129C10.7484 6.48492 10.203 6.48492 9.86646 6.82129L9.25727 7.42962C8.58446 8.1028 7.49333 8.1028 6.82033 7.4298C6.14734 6.75681 6.14734 5.66567 6.82033 4.99268L11.6717 0.140032C14.0273 -0.395759 16.461 0.639263 17.7092 2.70766C18.9573 4.77607 18.7385 7.41168 17.1664 9.24598L15.3501 11.0856L11.0849 6.82129ZM1.64112 1.64103C3.4766 -0.19421 6.33222 -0.528656 8.5421 0.832803L5.60128 3.77448C4.2766 5.0965 4.24898 7.23405 5.53904 8.58987C6.8291 9.9457 8.96538 10.0243 10.3516 8.76691L10.4757 8.64886L14.1317 12.304L10.4757 15.96C9.8027 16.6327 8.71185 16.6327 8.0389 15.96L1.64025 9.5613C-0.546751 7.37416 -0.545891 3.82822 1.64112 1.64103Z" fill="#463196"/>
</svg>
