<svg width="24" height="24" viewBox="0 0 24 24" fill="none" xmlns="http://www.w3.org/2000/svg">
<g clip-path="url(#clip0_7_38)">
<path d="M8.47428 13.8579H18.7392C18.8093 13.858 18.8788 13.8441 18.9436 13.8173C19.0084 13.7905 19.0673 13.7511 19.1169 13.7016C19.1665 13.652 19.2058 13.5931 19.2326 13.5283C19.2595 13.4635 19.2733 13.394 19.2733 13.3239V0.771248C19.2733 0.701112 19.2595 0.631659 19.2326 0.566859C19.2058 0.502058 19.1665 0.443178 19.1169 0.393584C19.0673 0.343989 19.0084 0.304651 18.9436 0.277817C18.8788 0.250982 18.8093 0.237177 18.7392 0.23719H8.47428C8.40414 0.237177 8.33469 0.250982 8.26989 0.277817C8.20509 0.304651 8.14621 0.343989 8.09662 0.393584C8.04702 0.443178 8.00769 0.502058 7.98085 0.566859C7.95402 0.631659 7.94022 0.701112 7.94023 0.771248V13.3239C7.94022 13.394 7.95402 13.4635 7.98085 13.5283C8.00769 13.5931 8.04702 13.652 8.09662 13.7016C8.14621 13.7511 8.20509 13.7905 8.26989 13.8173C8.33469 13.8441 8.40414 13.858 8.47428 13.8579ZM9.00883 1.3048H18.2047V12.7903H9.00883V1.3048Z" fill="#463196"/>
<path d="M12.571 4.52325C12.6178 4.76364 12.7467 4.98029 12.9357 5.13605C13.1247 5.29181 13.362 5.37699 13.6069 5.37699C13.8518 5.37699 14.089 5.29181 14.278 5.13605C14.467 4.98029 14.5959 4.76364 14.6427 4.52325L14.8038 3.69294C14.8251 3.53577 14.8126 3.37586 14.7671 3.22393C14.7215 3.07201 14.644 2.93159 14.5397 2.81211C14.4354 2.69263 14.3067 2.59686 14.1623 2.53123C14.0179 2.4656 13.8611 2.43163 13.7025 2.4316H13.5112C13.3526 2.43163 13.1958 2.4656 13.0514 2.53123C12.907 2.59686 12.7783 2.69263 12.674 2.81211C12.5697 2.93159 12.4922 3.07201 12.4466 3.22393C12.4011 3.37586 12.3886 3.53577 12.4099 3.69294L12.571 4.52325Z" fill="#463196"/>
<path d="M16.0123 6.32892C16.0012 6.2765 15.9768 6.22781 15.9415 6.1875C15.9062 6.14719 15.8611 6.11661 15.8106 6.09867L14.686 5.69927L13.6069 6.77838L12.5277 5.69926L11.4031 6.09867C11.3526 6.1166 11.3075 6.14718 11.2722 6.18749C11.2369 6.2278 11.2125 6.27649 11.2014 6.32892L10.8172 8.13715H16.3966L16.0123 6.32892Z" fill="#463196"/>
<path d="M16.8105 10.0913C16.8103 10.0015 16.7746 9.91545 16.7111 9.85198C16.6477 9.78851 16.5616 9.75279 16.4719 9.75266H10.7414C10.6516 9.75266 10.5655 9.78833 10.502 9.85183C10.4385 9.91533 10.4028 10.0015 10.4028 10.0913C10.4028 10.1811 10.4385 10.2672 10.502 10.3307C10.5655 10.3942 10.6516 10.4299 10.7414 10.4299H16.4719C16.5616 10.4297 16.6477 10.394 16.7111 10.3305C16.7746 10.2671 16.8103 10.181 16.8105 10.0913Z" fill="#463196"/>
<path d="M23.0408 16.4088C22.8909 16.2226 22.6847 16.0902 22.453 16.0315C22.2214 15.9728 21.9769 15.991 21.7565 16.0834L14.9161 18.9547L14.3065 19.1309C14.0898 19.1936 13.8667 19.2316 13.6415 19.2441C13.1528 19.2705 12.4409 19.2846 12.3174 19.293H8.30013C8.23462 19.2928 8.17111 19.2704 8.12007 19.2293C8.06944 19.1988 8.02744 19.1558 7.99807 19.1045C7.96869 19.0532 7.95291 18.9952 7.95223 18.936C7.95519 18.8402 7.99607 18.7495 8.06588 18.6838C8.1357 18.6181 8.22874 18.5827 8.32457 18.5856H12.8769C13.1568 18.5857 13.4271 18.4831 13.6364 18.2972C13.8457 18.1114 13.9796 17.8552 14.0126 17.5772C14.0183 17.5322 14.0211 17.4869 14.021 17.4415C14.021 17.1765 13.929 16.9196 13.7607 16.7148C13.5924 16.51 13.3582 16.37 13.0981 16.3187C10.5567 15.8191 8.04097 15.2184 5.43137 15.3869C5.32976 15.3933 4.41402 15.4306 3.92914 15.475V22.2331L3.95422 22.7971C4.86037 22.9075 10.979 23.6561 11.0791 23.6738C12.0497 23.8462 13.0199 23.8 13.9448 23.2488C13.9491 23.246 13.9536 23.2434 13.9583 23.2411C13.9583 23.2411 20.0961 19.7772 22.7854 18.021C22.9142 17.9369 23.0239 17.8267 23.1075 17.6976C23.1911 17.5685 23.2467 17.4234 23.2707 17.2715C23.2948 17.1196 23.2868 16.9644 23.2471 16.8158C23.2075 16.6672 23.1372 16.5285 23.0408 16.4088Z" fill="#463196"/>
<path d="M3.18233 14.6867H0.715652V22.8022H3.18233V14.6867Z" fill="#463196"/>
</g>
<defs>
<clipPath id="clip0_7_38">
<rect width="24" height="24" fill="white"/>
</clipPath>
</defs>
</svg>
