<svg width="12" height="12" viewBox="0 0 12 12" fill="none" xmlns="http://www.w3.org/2000/svg">
<path d="M5.95689 0C2.69056 0 0.0439453 2.64661 0.0439453 5.91294C0.0439453 9.17928 2.69056 11.8259 5.95689 11.8259C9.22322 11.8259 11.8698 9.17928 11.8698 5.91294C11.8698 2.64661 9.22322 0 5.95689 0ZM6.35488 6.42464C6.35488 6.64353 6.17578 6.82263 5.95689 6.82263H3.22784C3.00895 6.82263 2.82985 6.64353 2.82985 6.42464C2.82985 6.20575 3.00895 6.02666 3.22784 6.02666H5.5589V2.27421C5.5589 2.05532 5.738 1.87622 5.95689 1.87622C6.17578 1.87622 6.35488 2.05532 6.35488 2.27421V6.42464Z" fill="#0F0C1A" fill-opacity="0.811765"/>
</svg>
