<svg width="11" height="11" viewBox="0 0 11 11" fill="none" xmlns="http://www.w3.org/2000/svg">
<path d="M9.09873 2.38419e-07V2.96663L8.56756 2.6303L8.35649 2.48186L8.14542 2.6303L7.61425 2.96663V2.38419e-07H6.66558C6.66094 2.38419e-07 6.65862 2.38419e-07 6.65398 2.38419e-07C6.1321 0.00463891 5.71227 0.436064 5.71227 0.960269V8.22491C5.71227 8.39888 5.57774 8.54964 5.40378 8.55892C5.21822 8.5682 5.06281 8.41975 5.06281 8.23419V0.960269C5.06281 0.436064 4.64298 0.00463891 4.1211 0C4.11646 0 4.11414 0 4.1095 0H1.65548C0.952675 2.38419e-07 0.377441 0.575234 0.377441 1.27804V7.99992C0.377441 8.70273 0.952675 9.27796 1.65548 9.27796L4.16053 9.27564C4.25795 9.27796 4.35305 9.28956 4.44351 9.30812C4.79839 9.38002 5.06513 9.69315 5.06049 10.055C5.05817 10.222 5.18111 10.3704 5.34811 10.389C5.54527 10.4099 5.71227 10.2568 5.70995 10.062C5.70531 9.69547 5.97437 9.38002 6.33389 9.30812C6.42204 9.28956 6.51713 9.28028 6.61223 9.27796L9.11728 9.28028C9.82009 9.28028 10.3953 8.70505 10.3953 8.00224V1.27804C10.3976 0.575234 9.80153 2.38419e-07 9.09873 2.38419e-07Z" fill="#0F0C1A" fill-opacity="0.811765"/>
</svg>
