<svg width="25" height="25" viewBox="0 0 25 25" fill="none" xmlns="http://www.w3.org/2000/svg">
<path d="M24.3541 7.86753C23.4975 7.01079 22.1035 7.01084 21.2465 7.86772C20.9829 8.13154 19.3 9.81577 19.043 10.0731V4.26885C19.043 3.68193 18.8144 3.13018 18.3994 2.71519L16.3278 0.643555C15.9128 0.228516 15.361 0 14.7741 0H2.19727C0.985693 0 0 0.985693 0 2.19727V22.8027C0 24.0143 0.985693 25 2.19727 25H16.8457C18.0573 25 19.043 24.0143 19.043 22.8027V16.2906L24.3541 10.975C25.2128 10.1163 25.213 8.72632 24.3541 7.86753ZM14.6485 1.46484C14.7869 1.46484 15.0535 1.44087 15.292 1.67935L17.3636 3.75098C17.596 3.98345 17.5782 4.23818 17.5782 4.39453H14.6485V1.46484ZM17.5781 22.8027C17.5781 23.2066 17.2496 23.5352 16.8457 23.5352H2.19727C1.79341 23.5352 1.46484 23.2066 1.46484 22.8027V2.19727C1.46484 1.79341 1.79341 1.46484 2.19727 1.46484H13.1836V5.12695C13.1836 5.53145 13.5115 5.85938 13.916 5.85938H17.5781V11.5392C17.5781 11.5392 15.4173 13.7019 15.4172 13.702L14.3819 14.7373C14.3015 14.8177 14.2409 14.9157 14.2049 15.0236L13.1691 18.131C13.0813 18.3942 13.1499 18.6844 13.346 18.8805C13.5425 19.077 13.8328 19.1451 14.0956 19.0575L17.203 18.0217C17.3108 17.9857 17.4089 17.9251 17.4893 17.8447L17.5781 17.7559V22.8027ZM15.9355 15.2552L16.9713 16.291L16.5757 16.6867L15.022 17.2045L15.5399 15.6508L15.9355 15.2552ZM18.0069 15.255L16.9711 14.2192C17.5227 13.6672 19.9724 11.2154 20.4919 10.6955L21.5277 11.7312L18.0069 15.255ZM23.3181 9.93936L22.5631 10.695L21.5273 9.65923L22.2826 8.90332C22.5683 8.61772 23.0329 8.61777 23.3184 8.90332C23.6039 9.18896 23.6054 9.652 23.3181 9.93936Z" fill="#463196"/>
<path d="M13.916 7.32422H3.66211C3.25762 7.32422 2.92969 7.65215 2.92969 8.05664C2.92969 8.46113 3.25762 8.78906 3.66211 8.78906H13.916C14.3205 8.78906 14.6484 8.46113 14.6484 8.05664C14.6484 7.65215 14.3205 7.32422 13.916 7.32422Z" fill="#463196"/>
<path d="M10.9863 10.2539H3.66211C3.25762 10.2539 2.92969 10.5818 2.92969 10.9863C2.92969 11.3908 3.25762 11.7188 3.66211 11.7188H10.9863C11.3908 11.7188 11.7188 11.3908 11.7188 10.9863C11.7188 10.5818 11.3908 10.2539 10.9863 10.2539Z" fill="#463196"/>
<path d="M10.9863 13.1836H3.66211C3.25762 13.1836 2.92969 13.5115 2.92969 13.916C2.92969 14.3205 3.25762 14.6484 3.66211 14.6484H10.9863C11.3908 14.6484 11.7188 14.3205 11.7188 13.916C11.7188 13.5115 11.3908 13.1836 10.9863 13.1836Z" fill="#463196"/>
<path d="M10.9863 16.1133H3.66211C3.25762 16.1133 2.92969 16.4412 2.92969 16.8457C2.92969 17.2502 3.25762 17.5781 3.66211 17.5781H10.9863C11.3908 17.5781 11.7188 17.2502 11.7188 16.8457C11.7188 16.4412 11.3908 16.1133 10.9863 16.1133Z" fill="#463196"/>
<path d="M13.916 20.6055H9.52148C9.11699 20.6055 8.78906 20.9334 8.78906 21.3379C8.78906 21.7424 9.11699 22.0703 9.52148 22.0703H13.916C14.3205 22.0703 14.6484 21.7424 14.6484 21.3379C14.6484 20.9334 14.3205 20.6055 13.916 20.6055Z" fill="#463196"/>
</svg>
