<svg xmlns="http://www.w3.org/2000/svg" width="19.372" height="14.529" viewBox="0 0 19.372 14.529">
  <path id="Path_273" data-name="Path 273" d="M80.587,72.421a3.23,3.23,0,0,1,6.254,0h1.716a.807.807,0,1,1,0,1.614H86.841a3.23,3.23,0,0,1-6.254,0H70.8a.807.807,0,1,1,0-1.614Zm-8.072,8.072a3.23,3.23,0,0,1,6.254,0h9.787a.807.807,0,1,1,0,1.614H78.769a3.23,3.23,0,0,1-6.254,0H70.8a.807.807,0,1,1,0-1.614Zm3.127,2.421A1.614,1.614,0,1,0,74.028,81.3,1.614,1.614,0,0,0,75.642,82.915Zm8.072-8.072A1.614,1.614,0,1,0,82.1,73.229,1.614,1.614,0,0,0,83.714,74.843Z" transform="translate(-69.992 -70)" fill="#463196" fill-rule="evenodd"/>
</svg>
