<svg width="25" height="25" viewBox="0 0 25 25" fill="none" xmlns="http://www.w3.org/2000/svg">
<g clip-path="url(#clip0_9_37)">
<path d="M23.913 13.3152C23.6413 13.3152 23.3696 13.2065 23.1522 13.0163L12.5 2.6087L1.84783 13.0163C1.41304 13.4239 0.733696 13.4239 0.298913 12.9891C-0.108696 12.5544 -0.108696 11.875 0.326087 11.4402L11.7391 0.298916C12.1739 -0.108692 12.8261 -0.108692 13.2609 0.298916L24.6739 11.4402C25.1087 11.8478 25.1087 12.5544 24.7011 12.9891C24.4837 13.2065 24.1848 13.3152 23.913 13.3152ZM21.5217 23.913V13.288C21.5217 12.6902 21.0326 12.2011 20.4348 12.2011C19.837 12.2011 19.3478 12.6902 19.3478 13.288V22.8261H15.9511V17.0109C15.9511 16.2228 15.2989 15.5707 14.5109 15.5707H10.4891C9.70109 15.5707 9.04891 16.2228 9.04891 17.0109V22.8261H5.65217V13.288C5.65217 12.6902 5.16304 12.2011 4.56522 12.2011C3.96739 12.2011 3.47826 12.6902 3.47826 13.288V23.913C3.47826 24.5109 3.96739 25 4.56522 25H10.1359C10.7337 25 11.2228 24.5109 11.2228 23.913V17.7446H13.8043V23.913C13.8043 24.5109 14.2935 25 14.8913 25H20.462C21.0598 25 21.5217 24.5109 21.5217 23.913Z" fill="#BEBEBE"/>
</g>
<defs>
<clipPath id="clip0_9_37">
<rect width="25" height="25" fill="white"/>
</clipPath>
</defs>
</svg>
