<svg width="15" height="10" viewBox="0 0 15 10" fill="none" xmlns="http://www.w3.org/2000/svg">
<path fill-rule="evenodd" clip-rule="evenodd" d="M13.2589 7.22293H12.0264L12.2915 6.18433H12.9941L13.2589 7.22293Z" fill="#FF7058"/>
<rect x="12.5264" y="3.43457" width="1" height="3.09585" fill="#FF7058"/>
<path fill-rule="evenodd" clip-rule="evenodd" d="M13.1367 6.18433C13.1367 5.90924 12.923 5.68518 12.6478 5.68518C12.3728 5.68518 12.1592 5.90924 12.1592 6.18433C12.1592 6.44896 12.3728 6.67291 12.6478 6.67291C12.923 6.67291 13.1367 6.44896 13.1367 6.18433Z" fill="#324A5E"/>
<path fill-rule="evenodd" clip-rule="evenodd" d="M0 3.35316L7.05713 0.664551L14.125 3.35316L10.5298 4.72791V3.64845C10.5298 2.85413 8.72748 2.4875 7.05713 2.4875C5.38721 2.4875 3.58453 2.85413 3.58453 3.64845V4.72791L0 3.35316Z" fill="#324A5E"/>
<path fill-rule="evenodd" clip-rule="evenodd" d="M6.24219 4.98247C6.49695 4.96207 6.77209 4.95192 7.05688 4.95192C7.35229 4.95192 7.62744 4.96207 7.87158 4.98247C8.83929 5.03329 9.99011 5.19626 10.6215 5.54259V3.63815C10.6215 2.82355 8.77808 2.44678 7.05688 2.44678C5.34631 2.44678 3.50293 2.82355 3.50293 3.63815V5.54259C4.1344 5.19626 5.2749 5.03329 6.24219 4.98247Z" fill="#2B3B4E"/>
<path fill-rule="evenodd" clip-rule="evenodd" d="M10.51 6.30633C10.4894 6.25561 10.4488 6.22507 10.3979 6.23521C8.18793 6.37768 5.93732 6.37768 3.72736 6.23521C3.67651 6.22507 3.62543 6.25561 3.61548 6.30633C3.534 6.55079 3.49316 6.80548 3.49316 7.03967C3.49316 7.10077 3.54413 7.1517 3.60529 7.1517H10.52C10.5815 7.1517 10.6324 7.10077 10.6324 7.03967C10.6324 6.8259 10.6221 6.58144 10.51 6.30633Z" fill="white"/>
<path fill-rule="evenodd" clip-rule="evenodd" d="M10.7439 7.0295C10.7439 6.96843 10.6929 6.91736 10.6319 6.91736H7.6378C7.57676 6.91736 7.52586 6.96843 7.52586 7.03964H6.59886C6.59886 6.96843 6.54795 6.91736 6.48716 6.91736H3.49278C3.43187 6.91736 3.38102 6.96843 3.38102 7.0295C3.37083 7.04979 3.32982 7.67101 3.61503 8.24129C3.63536 8.28197 3.67613 8.30247 3.71714 8.30247H3.72691C4.62352 8.24129 5.52952 8.21074 6.41581 8.20059L6.94517 8.19034L7.70909 8.20059C8.59495 8.21074 9.50145 8.24129 10.3975 8.30247C10.4483 8.31271 10.4993 8.27182 10.5095 8.22089C10.7947 7.6506 10.7439 7.04979 10.7439 7.0295Z" fill="#E6E9EE"/>
<path fill-rule="evenodd" clip-rule="evenodd" d="M7.04669 7.62012L7.30145 7.73224L6.7514 8.98474L6.57837 8.67928L6.24219 8.76067L6.79236 7.50806L7.04669 7.62012Z" fill="#F1543F"/>
<path fill-rule="evenodd" clip-rule="evenodd" d="M7.19946 7.77296L6.95508 7.91556L7.62714 9.0968L7.76971 8.79123L8.10571 8.83199L7.43359 7.6405L7.19946 7.77296Z" fill="#F1543F"/>
<path fill-rule="evenodd" clip-rule="evenodd" d="M8.05566 7.29432C8.1065 7.23322 8.1065 7.13135 8.04547 7.08039C8.00469 7.03972 7.98455 6.97863 8.00469 6.91744C8.03533 6.8462 7.99456 6.76473 7.92333 6.73408C7.86187 6.71369 7.82122 6.66296 7.82122 6.60177C7.81103 6.52028 7.7398 6.4592 7.6585 6.4592C7.59741 6.4592 7.54656 6.42876 7.51568 6.37771C7.48516 6.29633 7.39349 6.26568 7.32232 6.30637C7.27148 6.32687 7.20025 6.31662 7.15954 6.28609C7.0982 6.2251 7.00659 6.23525 6.95587 6.29633C6.91509 6.33691 6.85388 6.35731 6.7929 6.32687C6.71124 6.30637 6.62982 6.34717 6.60943 6.41851C6.58904 6.47959 6.52801 6.52028 6.47711 6.52028C6.39581 6.52028 6.32427 6.59172 6.33428 6.67299C6.33428 6.74433 6.30389 6.79537 6.24273 6.81568C6.17156 6.85647 6.14117 6.93772 6.17156 7.00918C6.20208 7.07026 6.19195 7.13135 6.1513 7.17214C6.10034 7.23322 6.10034 7.33512 6.16143 7.38593C6.20208 7.42673 6.22241 7.48771 6.20208 7.54902C6.17156 7.62012 6.21221 7.70161 6.29363 7.73228C6.34448 7.75255 6.38519 7.8035 6.39581 7.86448C6.39581 7.94607 6.46697 8.00715 6.54833 8.00715C6.60943 8.00715 6.66033 8.0377 6.69085 8.08875C6.72137 8.17011 6.81329 8.20066 6.88452 8.15998C6.94549 8.13956 7.00659 8.14983 7.04717 8.18036C7.10833 8.24134 7.20025 8.23121 7.25115 8.17011C7.2918 8.12943 7.35284 8.10914 7.41387 8.13956C7.49529 8.15998 7.57714 8.11918 7.60748 8.04783C7.61785 7.98676 7.67889 7.94607 7.72967 7.94607C7.82122 7.94607 7.88232 7.87473 7.88232 7.79325C7.87219 7.72213 7.9129 7.67106 7.96411 7.65067C8.04547 7.60999 8.06585 7.52851 8.03533 7.45716C8.00469 7.40635 8.01495 7.33512 8.05566 7.29432Z" fill="#FF7058"/>
<path fill-rule="evenodd" clip-rule="evenodd" d="M7.78998 7.20268C7.76966 6.81565 7.44373 6.52026 7.0669 6.54054C6.68 6.56094 6.38446 6.88688 6.40534 7.26365C6.42566 7.65066 6.75122 7.94605 7.13806 7.92576C7.51502 7.90525 7.81037 7.57943 7.78998 7.20268Z" fill="white"/>
<path fill-rule="evenodd" clip-rule="evenodd" d="M7.7096 7.20254C7.68921 6.86647 7.40393 6.61186 7.06769 6.62213C6.73163 6.64241 6.47724 6.92744 6.48761 7.26351C6.50794 7.59971 6.79303 7.85418 7.12891 7.84405C7.46503 7.82363 7.72986 7.53861 7.7096 7.20254Z" fill="#FF7058"/>
</svg>
