<svg width="22" height="22" viewBox="0 0 22 22" fill="none" xmlns="http://www.w3.org/2000/svg">
<path d="M4.35518 4.08615C5.30049 4.08615 6.05674 4.8424 6.05674 5.78771C6.05674 6.73302 5.30049 7.48927 4.35518 7.48927C3.40987 7.48927 2.65362 6.73302 2.65362 5.78771C2.65362 4.8424 3.40987 4.08615 4.35518 4.08615ZM6.74424 14.3643H3.90831V12.2502L2.44737 9.75802C2.37862 9.6549 2.43018 9.53459 2.51612 9.46584C2.61924 9.39709 2.73956 9.44865 2.80831 9.53458L4.50987 12.4393C4.63018 12.6455 4.85362 12.8174 5.12862 12.8174H8.03331C8.44581 12.8174 8.77237 12.4736 8.77237 12.0783C8.77237 11.6658 8.42862 11.3393 8.03331 11.3393L5.59268 11.3565L3.68487 8.12521C3.54737 7.88458 3.25518 7.7299 2.91143 7.7299C2.87706 7.7299 2.58487 7.76427 2.53331 7.79865C1.12393 8.2799 0.00674272 10.5143 0.00674272 12.8174C-0.0104448 13.5221 0.00674285 14.1065 0.0411178 14.6565C-0.0276322 15.3268 0.384868 15.9799 1.03799 16.2205C1.20987 16.2893 1.38174 16.3236 1.55362 16.3236H5.79893V20.294C5.79893 20.8268 6.22862 21.2393 6.74424 21.2393C7.27706 21.2393 7.68956 20.8096 7.68956 20.294V15.344C7.68956 15.1033 7.58643 14.8455 7.39737 14.6565C7.22549 14.4674 6.98487 14.3643 6.74424 14.3643ZM5.05987 13.1611H16.6614V13.9346H5.05987V13.1611ZM17.3489 4.24083C18.2942 4.24083 19.0505 4.99709 19.0505 5.9424C19.0505 6.88771 18.2942 7.64396 17.3489 7.64396C16.4036 7.64396 15.6474 6.88771 15.6474 5.9424C15.6646 5.01427 16.4208 4.24083 17.3489 4.24083ZM21.7146 12.8002C21.7146 10.4799 20.5974 8.22833 19.188 7.78146C19.1536 7.76427 18.8614 7.71271 18.8099 7.71271C18.4661 7.71271 18.1911 7.85021 18.0364 8.10802L16.1114 11.3736L13.6708 11.3393C13.2755 11.3393 12.9317 11.6658 12.9317 12.0783C12.9317 12.4736 13.2583 12.8174 13.6708 12.8174H16.5755C16.8505 12.8174 17.0739 12.6455 17.1942 12.4393L18.8958 9.53458C18.9646 9.44865 19.0849 9.41427 19.188 9.46584C19.2739 9.53459 19.3083 9.6549 19.2567 9.75802L17.7958 12.2674V14.3815H14.9771C14.7536 14.3815 14.4958 14.4846 14.2896 14.6908C14.1005 14.8627 13.9974 15.1205 13.9974 15.3783V20.3283C13.9974 20.8611 14.4099 21.2736 14.9427 21.2736C15.4755 21.2736 15.888 20.8611 15.888 20.3283V16.3065H20.1505C20.3224 16.3065 20.4942 16.2721 20.6661 16.2033C21.3364 15.9627 21.7146 15.2924 21.663 14.6393C21.7146 14.0721 21.7317 13.4877 21.7146 12.8002ZM10.8521 4.39552C10.2505 4.39552 9.66612 4.1549 9.23643 3.69083C8.41143 2.79708 8.48018 1.4049 9.35674 0.579897C10.2505 -0.245103 11.6427 -0.176352 12.4677 0.70021C12.863 1.1299 13.0692 1.69708 13.0521 2.28146C13.0349 2.86583 12.7771 3.41583 12.3474 3.81115C11.9177 4.20646 11.3849 4.39552 10.8521 4.39552ZM10.8521 0.304897C10.388 0.304897 9.94112 0.476772 9.56299 0.803335C8.78956 1.50802 8.75518 2.69396 9.45987 3.4674C10.1646 4.24083 11.3505 4.27521 12.1239 3.57052C12.5021 3.22677 12.7083 2.76271 12.7255 2.26427C12.7427 1.74865 12.5708 1.2674 12.2271 0.90646C11.8661 0.511147 11.3677 0.304897 10.8521 0.304897ZM10.9552 0.717397H10.7489V2.14396H9.85518V2.35021H10.9552V0.717397Z" fill="#C8C1DF"/>
</svg>
