<svg width="22" height="22" viewBox="0 0 22 22" fill="none" xmlns="http://www.w3.org/2000/svg">
<path d="M3.57904 9.54447C3.48719 9.72842 3.3289 9.86835 3.1379 9.93444C2.9469 10.0005 2.73827 9.98759 2.55645 9.89834C2.37462 9.80909 2.23397 9.65061 2.16444 9.45664C2.09492 9.26266 2.10201 9.04853 2.18422 8.85984C2.33323 8.53357 2.50002 8.21615 2.68378 7.90906C2.8709 7.60247 3.07412 7.30652 3.29256 7.02253L3.3033 7.00785C3.51821 6.73084 3.74712 6.46556 3.98908 6.21308C4.23612 5.95403 4.49673 5.70894 4.76975 5.4789C4.92859 5.34827 5.13119 5.28696 5.33377 5.3082C5.43419 5.31855 5.53161 5.34918 5.62043 5.39833C5.70924 5.44747 5.78768 5.51415 5.85123 5.59453C5.97865 5.75736 6.03847 5.96504 6.01775 6.1727C6.00765 6.27565 5.97777 6.37552 5.92983 6.46656C5.88189 6.5576 5.81684 6.63801 5.73843 6.70316C5.50791 6.89487 5.28793 7.09953 5.07951 7.31621C4.46178 7.96811 3.95464 8.72123 3.57904 9.54447ZM1.59334 17.5269L1.6381 17.4921C2.09827 17.2112 2.79479 17.2847 3.24958 16.9598C3.28273 16.907 3.3109 16.851 3.33374 16.7928C3.37671 16.6936 3.41431 16.5854 3.43938 16.5119C3.33821 16.3842 3.24606 16.2493 3.16364 16.1081L2.88432 15.6529C2.79483 15.531 2.7397 15.3863 2.72496 15.2344C2.72223 15.1828 2.73143 15.1312 2.75182 15.0839C2.77209 15.0374 2.80504 14.9979 2.84671 14.9701C2.86807 14.956 2.89089 14.9443 2.91476 14.9353C2.89616 14.6628 2.89198 14.3895 2.90222 14.1166C2.9176 13.951 2.97169 13.7917 3.05989 13.6521C3.1481 13.5124 3.26783 13.3967 3.40894 13.3145C3.53088 13.2341 3.66358 13.1723 3.80286 13.131C3.89239 13.1053 3.72766 12.8153 3.81897 12.8061C4.26303 12.7584 4.98103 13.1732 5.289 13.5164C5.45848 13.7102 5.55554 13.9593 5.56295 14.2194L5.54684 14.9536C5.58297 14.9632 5.61581 14.9829 5.64172 15.0104C5.66763 15.0379 5.68561 15.0723 5.69366 15.1096C5.70862 15.245 5.68168 15.3818 5.61667 15.5006L5.29975 16.0384C5.19117 16.237 5.06016 16.4218 4.90941 16.589C4.92209 16.6105 4.93583 16.6314 4.95059 16.6514C5.01148 16.7495 5.081 16.8417 5.15829 16.9267C5.5164 17.1929 6.41167 17.2571 6.75903 17.4517H6.77157L6.81454 17.4866C7.36473 16.818 7.65138 15.9628 7.61825 15.0887C7.58513 14.2147 7.23462 13.3849 6.63548 12.7621L6.62295 12.7822C5.99714 12.1502 5.15817 11.7891 4.27979 11.7738C3.40141 11.7585 2.55092 12.0901 1.90449 12.6999C1.25805 13.3097 0.865184 14.151 0.807262 15.0496C0.74934 15.9482 1.0308 16.8352 1.59334 17.5269ZM4.20573 10.9486C4.75818 10.9478 5.30534 11.059 5.81574 11.2757C6.32614 11.4924 6.78972 11.8104 7.17981 12.2114L7.20308 12.2371C7.98168 13.0478 8.41613 14.1412 8.41177 15.2788C8.40741 16.4165 7.96459 17.5063 7.17981 18.3107L7.15474 18.3346C6.66261 18.8306 6.05897 19.1948 5.39706 19.3952C4.73516 19.5955 4.03533 19.6258 3.3593 19.4834C2.68327 19.341 2.05181 19.0302 1.52063 18.5785C0.989443 18.1268 0.574853 17.5481 0.313425 16.8933C0.0519974 16.2386 -0.0482348 15.5279 0.0215693 14.8241C0.0913734 14.1202 0.329069 13.4448 0.71369 12.8573C1.09831 12.2699 1.61804 11.7885 2.22703 11.4557C2.83603 11.1228 3.51557 10.9486 4.20573 10.9486ZM15.3178 17.6407C15.6598 17.3324 16.3921 17.2553 16.8415 16.9836C17.2354 16.7414 17.1674 16.4972 17.1656 16.0971H16.5407C14.9185 16.0971 15.9874 16.2274 16.2077 14.4213C16.5371 11.87 19.0439 11.8682 19.4145 14.4213C19.6509 16.1595 20.6679 16.0971 19.0797 16.0971H18.4405C18.4405 16.5395 18.3706 16.7652 18.8183 17.0149C19.1513 17.1984 19.9087 17.3177 20.2722 17.6261C20.8813 16.9666 21.2173 16.0909 21.2096 15.1828C21.2019 14.2747 20.8511 13.4051 20.231 12.7566L20.2095 12.7382C19.5718 12.0856 18.7086 11.7172 17.8075 11.7131C16.9063 11.709 16.04 12.0694 15.3966 12.7162L15.3769 12.7382C14.7457 13.3865 14.3866 14.262 14.3762 15.1779C14.3658 16.0938 14.705 16.9776 15.3214 17.6407H15.3178ZM17.7923 10.9046C18.345 10.9038 18.8924 11.015 19.4031 11.2317C19.9138 11.4484 20.3777 11.7664 20.7682 12.1674L20.7897 12.1931C21.5689 13.0033 22.004 14.0966 22 15.2344C21.9959 16.3722 21.5531 17.4622 20.7682 18.2666L20.7431 18.2905C19.9527 19.0895 18.886 19.5355 17.7759 19.531C16.6658 19.5266 15.6025 19.072 14.8182 18.2666L14.7949 18.2428C14.0154 17.4322 13.5803 16.3384 13.5846 15.2002C13.589 14.0619 14.0325 12.9716 14.8182 12.1674L14.8415 12.1435C15.6278 11.3487 16.688 10.9035 17.7923 10.9046ZM8.72146 6.57834L8.76622 6.54163C9.22818 6.26264 9.9229 6.33606 10.3777 6.01118C10.4094 5.95753 10.4375 5.90172 10.4619 5.84415C10.503 5.74504 10.5424 5.63675 10.5657 5.56333C10.4651 5.43517 10.373 5.30027 10.29 5.15952L10.0106 4.70432C9.91953 4.58353 9.86255 4.4394 9.84591 4.28767C9.8434 4.23664 9.8526 4.18572 9.87277 4.139C9.8937 4.09235 9.92726 4.05285 9.96946 4.0252C9.99041 4.01032 10.0133 3.99858 10.0375 3.99033C10.018 3.71792 10.0138 3.4446 10.025 3.1717C10.031 3.10962 10.0424 3.0482 10.059 2.98816C10.1374 2.73008 10.3056 2.51058 10.5317 2.37144C10.6543 2.291 10.7875 2.22917 10.9274 2.18789C11.0151 2.16219 10.8522 1.87219 10.9435 1.86118C11.3858 1.81529 12.1038 2.22827 12.4135 2.57334C12.5812 2.76756 12.678 3.01533 12.6875 3.27449L12.6696 4.00868C12.7057 4.01827 12.7386 4.03793 12.7645 4.06546C12.7904 4.09299 12.8084 4.12734 12.8164 4.1647C12.8314 4.30007 12.8044 4.43683 12.7394 4.55565C12.7399 4.55869 12.7399 4.56179 12.7394 4.56483L12.4207 5.10262C12.3127 5.30164 12.1817 5.48653 12.0304 5.65327L12.0715 5.71567C12.1325 5.81317 12.202 5.90471 12.2792 5.98916V5.99833C12.6374 6.26448 13.5326 6.32872 13.88 6.52328H13.8925L13.9355 6.55815C14.4849 5.88921 14.7711 5.03418 14.7379 4.16038C14.7048 3.28657 14.3548 2.45687 13.7564 1.83364L13.7529 1.83548C13.128 1.19895 12.2877 0.834007 11.4069 0.816617C10.5261 0.799227 9.67275 1.13073 9.02442 1.74212C8.37609 2.35351 7.98276 3.19767 7.92633 4.09886C7.8699 5.00005 8.1547 5.88883 8.72146 6.58018V6.57834ZM11.3338 4.3397e-06C11.8863 -0.000800502 12.4335 0.110352 12.9439 0.327071C13.4543 0.543789 13.9178 0.861798 14.3079 1.26281L14.3312 1.28851C15.1107 2.09876 15.5457 3.19226 15.5414 4.33022C15.537 5.46818 15.0936 6.55814 14.3079 7.36209L14.2846 7.38595C13.7926 7.88191 13.189 8.24613 12.5272 8.4465C11.8654 8.64686 11.1656 8.67722 10.4896 8.53489C9.81367 8.39257 9.18225 8.08193 8.65105 7.63036C8.11985 7.1788 7.70521 6.60019 7.44367 5.94556C7.18214 5.29093 7.08175 4.58039 7.15136 3.8766C7.22098 3.1728 7.45845 2.49738 7.84285 1.90989C8.22724 1.32239 8.74675 0.84088 9.35556 0.50781C9.96436 0.17474 10.6438 0.000345162 11.3338 4.3397e-06ZM16.5264 6.84449C16.41 6.74351 16.3253 6.60951 16.283 6.45933C16.2406 6.30915 16.2425 6.1495 16.2885 6.00043C16.3344 5.85136 16.4223 5.71954 16.5411 5.62152C16.6598 5.5235 16.8043 5.46366 16.9561 5.44953C17.1598 5.43256 17.3618 5.4985 17.5184 5.63308L17.7905 5.87352L18.0573 6.13416C18.2364 6.31771 18.4154 6.50125 18.5694 6.6848C18.7234 6.86835 18.8792 7.06291 19.0206 7.25747C19.1621 7.45203 19.3053 7.66494 19.436 7.87786C19.5667 8.09077 19.6903 8.30736 19.7941 8.52395V8.54597C19.8598 8.68469 19.8845 8.84005 19.8652 8.99297C19.8459 9.14589 19.7834 9.28969 19.6855 9.40669C19.5875 9.52369 19.4583 9.6088 19.3138 9.65154C19.1693 9.69428 19.0157 9.69279 18.872 9.64726C18.6861 9.58378 18.5314 9.44891 18.4405 9.27098C18.3474 9.08744 18.2435 8.90389 18.1343 8.73136C18.0251 8.55882 17.9069 8.37894 17.7869 8.21559C17.667 8.05223 17.5273 7.88153 17.3876 7.709C17.248 7.53646 17.1155 7.40064 16.9758 7.25931C16.8362 7.11797 16.6804 6.97481 16.5228 6.83715L16.5264 6.84449ZM13.615 20.0067C13.7107 19.9736 13.812 19.9603 13.9128 19.9675C14.0136 19.9748 14.112 20.0024 14.2023 20.0489H14.2166C14.3938 20.1435 14.5285 20.3046 14.5926 20.4986C14.6556 20.697 14.6395 20.9128 14.548 21.0991C14.4564 21.2855 14.2968 21.4272 14.1038 21.4934C13.8585 21.5778 13.6114 21.6513 13.3607 21.7155C13.1101 21.7797 12.8665 21.8293 12.6105 21.8715C12.3545 21.9137 12.0984 21.9468 11.8459 21.967C11.5935 21.9872 11.3285 22 11.0724 22C10.8164 22 10.5496 21.989 10.2882 21.967C10.0268 21.9449 9.76892 21.9119 9.5075 21.8678C9.24608 21.8238 8.98466 21.7669 8.73578 21.7027C8.4869 21.6384 8.22906 21.5595 7.98555 21.4751C7.88928 21.4409 7.80052 21.3877 7.72433 21.3184C7.64814 21.2492 7.58601 21.1652 7.54149 21.0713C7.49635 20.9779 7.46978 20.8763 7.46333 20.7723C7.45687 20.6683 7.47066 20.564 7.50389 20.4655C7.57084 20.2667 7.71181 20.103 7.89602 20.0103C7.98709 19.9641 8.08624 19.9368 8.18768 19.9302C8.28912 19.9236 8.39083 19.9377 8.4869 19.9718C8.68923 20.0415 8.89872 20.1058 9.11179 20.1553C9.31949 20.2086 9.52899 20.2545 9.73669 20.2893C9.94439 20.3242 10.161 20.3517 10.3831 20.3701C10.6051 20.3885 10.8182 20.3976 11.0456 20.3976C11.273 20.3976 11.486 20.3885 11.6973 20.3701C11.9086 20.3517 12.1306 20.326 12.3348 20.2912H12.3473C12.555 20.2563 12.7645 20.2122 12.9722 20.159C13.1799 20.1058 13.3876 20.0452 13.5881 19.9755L13.615 20.0067Z" fill="#463196"/>
</svg>
