<svg xmlns="http://www.w3.org/2000/svg" width="21.346" height="21.346" viewBox="0 0 21.346 21.346">
  <g id="Group_1328" data-name="Group 1328" opacity="0.98">
    <path id="Path_3" data-name="Path 3" d="M0,0H21.346V21.346H0Z" fill="none"/>
    <path id="Path_4" data-name="Path 4" d="M17.9,5.668h2.668V7.447h-.889v9.784h.889V19.01H1V17.231h.889V7.447H1V5.668H3.668V3.889A.889.889,0,0,1,4.558,3H17.01a.889.889,0,0,1,.889.889Zm0,1.779H3.668v9.784H6.337V11H8.115v6.226H9.894V11h1.779v6.226h1.779V11h1.779v6.226H17.9ZM5.447,4.779v.889H16.12V4.779Z" transform="translate(-0.111 -0.332)" fill="rgba(15,12,26,0.78)"/>
  </g>
</svg>
