<svg width="44" height="44" viewBox="0 0 44 44" fill="none" xmlns="http://www.w3.org/2000/svg">
<ellipse cx="21.5498" cy="21.9999" rx="21.5498" ry="21.7646" fill="#FEDF06"/>
<path d="M28.0531 29.4761C26.5771 27.0087 24.2176 25.4022 21.5497 25.4022C18.8814 25.4022 16.5224 27.0087 15.0459 29.4761" stroke="#3C3C3B" stroke-width="3.69702" stroke-linecap="round" stroke-linejoin="round"/>
<path d="M18.5557 18.8511C18.5557 17.1059 17.3731 15.6917 15.9141 15.6917C14.4551 15.6917 13.2725 17.1059 13.2725 18.8511C13.2725 20.5962 14.4551 22.0105 15.9141 22.0105C17.3731 22.0105 18.5557 20.5962 18.5557 18.8511Z" fill="#3C3C3B"/>
<path d="M12.79 12.9484C12.79 12.9484 14.7684 11.4483 17.3021 11.9985" stroke="#3C3C3B" stroke-width="3.69702" stroke-linecap="round" stroke-linejoin="round"/>
<path d="M24.543 18.8511C24.543 17.1059 25.7256 15.6917 27.1841 15.6917C28.6431 15.6917 29.8257 17.1059 29.8257 18.8511C29.8257 20.5962 28.6431 22.0105 27.1841 22.0105C25.7256 22.0105 24.543 20.5962 24.543 18.8511Z" fill="#3C3C3B"/>
<path d="M30.3085 12.9484C30.3085 12.9484 28.3301 11.4483 25.7969 11.9985" stroke="#3C3C3B" stroke-width="3.69702" stroke-linecap="round" stroke-linejoin="round"/>
<path d="M13.9807 24.8813C13.4402 24.1899 12.7904 22.8829 12.7904 22.8829C12.7904 22.8829 12.1405 24.1899 11.6006 24.8813C10.5731 26.1959 11.503 27.4392 12.7904 27.4392C14.0778 27.4392 15.0081 26.1954 13.9807 24.8813Z" fill="#C4E6F7"/>
</svg>
