<svg width="25" height="22" viewBox="0 0 25 22" fill="none" xmlns="http://www.w3.org/2000/svg">
<path d="M2.44142 16.7696C2.46854 11.4863 2.49499 6.21059 2.52076 0.94251C2.52187 0.772968 2.57541 0.609109 2.67225 0.478894C2.76909 0.348679 2.90322 0.260177 3.05177 0.228491C4.76075 -0.170721 7.45444 -0.070348 9.28346 0.71667C10.5715 1.23817 11.7005 2.15995 12.5387 3.37428C13.4036 2.21808 14.527 1.34029 15.7939 0.83073C17.5212 0.091618 20.1416 -0.0863165 22.0195 0.228491C22.1745 0.252052 22.3167 0.337409 22.4202 0.468944C22.5237 0.600479 22.5815 0.769397 22.583 0.944791V16.8357C22.5827 16.9321 22.5655 17.0274 22.5323 17.1163C22.4991 17.2052 22.4506 17.2858 22.3896 17.3536C22.3285 17.4215 22.2561 17.4751 22.1766 17.5115C22.097 17.5479 22.0118 17.5663 21.9259 17.5657C21.8752 17.5649 21.8247 17.558 21.7753 17.5452C20.1717 17.3119 18.5418 17.4825 17.0044 18.0447C15.8687 18.5194 14.7907 19.1525 13.796 19.929C15.1948 19.4423 16.6528 19.2037 18.1173 19.2219C19.9965 19.2554 21.8667 19.5216 23.6938 20.0157V3.38569H24.3469C24.5201 3.38569 24.6862 3.46284 24.8087 3.60016C24.9312 3.73749 25 3.92375 25 4.11796V20.9738C25 21.168 24.9312 21.3543 24.8087 21.4916C24.6862 21.6289 24.5201 21.7061 24.3469 21.7061C24.2777 21.7055 24.209 21.6924 24.1435 21.6673C22.1753 21.0605 20.1478 20.7287 18.1071 20.6795C16.3037 20.654 14.5164 21.0632 12.8662 21.8795C12.7556 21.9584 12.6271 22.0004 12.4959 22.0004C12.3648 22.0004 12.2363 21.9584 12.1257 21.8795C10.4756 21.063 8.68824 20.6538 6.88478 20.6795C4.84865 20.7315 2.82601 21.0648 0.862643 21.6719C0.797113 21.6969 0.728423 21.71 0.659192 21.7107C0.572573 21.7116 0.486659 21.6931 0.40645 21.6565C0.326241 21.6198 0.253342 21.5656 0.191996 21.497C0.13065 21.4284 0.082083 21.3469 0.0491232 21.257C0.0161635 21.1672 -0.000530648 21.0709 1.28564e-05 20.9738V4.11796C1.28564e-05 3.92375 0.0688189 3.73749 0.191294 3.60016C0.31377 3.46284 0.479882 3.38569 0.653089 3.38569H1.30616V20.0157C3.13328 19.5216 5.00348 19.2554 6.88274 19.2219C8.45269 19.201 10.0146 19.4763 11.5031 20.0362C10.5629 19.1835 9.49131 18.531 8.34148 18.1109C6.91733 17.5862 4.74448 17.4106 3.15553 17.5634C3.06938 17.5728 2.98243 17.5629 2.89972 17.5343C2.81701 17.5057 2.7402 17.4589 2.67376 17.3967C2.60731 17.3345 2.55255 17.2582 2.51267 17.172C2.47278 17.0859 2.44856 16.9917 2.44142 16.895C2.43936 16.8532 2.43936 16.8113 2.44142 16.7696ZM14.9821 14.6914C14.9308 14.7342 14.8722 14.7648 14.8099 14.7813C14.7476 14.7978 14.683 14.7997 14.62 14.7871C14.557 14.7744 14.497 14.7474 14.4437 14.7077C14.3904 14.668 14.3449 14.6165 14.3101 14.5564C14.2753 14.4962 14.2518 14.4286 14.2411 14.3579C14.2305 14.2871 14.2329 14.2147 14.2482 14.1451C14.2635 14.0754 14.2914 14.01 14.3302 13.9529C14.3689 13.8958 14.4177 13.8482 14.4735 13.8131C15.2241 13.2905 16.0308 12.8766 16.8742 12.5812C17.73 12.2564 18.6184 12.0519 19.519 11.9722C19.5802 11.9684 19.6415 11.9782 19.6993 12.001C19.7571 12.0238 19.8103 12.0591 19.8559 12.105C19.9016 12.1509 19.9387 12.2064 19.9652 12.2683C19.9917 12.3303 20.007 12.3974 20.0104 12.466C20.0137 12.5347 20.005 12.6033 19.9846 12.6681C19.9643 12.7329 19.9328 12.7926 19.8919 12.8438C19.851 12.8949 19.8015 12.9366 19.7463 12.9663C19.691 12.996 19.6311 13.0132 19.5699 13.017C18.7529 13.0937 17.9474 13.2821 17.1712 13.5781C16.4025 13.8439 15.6669 14.2179 14.9821 14.6914ZM15.0228 10.6399C14.9184 10.7144 14.7919 10.7392 14.6711 10.7091C14.5504 10.6789 14.4452 10.5962 14.3789 10.4791C14.3125 10.362 14.2903 10.2202 14.3172 10.0848C14.3441 9.9494 14.4179 9.83153 14.5223 9.75711C15.2714 9.24612 16.0736 8.84008 16.9108 8.54807C17.7528 8.23202 18.6259 8.03133 19.5109 7.95039C19.632 7.94806 19.7491 7.99845 19.8378 8.09096C19.9264 8.18346 19.9796 8.31089 19.9862 8.44646C19.9928 8.58202 19.9522 8.71517 19.8731 8.81793C19.7939 8.92068 19.6823 8.98503 19.5618 8.99747C18.7563 9.0724 17.9618 9.25623 17.1956 9.54496C16.4342 9.80916 15.7045 10.1769 15.0228 10.6399ZM15.035 6.60219C14.983 6.63904 14.9251 6.66405 14.8645 6.6758C14.8039 6.68754 14.7419 6.68579 14.6819 6.67065C14.6219 6.6555 14.5652 6.62725 14.5149 6.58752C14.4647 6.54779 14.4219 6.49735 14.389 6.43909C14.3562 6.38082 14.3339 6.31587 14.3234 6.24793C14.3129 6.18 14.3145 6.11042 14.328 6.04317C14.3415 5.97591 14.3667 5.91229 14.4021 5.85595C14.4376 5.79961 14.4825 5.75165 14.5345 5.7148C15.2825 5.20618 16.0833 4.80243 16.919 4.51261C17.7583 4.19793 18.6287 3.99877 19.5109 3.91949C19.5721 3.91575 19.6333 3.92555 19.6911 3.94834C19.7489 3.97114 19.8022 4.00647 19.8478 4.05233C19.8934 4.09819 19.9305 4.15368 19.957 4.21563C19.9835 4.27758 19.9989 4.34477 20.0022 4.41337C20.0056 4.48197 19.9968 4.55064 19.9765 4.61546C19.9562 4.68027 19.9247 4.73996 19.8838 4.79112C19.8429 4.84227 19.7934 4.8839 19.7381 4.91361C19.6829 4.94332 19.623 4.96054 19.5618 4.96428C18.7591 5.03931 17.9674 5.22237 17.2038 5.50949C16.4438 5.77313 15.7154 6.14009 15.035 6.60219ZM10.5265 13.8131C10.5823 13.8482 10.6311 13.8958 10.6699 13.9529C10.7086 14.01 10.7365 14.0754 10.7518 14.1451C10.7671 14.2147 10.7695 14.2871 10.7589 14.3579C10.7482 14.4286 10.7248 14.4962 10.6899 14.5564C10.6551 14.6165 10.6096 14.668 10.5563 14.7077C10.503 14.7474 10.443 14.7744 10.38 14.7871C10.317 14.7997 10.2524 14.7978 10.1901 14.7813C10.1278 14.7648 10.0692 14.7342 10.0179 14.6914C9.3357 14.2186 8.60289 13.8446 7.83692 13.5781C7.06076 13.2821 6.25522 13.0937 5.43824 13.017C5.37706 13.0129 5.31719 12.9954 5.26204 12.9654C5.2069 12.9354 5.15756 12.8935 5.11685 12.8422C5.07613 12.7908 5.04484 12.731 5.02476 12.666C5.00468 12.6011 4.9962 12.5324 4.99981 12.4638C5.00341 12.3952 5.01904 12.328 5.04578 12.2662C5.07253 12.2044 5.10987 12.149 5.15569 12.1034C5.2015 12.0577 5.25488 12.0227 5.31279 12.0001C5.3707 11.9776 5.43199 11.9681 5.49317 11.9722C6.39385 12.0519 7.28225 12.2564 8.13803 12.5812C8.98142 12.8766 9.78807 13.2905 10.5387 13.8131H10.5265ZM10.4777 9.75711C10.5821 9.83274 10.6555 9.95177 10.6816 10.088C10.7077 10.2243 10.6845 10.3666 10.6171 10.4837C10.5496 10.6007 10.4435 10.683 10.3219 10.7123C10.2004 10.7416 10.0735 10.7156 9.96908 10.6399C9.28737 10.1769 8.55766 9.80916 7.79623 9.54496C7.03008 9.25623 6.23561 9.0724 5.4301 8.99747C5.30627 8.98809 5.19083 8.92394 5.10918 8.81912C5.02753 8.71431 4.98636 8.57742 4.99472 8.43857C5.00308 8.29972 5.0603 8.17028 5.15378 8.07873C5.24725 7.98718 5.36934 7.94101 5.49317 7.95039C6.3782 8.03133 7.25124 8.23202 8.09327 8.54807C8.93053 8.84008 9.73269 9.24612 10.4818 9.75711H10.4777ZM10.4655 5.7148C10.5215 5.74915 10.5705 5.79596 10.6098 5.85236C10.649 5.90875 10.6775 5.97355 10.6936 6.04276C10.7097 6.11197 10.713 6.18414 10.7033 6.25482C10.6936 6.32551 10.6711 6.39323 10.6372 6.45382C10.6033 6.5144 10.5587 6.56658 10.5062 6.60715C10.4536 6.64771 10.3943 6.6758 10.3317 6.6897C10.2691 6.7036 10.2047 6.703 10.1423 6.68795C10.08 6.67291 10.021 6.64372 9.96908 6.60219C9.28863 6.14009 8.56029 5.77313 7.8003 5.50949C7.03665 5.22237 6.24497 5.03931 5.44231 4.96428C5.38113 4.96054 5.3212 4.94332 5.26595 4.91361C5.21071 4.8839 5.16122 4.84227 5.12032 4.79112C5.07942 4.73996 5.0479 4.68027 5.02757 4.61546C5.00725 4.55064 4.9985 4.48197 5.00184 4.41337C5.00518 4.34477 5.02054 4.27758 5.04704 4.21563C5.07354 4.15368 5.11066 4.09819 5.15628 4.05233C5.20191 4.00647 5.25514 3.97114 5.31295 3.94834C5.37075 3.92555 5.43199 3.91575 5.49317 3.91949C6.37539 3.99877 7.24576 4.19793 8.08513 4.51261C8.92082 4.80243 9.72162 5.20618 10.4696 5.7148H10.4655ZM21.2728 1.59722C19.7632 1.43753 17.5985 1.62459 16.2415 2.20174C14.98 2.69758 13.8985 3.64408 13.1633 4.89585V18.6424C14.2205 17.8299 15.363 17.1664 16.5649 16.6669C18.0841 16.1213 19.6808 15.8993 21.2728 16.0122V1.59722ZM11.8571 18.501V4.87532C11.1735 3.52256 10.0688 2.6192 8.81959 2.08312C7.39544 1.47403 5.20834 1.33716 3.82285 1.55844L3.7496 16.0578C5.26124 15.9962 7.34864 16.2129 8.73821 16.7216C9.85471 17.1275 10.9072 17.7279 11.8571 18.501Z" fill="#463196"/>
</svg>
