<svg width="24" height="24" viewBox="0 0 24 24" fill="none" xmlns="http://www.w3.org/2000/svg">
<g clip-path="url(#clip0_1_3)">
<path d="M20 7.4V17.9C20 19.6 18.7 20.9 17 20.9H5.9C5.9 22 6.8 22.9 7.9 22.9H18C20.2 22.9 22 21.1 22 18.9V9.4C22 8.3 21.1 7.4 20 7.4Z" fill="#C8C1DF"/>
<path d="M5 1.1V3.1H4C2.9 3.1 2 4 2 5.1V17.1C2 18.2 2.9 19.1 4 19.1H16.2C17.3 19.1 18.2 18.2 18.2 17.1V5.1C18.2 4 17.3 3.1 16.2 3.1H15.2V1.1H13.2V3.1H7V1.1H5ZM4 8.1H16.2V17.1H4V8.1Z" fill="#C8C1DF"/>
<path d="M13.7 16.3L11.3 14.9L9 16.3L9.6 13.6L7.5 11.8L10.3 11.6L11.4 9L12.5 11.5L15.3 11.8L13.2 13.6L13.7 16.3Z" fill="#C8C1DF"/>
</g>
<defs>
<clipPath id="clip0_1_3">
<rect width="24" height="24" fill="white"/>
</clipPath>
</defs>
</svg>
