<svg width="24" height="24" viewBox="0 0 24 24" fill="none" xmlns="http://www.w3.org/2000/svg">
<path d="M11.5 12.237C14.5376 12.237 17 9.77457 17 6.737C17 3.69943 14.5376 1.237 11.5 1.237C8.46243 1.237 6 3.69943 6 6.737C6 9.77457 8.46243 12.237 11.5 12.237Z" fill="#C8C1DF"/>
<path fill-rule="evenodd" clip-rule="evenodd" d="M11.75 14.991C11.75 14.994 11.75 14.997 11.75 15C11.75 16.518 12.982 17.75 14.5 17.75H20C21.518 17.75 22.75 16.518 22.75 15C22.75 14.997 22.75 14.994 22.75 14.991C22.738 14.038 21.958 13.25 21 13.25H13.5C12.542 13.25 11.762 14.038 11.75 14.991Z" fill="#C8C1DF"/>
<path fill-rule="evenodd" clip-rule="evenodd" d="M11.75 17.549V20C11.75 20.966 12.532 21.75 13.5 21.75H21C21.968 21.75 22.75 20.966 22.75 20V17.549C22.065 18.288 21.086 18.75 20 18.75H14.5C13.414 18.75 12.435 18.288 11.75 17.549Z" fill="#C8C1DF"/>
<path fill-rule="evenodd" clip-rule="evenodd" d="M11.512 13.1H11.5C8.178 13.1 5.237 13.931 3.411 15.176C2.018 16.126 1.25 17.333 1.25 18.6V20.05C1.25 20.501 1.429 20.933 1.748 21.252C2.067 21.571 2.499 21.75 2.95 21.75H11.378C10.986 21.274 10.75 20.665 10.75 20V15C10.75 14.263 11.04 13.594 11.512 13.1Z" fill="#C8C1DF"/>
<path fill-rule="evenodd" clip-rule="evenodd" d="M19.25 14.75C19.664 14.75 20 14.414 20 14V13C20 12.034 19.218 11.25 18.25 11.25H16.25C15.282 11.25 14.5 12.034 14.5 13V14C14.5 14.414 14.836 14.75 15.25 14.75H19.25ZM18.5 13.25H16V13C16 12.862 16.112 12.75 16.25 12.75H18.25C18.388 12.75 18.5 12.862 18.5 13V13.25Z" fill="#C8C1DF"/>
</svg>
