<svg width="25" height="25" viewBox="0 0 25 25" fill="none" xmlns="http://www.w3.org/2000/svg">
<path d="M19.1172 8.20312C19.0211 9.06225 18.6119 9.85586 17.9677 10.4323C17.3235 11.0088 16.4895 11.3277 15.625 11.3281H14.4766C14.5726 10.469 14.9818 9.67539 15.626 9.09891C16.2703 8.52244 17.1043 8.20354 17.9687 8.20312H19.1172Z" fill="#C8C1DF"/>
<path d="M19.1172 8.20312C19.0211 9.06225 18.6119 9.85586 17.9677 10.4323C17.3235 11.0088 16.4895 11.3277 15.625 11.3281H14.4766C14.5726 10.469 14.9818 9.67539 15.626 9.09891C16.2703 8.52244 17.1043 8.20354 17.9687 8.20312H19.1172Z" fill="#C8C1DF"/>
<path d="M10.5234 11.3281H9.375C8.51052 11.3277 7.6765 11.0088 7.0323 10.4323C6.38809 9.85586 5.97887 9.06225 5.88281 8.20312H7.03125C7.89573 8.20354 8.72975 8.52244 9.37395 9.09891C10.0182 9.67539 10.4274 10.469 10.5234 11.3281Z" fill="#C8C1DF"/>
<path d="M10.5234 11.3281H9.375C8.51052 11.3277 7.6765 11.0088 7.0323 10.4323C6.38809 9.85586 5.97887 9.06225 5.88281 8.20312H7.03125C7.89573 8.20354 8.72975 8.52244 9.37395 9.09891C10.0182 9.67539 10.4274 10.469 10.5234 11.3281Z" fill="#C8C1DF"/>
<path d="M9.375 11.3281C8.51052 11.3277 7.6765 11.0088 7.0323 10.4323C6.38809 9.85586 5.97887 9.06225 5.88281 8.20312H7.03125C7.89573 8.20354 8.72975 8.52244 9.37395 9.09891C10.0182 9.67539 10.4274 10.469 10.5234 11.3281H9.375Z" fill="#C8C1DF"/>
<path d="M17.9688 8.20312C17.1043 8.20354 16.2703 8.52244 15.626 9.09891C14.9818 9.67539 14.5726 10.469 14.4766 11.3281H15.625C16.4895 11.3277 17.3235 11.0088 17.9677 10.4323C18.6119 9.85586 19.0211 9.06225 19.1172 8.20312H17.9688ZM17.9688 8.20312C17.1043 8.20354 16.2703 8.52244 15.626 9.09891C14.9818 9.67539 14.5726 10.469 14.4766 11.3281H15.625C16.4895 11.3277 17.3235 11.0088 17.9677 10.4323C18.6119 9.85586 19.0211 9.06225 19.1172 8.20312H17.9688ZM16.1367 5.85938C16.0255 5.8594 15.9154 5.88151 15.8128 5.92443C15.7102 5.96734 15.6172 6.03021 15.5391 6.10938C15.14 6.50859 14.6663 6.82528 14.1448 7.04134C13.6234 7.2574 13.0644 7.36861 12.5 7.36861C11.9356 7.36861 11.3766 7.2574 10.8552 7.04134C10.3337 6.82528 9.85997 6.50859 9.46094 6.10938C9.38283 6.03021 9.28978 5.96734 9.18719 5.92443C9.08459 5.88151 8.97449 5.8594 8.86328 5.85938H2.34375V8.59375C2.34375 9.94055 2.87877 11.2322 3.8311 12.1845C4.78343 13.1369 6.07507 13.6719 7.42188 13.6719H17.5781C18.1936 13.6721 18.804 13.5596 19.3789 13.3398C19.6513 13.2351 19.9129 13.1042 20.1602 12.9492L20.3594 12.8242C20.4258 12.7813 20.4883 12.7344 20.5508 12.6875C20.6133 12.6406 20.7227 12.5586 20.8047 12.4883C21.3818 12.0162 21.8472 11.4221 22.1674 10.7487C22.4875 10.0753 22.6545 9.33937 22.6562 8.59375V5.85938H16.1367ZM10.9375 12.1094H9.375C8.2354 12.1094 7.14247 11.6567 6.33665 10.8508C5.53083 10.045 5.07813 8.9521 5.07812 7.8125C5.07812 7.7089 5.11928 7.60954 5.19254 7.53629C5.26579 7.46303 5.36515 7.42188 5.46875 7.42188H7.03125C8.17085 7.42188 9.26378 7.87458 10.0696 8.6804C10.8754 9.48622 11.3281 10.5791 11.3281 11.7188C11.3281 11.8224 11.287 11.9217 11.2137 11.995C11.1405 12.0682 11.0411 12.1094 10.9375 12.1094ZM15.625 12.1094H14.0625C13.9589 12.1094 13.8595 12.0682 13.7863 11.995C13.713 11.9217 13.6719 11.8224 13.6719 11.7188C13.6719 10.5791 14.1246 9.48622 14.9304 8.6804C15.7362 7.87458 16.8291 7.42188 17.9688 7.42188H19.5312C19.6349 7.42188 19.7342 7.46303 19.8075 7.53629C19.8807 7.60954 19.9219 7.7089 19.9219 7.8125C19.9219 8.9521 19.4692 10.045 18.6633 10.8508C17.8575 11.6567 16.7646 12.1094 15.625 12.1094ZM14.4766 11.3281H15.625C16.4895 11.3277 17.3235 11.0088 17.9677 10.4323C18.6119 9.85586 19.0211 9.06225 19.1172 8.20312H17.9688C17.1043 8.20354 16.2703 8.52244 15.626 9.09891C14.9818 9.67539 14.5726 10.469 14.4766 11.3281ZM17.9688 8.20312C17.1043 8.20354 16.2703 8.52244 15.626 9.09891C14.9818 9.67539 14.5726 10.469 14.4766 11.3281H15.625C16.4895 11.3277 17.3235 11.0088 17.9677 10.4323C18.6119 9.85586 19.0211 9.06225 19.1172 8.20312H17.9688ZM17.9688 8.20312C17.1043 8.20354 16.2703 8.52244 15.626 9.09891C14.9818 9.67539 14.5726 10.469 14.4766 11.3281H15.625C16.4895 11.3277 17.3235 11.0088 17.9677 10.4323C18.6119 9.85586 19.0211 9.06225 19.1172 8.20312H17.9688Z" fill="#C8C1DF"/>
<path d="M10.5234 11.3281H9.375C8.51052 11.3277 7.6765 11.0088 7.0323 10.4323C6.38809 9.85586 5.97887 9.06225 5.88281 8.20312H7.03125C7.89573 8.20354 8.72975 8.52244 9.37395 9.09891C10.0182 9.67539 10.4274 10.469 10.5234 11.3281Z" fill="#C8C1DF"/>
<path d="M17.9688 8.20312C17.1043 8.20354 16.2703 8.52244 15.626 9.09891C14.9818 9.67539 14.5726 10.469 14.4766 11.3281H15.625C16.4895 11.3277 17.3235 11.0088 17.9677 10.4323C18.6119 9.85586 19.0211 9.06225 19.1172 8.20312H17.9688ZM17.9688 8.20312C17.1043 8.20354 16.2703 8.52244 15.626 9.09891C14.9818 9.67539 14.5726 10.469 14.4766 11.3281H15.625C16.4895 11.3277 17.3235 11.0088 17.9677 10.4323C18.6119 9.85586 19.0211 9.06225 19.1172 8.20312H17.9688ZM16.1367 5.85938C16.0255 5.8594 15.9154 5.88151 15.8128 5.92443C15.7102 5.96734 15.6172 6.03021 15.5391 6.10938C15.14 6.50859 14.6663 6.82528 14.1448 7.04134C13.6234 7.2574 13.0644 7.36861 12.5 7.36861C11.9356 7.36861 11.3766 7.2574 10.8552 7.04134C10.3337 6.82528 9.85997 6.50859 9.46094 6.10938C9.38283 6.03021 9.28978 5.96734 9.18719 5.92443C9.08459 5.88151 8.97449 5.8594 8.86328 5.85938H2.34375V8.59375C2.34375 9.94055 2.87877 11.2322 3.8311 12.1845C4.78343 13.1369 6.07507 13.6719 7.42188 13.6719H17.5781C18.1936 13.6721 18.804 13.5596 19.3789 13.3398C19.6513 13.2351 19.9129 13.1042 20.1602 12.9492L20.3594 12.8242C20.4258 12.7813 20.4883 12.7344 20.5508 12.6875C20.6133 12.6406 20.7227 12.5586 20.8047 12.4883C21.3818 12.0162 21.8472 11.4221 22.1674 10.7487C22.4875 10.0753 22.6545 9.33937 22.6562 8.59375V5.85938H16.1367ZM10.9375 12.1094H9.375C8.2354 12.1094 7.14247 11.6567 6.33665 10.8508C5.53083 10.045 5.07813 8.9521 5.07812 7.8125C5.07812 7.7089 5.11928 7.60954 5.19254 7.53629C5.26579 7.46303 5.36515 7.42188 5.46875 7.42188H7.03125C8.17085 7.42188 9.26378 7.87458 10.0696 8.6804C10.8754 9.48622 11.3281 10.5791 11.3281 11.7188C11.3281 11.8224 11.287 11.9217 11.2137 11.995C11.1405 12.0682 11.0411 12.1094 10.9375 12.1094ZM15.625 12.1094H14.0625C13.9589 12.1094 13.8595 12.0682 13.7863 11.995C13.713 11.9217 13.6719 11.8224 13.6719 11.7188C13.6719 10.5791 14.1246 9.48622 14.9304 8.6804C15.7362 7.87458 16.8291 7.42188 17.9688 7.42188H19.5312C19.6349 7.42188 19.7342 7.46303 19.8075 7.53629C19.8807 7.60954 19.9219 7.7089 19.9219 7.8125C19.9219 8.9521 19.4692 10.045 18.6633 10.8508C17.8575 11.6567 16.7646 12.1094 15.625 12.1094ZM14.4766 11.3281H15.625C16.4895 11.3277 17.3235 11.0088 17.9677 10.4323C18.6119 9.85586 19.0211 9.06225 19.1172 8.20312H17.9688C17.1043 8.20354 16.2703 8.52244 15.626 9.09891C14.9818 9.67539 14.5726 10.469 14.4766 11.3281ZM17.9688 8.20312C17.1043 8.20354 16.2703 8.52244 15.626 9.09891C14.9818 9.67539 14.5726 10.469 14.4766 11.3281H15.625C16.4895 11.3277 17.3235 11.0088 17.9677 10.4323C18.6119 9.85586 19.0211 9.06225 19.1172 8.20312H17.9688ZM17.9688 8.20312C17.1043 8.20354 16.2703 8.52244 15.626 9.09891C14.9818 9.67539 14.5726 10.469 14.4766 11.3281H15.625C16.4895 11.3277 17.3235 11.0088 17.9677 10.4323C18.6119 9.85586 19.0211 9.06225 19.1172 8.20312H17.9688Z" fill="#C8C1DF"/>
<path d="M20.7031 13.5508V23.0469H19.9219V13.9648C20.1922 13.8463 20.4533 13.7079 20.7031 13.5508Z" fill="#C8C1DF"/>
<path d="M20.7031 13.5508V23.0469H19.9219V13.9648C20.1922 13.8463 20.4533 13.7079 20.7031 13.5508Z" fill="#C8C1DF"/>
</svg>
