<svg width="13" height="12" viewBox="0 0 13 12" fill="none" xmlns="http://www.w3.org/2000/svg">
<path d="M3.00897 0.00292969C4.67161 0.00292969 6.08223 0.860369 6.08223 2.523V3.01473V11.7397C6.08223 11.8073 5.98696 11.8227 5.96545 11.7612C5.96545 11.7612 5.96545 11.7612 5.96545 11.7582C5.6489 10.7071 4.79146 9.68063 3.43616 9.5915C2.3851 9.52389 1.38014 9.98796 0.574949 10.7317C0.525777 10.7778 0.442799 10.8208 0.372114 10.8208H0.233817C0.120106 10.8208 0.000249381 10.7378 0.000249381 10.6333V1.72703C-0.00282407 0.740512 1.34634 0.00292969 3.00897 0.00292969Z" fill="#C8C1DF"/>
<path d="M9.77004 0C8.1074 0 6.69678 0.85744 6.69678 2.52007V3.0118V11.7368C6.69678 11.8044 6.79205 11.8198 6.81356 11.7583C6.81356 11.7583 6.81356 11.7583 6.81356 11.7552C7.13011 10.7042 8.02443 9.66848 9.34286 9.58857C10.354 9.52711 11.3067 9.92663 12.2041 10.7288C12.2532 10.7718 12.3362 10.8179 12.4069 10.8179H12.5452C12.6589 10.8179 12.7788 10.7349 12.7788 10.6304V1.72103C12.7818 0.737582 11.4327 0 9.77004 0Z" fill="#C8C1DF"/>
</svg>
