<svg width="22" height="20" viewBox="0 0 22 20" fill="none" xmlns="http://www.w3.org/2000/svg">
<path d="M1.79611 13.9315C1.77876 13.9151 1.76158 13.8985 1.74461 13.8815C1.25629 13.3932 0.987348 12.7439 0.987348 12.0533V0.705131C0.987348 0.448346 1.05666 0.207591 1.17708 0H0.705131C0.315687 0 0 0.315687 0 0.705131V12.0533C0 13.0636 0.796751 13.8875 1.79611 13.9315Z" fill="#C8C1DF"/>
<path d="M10.9633 2.48996C10.0746 2.48996 9.50516 3.25787 9.50516 4.51764C9.50516 5.786 10.0746 6.59707 10.9633 6.59707C11.852 6.59707 12.4216 5.786 12.4216 4.51764C12.4216 3.25787 11.8521 2.48996 10.9633 2.48996Z" fill="#C8C1DF"/>
<path d="M15.5882 6.23343C15.9806 6.30444 16.3639 6.41782 16.735 6.57288C17.3741 6.50303 17.728 6.19571 17.728 5.63929C17.728 5.05257 17.2793 4.77644 16.4338 4.77644H15.5882V6.23343Z" fill="#C8C1DF"/>
<path d="M17.426 3.23199C17.426 2.71429 17.055 2.49859 16.3216 2.49859H15.5882V4.06031H16.3044C17.0895 4.06031 17.426 3.75833 17.426 3.23199Z" fill="#C8C1DF"/>
<path d="M3.57282 13.9336H9.48723C9.47891 13.9146 9.47035 13.8957 9.46224 13.8765C9.18701 13.2258 9.0406 12.537 9.026 11.8274H4.36546C4.17075 11.8274 4.0129 11.6695 4.0129 11.4748C4.0129 11.2801 4.17075 11.1223 4.36546 11.1223H9.05536C9.10716 10.6268 9.22466 10.1435 9.40706 9.67887H4.36546C4.17075 9.67887 4.0129 9.52103 4.0129 9.3263C4.0129 9.13157 4.17075 8.97373 4.36546 8.97373H9.74256C9.98971 8.53604 10.2949 8.13421 10.6548 7.77431C10.7617 7.66734 10.8726 7.56547 10.9868 7.46823C10.979 7.4683 10.9712 7.46852 10.9633 7.46852C9.49651 7.46852 8.47833 6.34679 8.47833 4.51761C8.47833 2.69701 9.49647 1.61849 10.9633 1.61849C12.4387 1.61849 13.4569 2.69703 13.4569 4.51761C13.4569 5.26648 13.2861 5.89668 12.9833 6.37996C13.5009 6.22382 14.0381 6.14449 14.5873 6.14423V1.72202H16.3906C17.5555 1.72202 18.4096 2.07579 18.4096 3.11118C18.4096 3.64614 18.099 4.16385 17.4432 4.33642V4.37092C18.2543 4.50899 18.703 4.94903 18.703 5.7083C18.703 6.41524 18.3419 6.88594 17.7673 7.13936C18.0369 7.32709 18.2904 7.53891 18.5258 7.77433C18.9953 8.24383 19.3719 8.78464 19.6475 9.38356C19.6718 9.43639 19.6956 9.48951 19.7183 9.54322C20.0087 10.2299 20.156 10.9588 20.156 11.7099C20.156 12.4609 20.0087 13.1899 19.7183 13.8765C19.7125 13.8904 19.7062 13.904 19.7003 13.9178C20.625 13.7995 21.3399 13.0102 21.3399 12.0533V0.705131C21.3399 0.315687 21.0243 0 20.6348 0H18.9424H2.39761C2.00819 0 1.69247 0.315687 1.69247 0.705131V12.0533C1.69247 13.0918 2.53435 13.9336 3.57282 13.9336ZM4.69055 6.0017C4.9149 6.41587 5.22551 6.59707 5.57065 6.59707C6.09698 6.59707 6.36446 6.31233 6.36446 5.5099V1.72202H7.36535V5.59616C7.36535 6.62295 6.86489 7.46852 5.68284 7.46852C4.89765 7.46852 4.35406 7.14063 4.0003 6.51078L4.69055 6.0017Z" fill="#C8C1DF"/>
<path d="M18.5259 15.6455C18.2492 15.9222 17.9475 16.1664 17.624 16.377L20.0282 18.7813C20.2538 19.0069 20.5494 19.1197 20.8449 19.1197C21.1406 19.1197 21.4361 19.0069 21.6617 18.7813C22.1127 18.3303 22.1127 17.5989 21.6617 17.1478L19.2574 14.7435C19.0469 15.0671 18.8026 15.3687 18.5259 15.6455Z" fill="#C8C1DF"/>
<path d="M10.1734 9.67889C9.96686 10.1274 9.82661 10.6127 9.76519 11.1223C9.74199 11.3149 9.72972 11.5109 9.72972 11.7099C9.72972 11.7492 9.73028 11.7884 9.7312 11.8274C9.74918 12.5851 9.94058 13.2999 10.2672 13.9336C10.3294 14.0542 10.3966 14.1717 10.4683 14.2862C10.5442 14.4074 10.6252 14.525 10.7112 14.6387C11.5985 15.8121 13.0058 16.5705 14.5903 16.5705C15.5139 16.5705 16.3772 16.3129 17.1126 15.8656C17.6388 15.5456 18.0993 15.1282 18.4694 14.6388C18.5554 14.5251 18.6364 14.4074 18.7123 14.2862C18.7236 14.2682 18.735 14.2503 18.7461 14.2321C18.8053 14.1348 18.8611 14.0352 18.9134 13.9337C19.0214 13.7242 19.1145 13.5059 19.1916 13.2801C19.3596 12.7875 19.4509 12.2594 19.4509 11.7099C19.4509 9.80485 18.3548 8.15611 16.7591 7.35912C16.1062 7.03305 15.3698 6.84931 14.5904 6.84931C14.5893 6.84931 14.5883 6.84936 14.5873 6.84936C12.9189 6.85037 11.4473 7.69209 10.5728 8.97376C10.4209 9.19625 10.2871 9.43202 10.1734 9.67889Z" fill="#C8C1DF"/>
</svg>
