<svg width="21" height="21" viewBox="0 0 21 21" fill="none" xmlns="http://www.w3.org/2000/svg">
<path d="M9.4583 1.125C9.4583 0.84874 9.3486 0.58378 9.1532 0.38843C8.9579 0.19308 8.6929 0.0833397 8.4167 0.0833397H1.125C0.848744 0.0833397 0.583784 0.19308 0.388434 0.38843C0.193084 0.58378 0.0833435 0.84874 0.0833435 1.125V20.9167H9.4583V1.125ZM7.375 16.75H2.16667V14.6667H7.375V16.75ZM7.375 12.5833H2.16667V10.5H7.375V12.5833ZM7.375 8.4167H2.16667V6.33334H7.375V8.4167ZM7.375 4.25H2.16667V2.16667H7.375V4.25ZM19.875 6.33334H12.5833C12.3071 6.33334 12.0421 6.44308 11.8468 6.63843C11.6514 6.83378 11.5417 7.09874 11.5417 7.375V20.9167H20.9167V7.375C20.9167 7.09874 20.8069 6.83378 20.6116 6.63843C20.4162 6.44308 20.1513 6.33334 19.875 6.33334ZM15.7083 18.8333H13.625V16.75H15.7083V18.8333ZM15.7083 14.6667H13.625V12.5833H15.7083V14.6667ZM15.7083 10.5H13.625V8.4167H15.7083V10.5ZM18.8333 18.8333H16.75V16.75H18.8333V18.8333ZM18.8333 14.6667H16.75V12.5833H18.8333V14.6667ZM18.8333 10.5H16.75V8.4167H18.8333V10.5Z" fill="#C8C1DF"/>
</svg>
