<svg width="13" height="15" viewBox="0 0 13 15" fill="none" xmlns="http://www.w3.org/2000/svg">
<path d="M7.28099 13.47H2.821C2.5799 13.4692 2.34889 13.3731 2.17841 13.2026C2.00792 13.0321 1.91179 12.8011 1.911 12.56V2.82C1.91179 2.5789 2.00792 2.34789 2.17841 2.17741C2.34889 2.00692 2.5799 1.91079 2.821 1.91H7.28099C7.40166 1.91 7.51741 1.86206 7.60274 1.77673C7.68807 1.6914 7.73599 1.57568 7.73599 1.455C7.73599 1.33433 7.68807 1.21859 7.60274 1.13326C7.51741 1.04793 7.40166 1 7.28099 1H2.821C2.33845 1.00132 1.87602 1.19359 1.53481 1.53481C1.19359 1.87603 1.00132 2.33845 1 2.821V12.561C1.00132 13.0436 1.19359 13.506 1.53481 13.8472C1.87602 14.1884 2.33845 14.3807 2.821 14.382H7.28099C7.40166 14.382 7.51741 14.3341 7.60274 14.2487C7.68807 14.1634 7.73599 14.0477 7.73599 13.927C7.73599 13.8063 7.68807 13.6906 7.60274 13.6053C7.51741 13.5199 7.40166 13.472 7.28099 13.472V13.47Z" fill="#463196" stroke="#463196" stroke-width="0.5"/>
<path d="M12.582 7.62199C12.582 7.59899 12.582 7.59899 12.559 7.57599C12.559 7.55299 12.559 7.53 12.536 7.53C12.513 7.53 12.536 7.50699 12.513 7.48399C12.513 7.46099 12.513 7.461 12.49 7.461V7.41499L9.577 4.252C9.48965 4.16658 9.37356 4.11686 9.25146 4.11261C9.12937 4.10836 9.01007 4.14985 8.91699 4.22899C8.83186 4.31177 8.78193 4.42421 8.77765 4.54288C8.77336 4.66155 8.81504 4.77729 8.89398 4.866L11.101 7.233H4.80099C4.68032 7.233 4.56458 7.28093 4.47925 7.36626C4.39392 7.45159 4.34601 7.56731 4.34601 7.68799C4.34601 7.80866 4.39392 7.92441 4.47925 8.00974C4.56458 8.09506 4.68032 8.14299 4.80099 8.14299H11.101L8.89398 10.51C8.81504 10.5987 8.77336 10.7144 8.77765 10.8331C8.78193 10.9518 8.83186 11.0642 8.91699 11.147C8.95841 11.1899 9.00794 11.2241 9.06271 11.2476C9.11748 11.2711 9.17639 11.2835 9.23599 11.284C9.30057 11.2816 9.36401 11.2663 9.42258 11.239C9.48114 11.2117 9.53365 11.1729 9.577 11.125L12.467 8.00699V7.961C12.49 7.961 12.49 7.96099 12.49 7.93799C12.536 7.91499 12.536 7.915 12.536 7.892C12.559 7.892 12.559 7.86899 12.559 7.84599C12.582 7.82299 12.582 7.82299 12.582 7.79999C12.582 7.77699 12.605 7.732 12.605 7.709C12.605 7.686 12.583 7.641 12.583 7.618L12.582 7.62199Z" fill="#463196" stroke="#463196" stroke-width="0.5"/>
</svg>
