<svg width="655" height="364" viewBox="0 0 655 364" fill="none" xmlns="http://www.w3.org/2000/svg">
<path d="M29.7199 326L199.241 325.12L244.428 325.106L259.399 325.101L304.671 325.088L511.507 325.031C511.507 325.031 558.816 264.366 508.281 206.747C455.886 147.008 430.409 195.66 414.304 111.569C373.764 -100.099 -27.0465 23.097 78.0831 203.218C115.937 268.074 3.57119 233.602 29.7199 326Z" fill="#EBF3FA"/>
<path d="M185.675 281.825L184.758 281.323C183.78 280.787 183.42 279.555 183.956 278.577L188.167 270.885C188.703 269.907 189.935 269.547 190.913 270.082L192.226 270.801C192.418 270.906 192.488 271.147 192.383 271.339C192.278 271.531 192.038 271.601 191.846 271.496L190.533 270.777C189.938 270.451 189.188 270.67 188.862 271.266L184.65 278.957C184.324 279.552 184.543 280.302 185.139 280.628L186.056 281.13C186.651 281.456 187.401 281.237 187.727 280.642L190.523 275.536C190.628 275.344 190.868 275.274 191.06 275.379C191.252 275.484 191.322 275.725 191.217 275.916L188.422 281.022C187.886 282.001 186.654 282.361 185.675 281.825Z" fill="#AFCDFB"/>
<path d="M181.767 289.901L180.124 289.001C178.599 288.166 178.086 286.156 178.981 284.522L185.312 272.959C185.417 272.767 185.658 272.697 185.849 272.802C186.041 272.907 186.112 273.147 186.007 273.339L179.675 284.902C178.99 286.154 179.362 287.681 180.504 288.307L182.148 289.207C183.29 289.833 184.778 289.323 185.463 288.072L192.675 274.901C193.36 273.649 192.988 272.122 191.846 271.496C191.654 271.391 191.584 271.15 191.689 270.958C191.794 270.767 192.034 270.696 192.226 270.801C193.752 271.637 194.265 273.646 193.37 275.281L186.158 288.452C185.262 290.086 183.293 290.737 181.767 289.901Z" fill="#AFCDFB"/>
<path opacity="0.6" d="M129.383 99.6732C129.383 73.2332 150.817 51.7993 177.257 51.7993H301.17C327.61 51.7993 349.044 73.2335 349.044 99.6738V191.176C349.044 217.616 327.61 239.05 301.17 239.05H177.257C150.817 239.05 129.383 217.616 129.383 191.176V99.6732Z" fill="white"/>
<path d="M129.383 72.5772C129.383 61.1019 138.686 51.7993 150.161 51.7993H328.266C339.742 51.7993 349.044 61.1019 349.044 72.5772V72.5772H129.383V72.5772Z" fill="#699DEE"/>
<path d="M138.266 62.0633C138.266 60.6914 139.378 59.5792 140.75 59.5792C142.122 59.5792 143.234 60.6914 143.234 62.0633C143.234 63.4352 142.122 64.5475 140.75 64.5475C139.378 64.5475 138.266 63.4352 138.266 62.0633Z" fill="#DDE7FE"/>
<path d="M148.692 62.0633C148.692 60.6914 149.804 59.5792 151.176 59.5792C152.548 59.5792 153.66 60.6914 153.66 62.0633C153.66 63.4352 152.548 64.5475 151.176 64.5475C149.804 64.5475 148.692 63.4352 148.692 62.0633Z" fill="#DDE7FE"/>
<path d="M159.118 62.0633C159.118 60.6914 160.231 59.5792 161.603 59.5792C162.975 59.5792 164.087 60.6914 164.087 62.0633C164.087 63.4352 162.975 64.5475 161.603 64.5475C160.231 64.5475 159.118 63.4352 159.118 62.0633Z" fill="#DDE7FE"/>
<rect opacity="0.5" x="146.791" y="89.0642" width="62.2667" height="62.2667" fill="#CDE0FB"/>
<path opacity="0.5" d="M275.516 93.7056H225.988C224.689 93.7056 223.635 92.652 223.635 91.3523V91.3523C223.635 90.0528 224.689 88.9991 225.988 88.9991H275.516C276.816 88.9991 277.87 90.0528 277.87 91.3523V91.3523C277.87 92.652 276.816 93.7056 275.516 93.7056Z" fill="#7C9AF2"/>
<path opacity="0.5" d="M334.743 90.5494H285.215C283.915 90.5494 282.862 89.4957 282.862 88.196V88.196C282.862 86.8965 283.915 85.8429 285.215 85.8429H334.743C336.042 85.8429 337.096 86.8965 337.096 88.196V88.196C337.096 89.4957 336.042 90.5494 334.743 90.5494Z" fill="#7C9AF2"/>
<path d="M174.709 98.346H181.14L198.513 138.114H191.18L187.175 128.581H168.504L164.443 138.114H157.335L174.709 98.346ZM184.637 122.432L177.811 106.638L171.042 122.432H184.637Z" fill="#BDD1F9"/>
<g opacity="0.3">
<path d="M285.32 111.821H225.16C224.318 111.821 223.635 111.138 223.635 110.296V110.296C223.635 109.453 224.318 108.77 225.16 108.77H285.32C286.163 108.77 286.846 109.453 286.846 110.296V110.296C286.846 111.138 286.163 111.821 285.32 111.821Z" fill="#BDD1F9"/>
<path d="M308.19 111.821H292.31C291.467 111.821 290.784 111.138 290.784 110.296V110.296C290.784 109.453 291.467 108.77 292.31 108.77H308.19C309.033 108.77 309.715 109.453 309.715 110.296V110.296C309.715 111.138 309.033 111.821 308.19 111.821Z" fill="#BDD1F9"/>
<path d="M247.859 121.28H225.16C224.318 121.28 223.635 120.597 223.635 119.755V119.755C223.635 118.913 224.318 118.23 225.16 118.23H247.859C248.702 118.23 249.385 118.913 249.385 119.755V119.755C249.385 120.597 248.702 121.28 247.859 121.28Z" fill="#BDD1F9"/>
<path d="M284.625 121.28H253.522C252.679 121.28 251.996 120.597 251.996 119.755V119.755C251.996 118.913 252.679 118.23 253.522 118.23H284.625C285.468 118.23 286.15 118.913 286.15 119.755V119.755C286.15 120.597 285.468 121.28 284.625 121.28Z" fill="#BDD1F9"/>
<path d="M308.19 121.28H292.31C291.467 121.28 290.784 120.597 290.784 119.755V119.755C290.784 118.913 291.467 118.23 292.31 118.23H308.19C309.033 118.23 309.715 118.913 309.715 119.755V119.755C309.715 120.597 309.033 121.28 308.19 121.28Z" fill="#BDD1F9"/>
<path d="M255.961 129.459H225.16C224.318 129.459 223.635 128.777 223.635 127.934V127.934C223.635 127.092 224.318 126.409 225.16 126.409H255.961C256.803 126.409 257.486 127.092 257.486 127.934V127.934C257.486 128.777 256.803 129.459 255.961 129.459Z" fill="#BDD1F9"/>
<path d="M314.777 129.459H264.403C263.56 129.459 262.877 128.777 262.877 127.934V127.934C262.877 127.092 263.56 126.409 264.403 126.409H314.777C315.619 126.409 316.302 127.092 316.302 127.934V127.934C316.302 128.777 315.619 129.459 314.777 129.459Z" fill="#BDD1F9"/>
</g>
<g opacity="0.3">
<path d="M285.32 141.871H225.16C224.318 141.871 223.635 141.189 223.635 140.346V140.346C223.635 139.504 224.318 138.821 225.16 138.821H285.32C286.163 138.821 286.846 139.504 286.846 140.346V140.346C286.846 141.189 286.163 141.871 285.32 141.871Z" fill="#BDD1F9"/>
<path d="M308.19 141.871H292.31C291.467 141.871 290.784 141.189 290.784 140.346V140.346C290.784 139.504 291.467 138.821 292.31 138.821H308.19C309.033 138.821 309.715 139.504 309.715 140.346V140.346C309.715 141.189 309.033 141.871 308.19 141.871Z" fill="#BDD1F9"/>
<path d="M247.859 151.331H225.16C224.318 151.331 223.635 150.648 223.635 149.806V149.806C223.635 148.963 224.318 148.28 225.16 148.28H247.859C248.702 148.28 249.385 148.963 249.385 149.806V149.806C249.385 150.648 248.702 151.331 247.859 151.331Z" fill="#BDD1F9"/>
<path d="M284.625 151.331H253.522C252.679 151.331 251.996 150.648 251.996 149.806V149.806C251.996 148.963 252.679 148.28 253.522 148.28H284.625C285.468 148.28 286.15 148.963 286.15 149.806V149.806C286.15 150.648 285.468 151.331 284.625 151.331Z" fill="#BDD1F9"/>
</g>
<path d="M207.202 167.675H188.064C187.263 167.675 186.614 167.026 186.614 166.225V166.225C186.614 165.424 187.263 164.775 188.064 164.775H207.202C208.003 164.775 208.652 165.424 208.652 166.225V166.225C208.652 167.026 208.003 167.675 207.202 167.675Z" fill="#BDD1F9"/>
<path d="M200.754 172.786H188.064C187.263 172.786 186.614 172.137 186.614 171.336V171.336C186.614 170.536 187.263 169.886 188.064 169.886H200.754C201.555 169.886 202.204 170.536 202.204 171.336V171.336C202.204 172.137 201.555 172.786 200.754 172.786Z" fill="#BDD1F9"/>
<rect x="146.791" y="163.873" width="34.7831" height="6.71502" fill="#F99746"/>
<rect x="146.791" y="170.588" width="34.7831" height="6.71502" fill="#ED7D2B"/>
<rect x="146.791" y="177.303" width="34.7831" height="6.71483" fill="#474FEA"/>
<rect x="146.791" y="198.592" width="34.7831" height="13.7207" fill="#F99746"/>
<rect x="146.791" y="208.925" width="34.7831" height="9.81282" fill="#B5453C"/>
<path d="M146.791 198.592L159.27 209.074L146.791 218.737V198.592Z" fill="#474FEA"/>
<path d="M207.202 202.394H188.064C187.263 202.394 186.614 201.745 186.614 200.944V200.944C186.614 200.143 187.263 199.494 188.064 199.494H207.202C208.003 199.494 208.652 200.143 208.652 200.944V200.944C208.652 201.745 208.003 202.394 207.202 202.394Z" fill="#BDD1F9"/>
<path d="M200.754 207.505H188.064C187.263 207.505 186.614 206.856 186.614 206.055V206.055C186.614 205.255 187.263 204.605 188.064 204.605H200.754C201.555 204.605 202.204 205.255 202.204 206.055V206.055C202.204 206.856 201.555 207.505 200.754 207.505Z" fill="#BDD1F9"/>
<path d="M383.298 153.135C383.983 136.203 369.791 128.681 355.28 128.681C340.769 128.681 324.978 132.44 323.61 154.955C322.73 169.439 330.451 178.351 352.685 178.351C360.183 178.351 366.011 177.169 370.474 175.06L381.588 184.935L376.127 171.285C380.965 166.786 383.003 160.441 383.298 153.135Z" fill="#91B5F8"/>
<path d="M338.476 150.197C338.881 150.096 339.35 150.032 339.895 150.032C340.667 150.032 341.326 150.197 341.781 150.628C342.149 150.97 342.339 151.476 342.339 152.084C342.339 152.958 341.857 153.642 341.022 153.971V154.009C342.009 154.275 342.605 155.073 342.605 156.187C342.605 156.896 342.377 157.466 341.997 157.884C341.515 158.429 340.718 158.657 339.742 158.657C339.122 158.657 338.742 158.619 338.476 158.568V150.197ZM339.439 153.692H339.882C340.68 153.692 341.363 153.085 341.363 152.185C341.363 151.4 340.996 150.792 339.958 150.792C339.73 150.792 339.553 150.818 339.439 150.856V153.692ZM339.439 157.834C339.553 157.859 339.717 157.884 339.932 157.884C340.933 157.884 341.591 157.289 341.591 156.187C341.591 155.01 340.781 154.452 339.869 154.44H339.439V157.834Z" fill="white"/>
<path d="M347.519 155.541C347.519 157.909 346.429 158.707 345.48 158.707C344.378 158.707 343.492 157.707 343.492 155.554C343.492 153.325 344.492 152.388 345.543 152.388C346.645 152.388 347.519 153.414 347.519 155.541ZM344.467 155.541C344.467 156.555 344.644 157.935 345.53 157.935C346.366 157.935 346.544 156.504 346.544 155.541C346.544 154.604 346.366 153.16 345.505 153.16C344.631 153.16 344.467 154.604 344.467 155.541Z" fill="white"/>
<path d="M348.608 154.06C348.608 153.338 348.57 152.971 348.557 152.477H349.405L349.456 153.224H349.482C349.748 152.73 350.242 152.388 350.888 152.388C351.736 152.388 352.369 153.009 352.369 154.49V158.606H351.394V154.668C351.394 153.933 351.254 153.211 350.545 153.211C350.14 153.211 349.748 153.553 349.633 154.199C349.596 154.351 349.583 154.541 349.583 154.756V158.606H348.608V154.06Z" fill="white"/>
<path d="M352.699 160.367C352.977 160.29 353.319 160.189 353.522 159.885C353.737 159.556 353.813 159.1 353.813 157.935V152.477H354.788V158.214C354.788 159.505 354.598 160.1 354.168 160.556C353.8 160.936 353.205 161.126 352.825 161.139L352.699 160.367ZM354.877 150.894C354.877 151.274 354.649 151.527 354.294 151.527C353.965 151.527 353.724 151.274 353.724 150.894C353.724 150.514 353.978 150.26 354.307 150.26C354.649 150.26 354.877 150.514 354.877 150.894Z" fill="white"/>
<path d="M359.879 155.541C359.879 157.909 358.79 158.707 357.84 158.707C356.738 158.707 355.852 157.707 355.852 155.554C355.852 153.325 356.852 152.388 357.903 152.388C359.005 152.388 359.879 153.414 359.879 155.541ZM356.827 155.541C356.827 156.555 357.004 157.935 357.891 157.935C358.727 157.935 358.904 156.504 358.904 155.541C358.904 154.604 358.727 153.16 357.866 153.16C356.992 153.16 356.827 154.604 356.827 155.541Z" fill="white"/>
<path d="M364.642 156.934C364.642 157.606 364.68 158.15 364.692 158.606H363.844L363.768 157.96H363.742C363.565 158.264 363.096 158.707 362.438 158.707C361.374 158.707 360.944 157.872 360.944 156.352V152.477H361.919V156.213C361.919 157.175 362.071 157.884 362.742 157.884C363.312 157.884 363.565 157.352 363.616 157.074C363.654 156.909 363.667 156.719 363.667 156.516V152.477H364.642V156.934Z" fill="white"/>
<path d="M365.997 154.06C365.997 153.54 365.959 152.933 365.947 152.477H366.82L366.871 153.452H366.896C367.099 152.869 367.618 152.388 368.188 152.388C368.264 152.388 368.327 152.388 368.391 152.401V153.389H368.188C367.567 153.389 367.112 153.958 367.01 154.655C366.985 154.82 366.972 155.01 366.972 155.212V158.606H365.997V154.06Z" fill="white"/>
<path d="M351.262 68.7569C351.262 68.7569 352.167 79.5536 349.707 79.39C347.248 79.2265 342.391 74.4735 332.59 75.2464C322.789 76.0194 310.798 78.1638 303.549 65.3367C296.301 52.5091 312.819 48.8174 312.819 48.8174L351.262 68.7569V68.7569Z" fill="#233862"/>
<path d="M330.428 67.9661L379.813 72.0274L380.84 69.8303L333.493 34.8807L285.666 29.2933L284.747 31.2593L330.428 67.9661V67.9661Z" fill="#2B478B"/>
<path d="M364.036 105.158C363.745 104.142 362.685 103.554 361.668 103.844C360.652 104.136 360.064 105.195 360.355 106.212C360.646 107.229 361.706 107.817 362.722 107.526C363.739 107.235 364.327 106.175 364.036 105.158V105.158Z" fill="#F99746"/>
<path d="M362.389 105.69C364.371 105.536 364.834 123.559 364.834 123.559C364.834 123.559 363.542 124.166 362.907 124.024C362.272 123.881 361.948 121.447 361.948 121.447L361.887 123.999C361.887 123.999 359.714 124.074 358.961 123.546C358.961 123.546 359.256 105.934 362.389 105.69V105.69Z" fill="#F99746"/>
<path d="M363.035 106.096L362.678 66.7195L362.422 66.5286L336.626 47.4462L335.7 48.7004L361.239 67.5921L361.815 106.028L363.035 106.096Z" fill="#F99746"/>
<path d="M287.826 250.648H371.389C394.155 250.648 412.61 269.104 412.61 291.869V291.869H329.046C306.281 291.869 287.826 273.414 287.826 250.648V250.648Z" fill="#FCECDB"/>
<path d="M505.678 267.608V273.809C505.678 277.123 504.846 280.226 503.389 282.893C500.466 288.261 495.029 291.868 488.804 291.868H284.483C283.132 291.868 282.036 290.696 282.036 289.251V288.322C282.036 286.877 283.132 285.705 284.483 285.705H409.036C409.702 284.836 410.288 283.895 410.784 282.893C411.95 280.541 412.609 277.86 412.609 275.012V267.13C412.609 265.68 412.435 264.273 412.105 262.935C411.547 260.665 410.549 258.588 409.217 256.814H284.483C283.132 256.814 282.036 255.641 282.036 254.194V253.268C282.036 251.821 283.132 250.648 284.483 250.648H489.833C497.069 250.648 503.172 255.84 505.067 262.935C505.465 264.42 505.678 265.988 505.678 267.608Z" fill="#699DEE"/>
<path d="M505.067 262.935H412.105C411.547 260.665 410.549 258.588 409.217 256.814H284.483C283.132 256.814 282.036 255.641 282.036 254.194V253.268C282.036 251.821 283.132 250.648 284.483 250.648H489.833C497.069 250.648 503.172 255.84 505.067 262.935Z" fill="#548EE2"/>
<path d="M287.826 271.259L302.954 271.952L287.826 272.369V271.259Z" fill="#F4D2B8"/>
<path d="M287.826 277.726L323.818 278.419L287.826 278.837V277.726Z" fill="#F4D2B8"/>
<path d="M500.362 355.907H410.536C392.829 355.907 378.474 341.553 378.474 323.845V323.845H468.3C486.007 323.845 500.362 338.2 500.362 355.907V355.907Z" fill="#F99746"/>
<path d="M631.13 355.907H526.787C509.08 355.907 494.725 341.553 494.725 323.845V323.845H599.067C616.775 323.845 631.13 338.2 631.13 355.907V355.907Z" fill="#FCECDB"/>
<path d="M654.035 326.243C654.035 327.567 652.962 328.64 651.637 328.64H503.45C502.126 328.64 501.052 327.567 501.052 326.243V326.243C501.052 324.918 502.126 323.845 503.45 323.845H651.637C652.962 323.845 654.035 324.918 654.035 326.243V326.243Z" fill="#F99746"/>
<path d="M654.035 298.975C654.035 300.3 652.962 301.373 651.637 301.373H503.45C502.126 301.373 501.052 300.3 501.052 298.975V298.975C501.052 297.651 502.126 296.578 503.45 296.578H651.637C652.962 296.578 654.035 297.651 654.035 298.975V298.975Z" fill="#F99746"/>
<path d="M494.725 307.814L478.188 308.353L494.725 308.677V307.814Z" fill="#F4D2B8"/>
<path d="M494.725 300.435L455.381 300.974L494.725 301.299V300.435Z" fill="#F4D2B8"/>
<path d="M455.786 300.867C455.786 300.867 457.472 302.244 458.031 304.509C458.129 304.905 458.193 305.329 458.205 305.775C458.298 308.784 458.205 315.593 458.205 315.593L463.183 312.189L468.148 315.593V306.365C468.148 304.619 467.722 302.922 466.931 301.81C466.548 301.272 466.083 300.867 465.556 300.867H455.786Z" fill="#699DEE"/>
<path d="M455.786 300.867C455.786 300.867 457.472 302.244 458.031 304.509L468.006 304.643C468.006 304.643 467.615 301.401 465.556 300.867H455.786Z" fill="#568CDB"/>
<path d="M260.45 203.628H335.39C361.406 203.628 382.497 224.719 382.497 250.735V250.735H307.556C281.54 250.735 260.45 229.645 260.45 203.628V203.628Z" fill="#FCECDB"/>
<path d="M382.557 221.906V232.045C382.531 236.374 380.524 240.131 377.575 242.14C376.123 243.125 374.445 243.689 372.662 243.689H257.238C255.885 243.689 254.788 244.999 254.788 246.614V247.81C254.788 249.426 255.885 250.736 257.238 250.736H456.636C462.358 250.736 467.413 247.339 470.467 242.14C472.393 238.864 473.524 234.875 473.524 230.566V222.567C473.524 219.616 472.958 216.821 471.949 214.331C469.385 207.997 463.954 203.629 457.667 203.629H257.238C255.885 203.629 254.788 204.937 254.788 206.552V207.749C254.788 209.364 255.885 210.674 257.238 210.674H373.015C375.782 210.674 378.287 212.081 380.036 214.331C381.585 216.326 382.541 218.981 382.557 221.906Z" fill="#AFCDFB"/>
<path d="M254.788 246.614V247.81C254.788 249.426 255.885 250.736 257.238 250.736H456.636C462.358 250.736 467.413 247.339 470.467 242.14H377.575C376.123 243.125 374.445 243.689 372.662 243.689H257.238C255.885 243.689 254.788 244.999 254.788 246.614Z" fill="#A4C4F4"/>
<path d="M260.45 227.182L275.246 227.974L260.45 228.451V227.182Z" fill="#F4D2B8"/>
<path d="M260.45 216.341L295.652 217.133L260.45 217.61V216.341Z" fill="#F4D2B8"/>
<path d="M295.29 216.975C295.29 216.975 292.967 218.469 292.198 220.924C292.062 221.353 291.975 221.814 291.957 222.298C291.828 225.56 291.957 232.943 291.957 232.943L285.097 229.252L278.256 232.943V222.936C278.256 221.044 278.843 219.204 279.933 217.998C280.461 217.415 281.103 216.975 281.828 216.975H295.29Z" fill="#F99746"/>
<path d="M295.29 216.975C295.29 216.975 292.967 218.469 292.198 220.924L278.452 221.07C278.452 221.07 278.992 217.555 281.828 216.975H295.29Z" fill="#ED7D2B"/>
<path d="M120.074 246.568C120.074 246.568 141.561 255.93 145.461 255.76C149.361 255.589 173.395 248.439 173.395 248.439L172.783 252.574C172.783 252.574 154.235 263.241 147.751 263.846C141.367 264.442 119.538 258.116 117.431 256.781C115.324 255.445 113.95 247.92 120.074 246.568Z" fill="#ED985F"/>
<path d="M116.846 212.131C116.846 212.131 108.919 210.625 104.972 213.508C97.8203 218.73 97.4362 236.735 94.756 239.417C92.0758 242.099 85.615 240.954 85.0398 254.832C84.4648 268.71 87.612 269.87 83.8637 276.065C80.1154 282.26 85.4497 288.46 85.4497 288.46C85.4497 288.46 83.2647 285.041 84.2011 282.572C84.2011 282.572 85.1106 288.02 88.5713 289.297C92.0321 290.574 92.5442 291.51 93.0968 293.383C93.0968 293.383 122.621 278.254 122.653 267.523C122.686 256.792 128.463 246.163 125.626 241.513C125.626 241.513 126.89 243.502 127.045 245.715C127.045 245.715 128.747 242.453 125.796 239.417C122.845 236.38 129.258 230.096 128.309 222.818C127.657 217.822 124.151 212.348 116.846 212.131Z" fill="#233862"/>
<path d="M122.685 256.792C120.798 258.101 118.432 259.181 115.462 259.867C104.327 262.439 100.06 253.028 98.4573 246.568C99.9759 245.699 101.405 245.508 102.23 245.41C103.035 245.314 103.881 245.251 104.582 245.217C105.832 244.259 107.695 240.34 108.107 234.254L108.631 234.395L117.406 236.797C117.406 236.797 117.004 239.586 116.807 242.223C116.655 244.286 116.631 246.258 117.022 246.74C117.707 246.889 118.118 246.986 118.118 246.986C118.118 246.986 118.118 246.988 118.122 246.994C118.24 247.187 120.786 251.374 122.685 256.792Z" fill="#FFB27D"/>
<path d="M117.407 236.798C117.407 236.798 117.004 239.586 116.808 242.224C111.837 241.727 109.529 236.993 108.631 234.397L117.407 236.798Z" fill="#ED985F"/>
<path d="M118.892 239.417C118.892 239.417 107.091 238.766 107.61 231.423C108.128 224.081 106.955 219.051 114.511 219.157C122.067 219.262 123.331 222.167 123.755 224.66C124.178 227.153 121.975 239.397 118.892 239.417Z" fill="#FFB27D"/>
<path d="M123.697 220.552C122.033 218.214 120.622 218.599 119.803 219.208C113.614 215.204 109.087 220.143 109.087 220.143C107.921 225.354 103.906 228.099 103.906 228.099C103.906 228.099 105.959 229.581 111.003 228.662C112.543 228.382 113.971 227.404 115.213 226.182C112.968 229.397 110.066 231.623 110.066 231.623C116.178 229.312 119.144 221.255 119.443 220.401C120.116 221.099 121.434 222.605 121.767 224.012C122.221 225.923 124.177 228.912 125.308 228.862C125.308 228.862 126.191 224.061 123.697 220.552Z" fill="#233862"/>
<path d="M95.0965 280.785C94.031 275.337 90.5563 253.572 94.031 246.568C95.2788 244.052 100.176 243.825 105.548 244.046C107.22 245.125 113.59 249.204 116.206 248.695C116.235 248.689 116.285 248.677 116.353 248.66C117.585 248.352 118.05 247.486 117.022 246.74C117.02 246.738 119.683 246.483 122.988 247.106C124.854 247.457 129.888 250.062 129.888 250.062C129.888 250.062 127.353 254.641 123.615 256.222C124.251 261.909 123.305 264.417 117.407 277.55C112.422 288.651 118.079 298.646 118.079 298.646C118.079 298.646 88.7364 322.238 88.573 310.226C88.4505 301.183 96.4585 287.747 95.0965 280.785Z" fill="#F9DDBF"/>
<path d="M119.533 324.299C121.129 324.119 122.566 323.246 123.458 321.91C123.599 321.698 123.751 321.471 123.911 321.227C127.251 316.171 128.551 300.686 136.064 284.19C137.894 280.174 144.462 279.452 146.253 274.911C146.253 274.911 150.662 260.197 137.816 259.762C124.969 259.328 103.411 300.706 103.071 305.046C102.741 309.25 94.5774 327.115 119.533 324.299Z" fill="#DD6D22"/>
<path d="M170.592 323.961H152.307C152.307 323.961 151.624 321.044 152.824 319.06C153.887 317.304 153.48 316.304 152.693 314.851C153.521 315.19 154.592 315.499 155.772 315.431C156.683 315.379 157.647 314.965 158.491 314.475C159.278 315.372 162.648 319.191 163.701 319.948C164.896 320.806 170.224 320.5 170.592 323.961Z" fill="#233862"/>
<path d="M146.672 264.016C147.773 272.27 152.072 298.322 159.657 311.033C162.102 315.131 153.496 317.428 153.45 317.416C152.296 317.114 150.373 315.274 149.486 314.475C143.329 308.926 130.83 293.212 130.83 280.615C130.83 274.472 130.722 262.741 135.189 259.759C137.939 257.923 146.235 260.738 146.672 264.016Z" fill="#ED7D2B"/>
<path d="M108.63 323.961C108.63 323.961 109.308 323.018 110.489 321.227C111.896 319.097 113.452 314.906 115.34 309.533C117.323 303.893 119.676 296.954 122.616 289.734C123.523 287.506 124.487 285.25 125.511 282.998C127.341 278.982 132.375 279.537 134.166 274.997C134.166 274.997 141.155 259.258 128.308 258.824C115.462 258.39 91.0514 300.926 89.6486 305.046C88.1131 309.555 80.6208 328.282 108.63 323.961Z" fill="#F99746"/>
<path d="M157.17 323.961H138.885C138.885 323.961 138.202 321.044 139.402 319.06C140.465 317.304 140.058 316.304 139.271 314.851C140.099 315.19 141.17 315.499 142.35 315.431C143.261 315.379 144.225 314.965 145.069 314.475C145.856 315.372 149.226 319.191 150.279 319.948C151.474 320.806 156.802 320.5 157.17 323.961Z" fill="#2B478B"/>
<path d="M115.34 309.533C117.323 303.893 119.676 296.954 122.616 289.734C121.848 284.265 120.192 279.479 117.407 277.55C117.407 277.55 110.65 298.483 115.34 309.533Z" fill="#ED7D2B"/>
<path d="M135.999 263.431C137.1 271.685 138.65 298.322 146.235 311.033C148.68 315.131 140.074 317.428 140.028 317.416C138.873 317.114 136.951 315.274 136.064 314.475C129.907 308.926 117.408 293.212 117.408 280.615C117.408 274.472 124.616 263.233 129.083 260.252C131.834 258.415 135.561 260.153 135.999 263.431Z" fill="#F99746"/>
<path d="M121.101 235.194C121.101 235.194 119.985 234.753 116.846 235.007C116.846 235.007 117.013 236.232 119.328 236.353C120.639 236.421 121.101 235.194 121.101 235.194Z" fill="white"/>
<path d="M175.688 239.79L171.897 232.951L163.697 255.834L168.534 261.028L175.688 239.79Z" fill="#163560"/>
<path d="M155.895 243.796L148.272 265.573L168.535 261.028L175.688 239.79L155.895 243.796Z" fill="#1C468A"/>
<path d="M148.676 264.475L148.321 263.854L155.534 243.245L155.895 243.796L148.676 264.475Z" fill="#EFDECE"/>
<path d="M155.533 243.245L174.744 239.507L175.688 239.79L155.894 243.796L155.533 243.245Z" fill="#FCECDB"/>
<path d="M175.688 239.79L171.589 233.283L168.976 240.629L174.745 239.507L175.688 239.79Z" fill="#EFDECE"/>
<path d="M161.746 246.949C161.087 246.823 159.673 246.29 158.242 245.896C158.669 245.564 159.145 245.157 159.277 244.738C159.533 243.932 159.703 243.672 158.851 243.928C158 244.183 155.022 245.549 155.022 245.549L155.03 245.553C153.338 246.047 151.779 248.439 151.779 248.439C151.779 248.439 130.829 255.803 128.309 255.929C124.41 256.125 98.4579 246.568 98.4579 246.568C92.3333 247.92 93.7073 255.445 95.8147 256.781C97.9222 258.116 116.596 264.909 127.663 265.037C133.269 265.102 153.659 251.997 153.659 251.997C153.659 251.997 156.043 250.907 157.915 251.248C159.788 251.588 164.129 251.248 165.065 249.716C166.001 248.184 162.852 247.162 161.746 246.949Z" fill="#FFB27D"/>
<path d="M111.828 251.282C111.828 251.282 109.507 258.63 101.536 260.301C101.536 260.301 88.3721 256.246 94.9265 247.278C94.9265 247.278 101.407 242.463 111.828 251.282Z" fill="#F9DDBF"/>
<path d="M175.347 247.503L175.345 247.504C175.35 247.301 175.33 247.1 175.276 246.907C175.276 246.907 173.398 243.937 172.783 243.815C170.91 243.446 170.91 245.912 171.307 247.503C171.584 248.611 172.288 249.675 172.858 250.249L172.858 250.249L172.783 252.574C175.947 250.835 175.347 247.503 175.347 247.503Z" fill="#FFB27D"/>
<path d="M65.363 208.718C66.1115 190.197 50.588 181.969 34.7156 181.969C18.8431 181.969 1.57012 186.082 0.0733226 210.709C-0.889354 226.552 7.55639 236.301 31.8764 236.301C40.0785 236.301 46.453 235.007 51.3354 232.7L63.4925 243.502L57.5184 228.571C62.8105 223.65 65.0403 216.71 65.363 208.718Z" fill="#EBF3FA"/>
<path d="M22.6559 202.525V206.852H25.4856V202.525H26.6382V212.616H25.4856V207.9H22.6559V212.616H21.5032V202.525H22.6559Z" fill="#91B5F8"/>
<path d="M29.0942 209.098C29.0942 211.329 29.9773 211.793 30.8009 211.793C31.3099 211.793 31.714 211.673 31.9985 211.523L32.1932 212.361C31.7888 212.571 31.1752 212.706 30.5914 212.706C28.8545 212.706 27.9563 211.284 27.9563 209.068C27.9563 206.732 28.9593 205.265 30.4117 205.265C31.8787 205.265 32.4775 206.822 32.4775 208.439C32.4775 208.724 32.4627 208.918 32.4477 209.098H29.0942ZM31.3697 208.244C31.3847 206.807 30.8457 206.164 30.2917 206.164C29.5282 206.164 29.154 207.256 29.109 208.244H31.3697Z" fill="#91B5F8"/>
<path d="M33.72 202.256H34.8727V212.616H33.72V202.256Z" fill="#91B5F8"/>
<path d="M36.5794 202.256H37.7321V212.616H36.5794V202.256Z" fill="#91B5F8"/>
<path d="M43.8862 208.993C43.8862 211.793 42.5986 212.736 41.476 212.736C40.1733 212.736 39.1253 211.553 39.1253 209.008C39.1253 206.373 40.3082 205.265 41.5506 205.265C42.8532 205.265 43.8862 206.478 43.8862 208.993ZM40.2782 208.993C40.2782 210.191 40.4878 211.823 41.5358 211.823C42.524 211.823 42.7335 210.131 42.7335 208.993C42.7335 207.885 42.524 206.179 41.5058 206.179C40.4728 206.179 40.2782 207.885 40.2782 208.993Z" fill="#91B5F8"/>
<path d="M378.783 242.47C382.226 248.562 386.594 250.935 386.594 250.935L404.835 251.064C404.835 251.064 376.156 237.823 378.783 242.47Z" fill="#233862"/>
<path d="M392.461 289.514C392.933 290.062 392.989 290.671 392.749 291.32C392.749 291.323 392.747 291.326 392.744 291.329C392.301 292.528 390.854 293.86 389.175 295.189C388.961 295.36 388.77 295.515 388.603 295.659C388.559 295.697 388.516 295.735 388.475 295.773C388.441 295.802 388.408 295.833 388.376 295.861C386.809 297.285 387.392 297.618 384.575 300.51C381.362 303.807 379.166 303.851 378.543 303.544C378.016 303.282 379.103 301.53 380.306 299.561C380.365 299.466 380.422 299.369 380.482 299.273C380.642 299.011 380.801 298.745 380.96 298.482C382.372 296.111 382.022 294.991 381.716 291.446C381.468 288.565 377.35 275.329 377.35 275.329L383.469 274.319C383.469 274.319 385.236 284.848 387.253 286.482C388.331 287.353 389.545 287.372 390.582 288.02C390.656 288.065 390.728 288.111 390.798 288.158C391.388 288.555 391.988 288.965 392.461 289.514Z" fill="#FFB27D"/>
<path d="M392.461 289.514C392.933 290.062 392.989 290.671 392.749 291.32C392.749 291.323 392.747 291.326 392.744 291.329C392.203 292.526 390.792 293.852 389.169 295.177C388.957 295.351 388.77 295.51 388.603 295.659C388.559 295.697 388.516 295.735 388.475 295.773C388.441 295.802 388.408 295.833 388.376 295.861C386.809 297.285 387.392 297.618 384.575 300.511C381.362 303.807 379.165 303.851 378.543 303.544C378.016 303.282 379.102 301.53 380.306 299.56C380.929 299.337 383.821 298.186 386.021 295.411C387.959 292.974 389.262 289.834 390.582 288.02C390.656 288.065 390.728 288.111 390.798 288.158C391.388 288.555 391.988 288.964 392.461 289.514Z" fill="#233862"/>
<path d="M343.204 285.349C342.813 287.233 340.126 286.899 337.127 286.144C334.127 285.389 334.835 286.266 330.563 285.763C326.29 285.259 325.005 283.656 324.88 283.019C324.767 282.454 326.881 282.27 329.149 282.025C329.434 281.995 329.721 281.962 330.008 281.928C332.568 281.625 334.454 279.987 336.788 278.648C338.998 277.379 342.321 272.169 342.321 272.169L348.182 272.675C348.182 272.675 345.072 277.327 343.867 279.351C343.158 280.541 343.184 282.122 343.263 283.343C343.304 284.007 343.342 284.685 343.204 285.349Z" fill="#FFB27D"/>
<path d="M337.127 286.144C334.127 285.389 334.835 286.266 330.563 285.763C326.29 285.259 325.005 283.656 324.88 283.019C324.767 282.454 326.881 282.27 329.149 282.025L329.17 282.068C329.17 282.068 331.722 283.905 335.281 284.015C338.181 284.106 341.26 283.297 343.263 283.343C343.304 284.007 343.342 284.685 343.204 285.349C342.813 287.233 340.126 286.899 337.127 286.144Z" fill="#233862"/>
<path d="M365.942 248.01L371.32 262.8L378.341 282.112C378.341 282.112 380.282 282.313 382.146 281.791C383.861 281.308 385.836 280.027 385.836 280.027C385.836 280.027 383.994 259.332 380.371 247.434C379.442 244.38 378.395 241.907 377.23 240.512C371.53 233.679 365.942 248.01 365.942 248.01Z" fill="#233862"/>
<path d="M371.681 224.621C375.281 223.488 385.514 225.048 395.79 227.135L397.969 223.597L420.207 222.018C420.207 222.018 427.427 238.334 423.338 248.669C422.737 250.188 421.272 250.82 419.273 250.838L419.271 250.841C419.271 250.841 406.006 251.071 401.711 251.041C390.657 250.963 378.372 243.278 376.778 242.947C374.169 242.406 373.086 247.624 370.435 253.092C367.784 258.561 345.704 277.217 345.704 277.217C345.704 277.217 342.331 277.227 340.941 276.695C339.447 276.122 338.904 275.388 338.904 275.388C338.904 275.388 363.563 227.177 371.681 224.621Z" fill="#2B478B"/>
<path d="M398.316 192.989C406.2 197.403 422.193 206.55 422.277 206.492C422.277 206.492 428.162 208.758 431.526 206.558C437.132 202.891 440.195 192.939 430.05 184.284C424.991 179.967 421.383 178.899 420.882 172.06C420.61 168.35 415.627 156.076 407.197 157.148C406.492 157.238 405.783 157.301 405.073 157.273C404.09 157.234 402.465 157.366 400.792 158.346C396.005 161.151 386.463 191.219 398.316 192.989Z" fill="#233862"/>
<path d="M404.976 189.326C404.941 189.349 408.861 190.718 411.496 189.573C413.976 188.498 415.877 184.445 415.84 184.443C414.716 184.383 413.488 183.391 412.584 176.935L412.104 177.103L404.034 179.943C404.034 179.943 404.599 182.53 404.958 184.992C405.262 187.058 405.418 189.038 404.976 189.326Z" fill="#FFB27D"/>
<path d="M404.034 179.943C404.034 179.943 404.378 181.756 404.855 184.347C409.484 183.547 411.435 179.598 412.104 177.103L404.034 179.943Z" fill="#ED975D"/>
<path d="M402.816 182.498C402.816 182.498 413.84 181.097 412.862 174.246C411.884 167.394 412.648 162.599 405.569 163.204C398.489 163.808 397.498 166.617 397.268 168.984C397.038 171.35 399.924 182.686 402.816 182.498Z" fill="#FFB27D"/>
<path d="M397.696 165.235C397.696 165.235 404.703 171.36 409.495 171.884C414.287 172.407 416.113 170.881 416.113 170.881C416.113 170.881 413.303 168.514 411.629 164.715C411.135 163.595 410.082 162.821 408.863 162.707C405.441 162.388 398.951 162.207 397.696 165.235Z" fill="#233862"/>
<path d="M402.107 164.722C402.107 164.722 399.732 166.986 398.978 168.672C398.249 170.299 398.007 174.201 398.567 175.756C398.567 175.756 394.942 168.585 397.047 165.128C399.279 161.462 402.107 164.722 402.107 164.722Z" fill="#233862"/>
<path d="M395.588 205.484C395.764 227.78 395.555 223.12 397.978 225.253C398.562 225.766 400.212 226.081 402.385 226.24C409.218 226.742 421.243 225.701 421.709 224.441C423.316 220.081 422.212 218.715 423.575 212.032C423.717 211.321 423.893 210.552 424.098 209.714C425.227 205.125 426.306 203.569 422.467 196.158C418.985 189.444 415.357 183.989 415.026 184.183C405.676 189.644 404.958 184.993 404.958 184.993C404.958 184.993 395.501 194.609 395.588 205.484Z" fill="#F9DDBF"/>
<path d="M371.321 262.8L378.342 282.112C378.342 282.112 380.283 282.313 382.147 281.791C383.862 281.308 385.836 280.027 385.836 280.027C385.836 280.027 383.995 259.332 380.372 247.434L371.321 262.8Z" fill="#2B478B"/>
<path d="M404.958 184.991C404.958 184.991 395.366 186.548 394.212 190.665C393.058 194.782 386.267 218.984 386.267 218.984C386.267 218.984 391.131 219.893 393.397 217.659C395.663 215.425 401.373 196.841 401.373 196.841L404.958 184.991Z" fill="#F9DDBF"/>
<path d="M402.385 226.24C409.218 226.742 421.243 225.701 421.709 224.441C423.316 220.081 422.212 218.715 423.575 212.032L420.344 202.724C420.344 202.724 420.816 213.067 417.748 215.765C414.682 218.463 405.227 220.926 403.729 223.188C403.006 224.273 402.528 225.363 402.385 226.24Z" fill="#F2CCAA"/>
<path d="M410.249 221.947C410.249 221.947 403.515 220.398 402.422 220.989C401.33 221.58 398.655 223.74 398.317 224.497C397.979 225.253 400.744 223.938 401.642 223.704C402.223 223.552 403.747 224.094 404.502 224.351C407.678 225.435 409.632 224.903 409.632 224.903L410.249 221.947Z" fill="#FFB27D"/>
<path d="M415.031 184.178C415.031 184.178 424.082 184.799 427.187 189.194C431.556 195.38 440.125 221.671 435.083 225.134C429.405 229.034 409.362 225.983 409.362 225.983C409.362 225.983 408.716 222.858 409.656 221.355C410.596 219.852 425.709 217.52 426.411 216.828C427.113 216.136 417.798 203.179 417.812 201.089C417.827 198.999 415.031 184.178 415.031 184.178Z" fill="#F9DDBF"/>
<path d="M402.082 222.864C402.082 222.864 400.657 224.676 400.192 224.891C399.727 225.105 399.428 225.049 399.428 225.049L400.392 223.341L402.082 222.864Z" fill="#FFB27D"/>
<path d="M402.422 220.989L398.3 222.955C398.3 222.955 398.473 223.242 398.979 223.223C399.485 223.203 400.764 222.746 400.764 222.746L402.422 220.989Z" fill="#FFB27D"/>
<path d="M401.07 227.833L368.572 227.604L358.967 203.224L391.416 203.453L401.07 227.833Z" fill="#F99746"/>
<path d="M368.198 226.654L411.112 226.957L411.106 227.904L368.572 227.604L368.198 226.654Z" fill="#ED7D2B"/>
<path d="M376.861 215.506C376.622 214.65 377.121 213.96 377.976 213.966C378.83 213.972 379.716 214.672 379.956 215.528C380.195 216.384 379.696 217.073 378.841 217.067C377.987 217.061 377.1 216.362 376.861 215.506Z" fill="white"/>
<rect x="262.746" y="363.724" width="19.6295" height="98.7422" transform="rotate(-89.9888 262.746 363.724)" fill="#C65447"/>
<path d="M203.562 324.177L189.05 317.97L180.609 314.359L189.249 310.666L203.567 304.547C203.567 304.547 205.478 309.327 205.506 313.822C205.551 320.876 203.562 324.177 203.562 324.177Z" fill="#FCECDB"/>
<path d="M313.787 311.081L313.786 317.286C313.785 321.104 310.69 324.198 306.872 324.197L302.305 324.196L302.309 304.567L307.276 304.568C310.872 304.568 313.788 307.484 313.787 311.081Z" fill="#FCECDB"/>
<path d="M189.249 310.666C189.608 312.65 189.92 315.689 189.05 317.97L180.609 314.359L189.249 310.666Z" fill="#2B478B"/>
<path d="M224.792 202.343C224.792 202.343 226.561 210.017 231.717 210.017C236.136 210.017 242.198 200.027 242.198 200.027L224.792 202.343Z" fill="#F99746"/>
<path d="M283.983 315.694L280.671 317.972C280.671 317.972 264.74 300.992 260.894 284.715C260.209 281.809 259.931 278.943 260.224 276.224C260.224 276.224 259.992 275.487 259.585 274.183C259.567 274.126 259.549 274.068 259.531 274.009C259.353 273.437 259.139 272.765 258.902 272.003C258.13 269.544 257.069 266.178 255.86 262.346C253.076 253.528 246.707 233.641 243.987 225.369L263.544 218.293C263.544 218.293 265.765 223.359 268.957 237.127C269.449 238.924 269.942 240.911 270.401 243.077C270.923 245.529 271.41 248.211 271.815 251.107C272.501 256.015 272.959 261.537 272.987 267.593C272.998 270.057 272.938 272.611 272.792 275.247C272.685 277.18 272.972 279.755 273.511 282.685C275.975 296.081 283.983 315.694 283.983 315.694Z" fill="#2B478B"/>
<path d="M294.402 323.877H278.591C278.591 323.877 278 321.355 279.038 319.639C279.957 318.12 279.604 317.255 278.924 315.999C279.64 316.292 280.567 316.559 281.587 316.501C282.375 316.456 283.208 316.098 283.938 315.674C284.619 316.45 287.533 319.752 288.443 320.406C289.477 321.149 294.084 320.884 294.402 323.877Z" fill="#233862"/>
<path d="M271.815 251.107L259.531 274.009C259.353 273.437 259.139 272.765 258.902 272.003C258.13 269.544 257.069 266.178 255.86 262.346C253.076 253.528 246.707 233.641 243.987 225.369L263.544 218.293C263.544 218.293 265.765 223.359 268.957 237.127C269.449 238.924 269.942 240.911 270.401 243.077C270.923 245.529 271.41 248.211 271.815 251.107Z" fill="#233862"/>
<path d="M243.668 318.927C243.668 318.927 242.574 321.612 243.604 323.877H252.205C252.205 323.877 252.384 321.835 249.262 319.467C246.899 317.674 243.668 318.927 243.668 318.927Z" fill="#233862"/>
<path d="M253.029 144.103C253.034 143.675 253.254 139.059 260.268 138.649C260.268 138.649 256.826 139.144 256.266 140.676C256.266 140.676 258.571 138.744 260.5 139.301C262.428 139.858 263.634 143.184 263.671 144.287C263.709 145.39 262.731 148.971 261.524 149.303C261.067 149.428 260.536 149.41 260.053 149.34C260.388 149.837 260.718 150.386 261.036 151C263.976 156.682 261.44 163.376 259.054 162.812C257.523 162.451 256.593 165.103 256.593 165.103L241.874 152.446C241.874 152.446 247.031 141.086 253.029 144.103Z" fill="#2C3A64"/>
<path d="M243.777 182.563C245.408 183.695 247.455 184.629 250.023 185.221C259.652 187.446 263.342 179.308 264.728 173.722C263.415 172.971 262.179 172.805 261.466 172.72C260.77 172.638 260.038 172.583 259.432 172.553C258.35 171.725 256.739 168.336 256.383 163.073L255.93 163.195L248.342 165.272C248.342 165.272 248.689 167.684 248.86 169.964C248.991 171.748 249.012 173.453 248.674 173.87C248.082 173.999 247.727 174.083 247.727 174.083C247.727 174.083 247.726 174.085 247.723 174.09C247.621 174.257 245.419 177.877 243.777 182.563Z" fill="#FFB27D"/>
<path d="M248.341 165.273C248.341 165.273 248.69 167.683 248.859 169.965C253.158 169.535 255.153 165.442 255.93 163.196L248.341 165.273Z" fill="#ED985F"/>
<path d="M248.253 168.893C248.253 168.893 258.151 166.35 256.472 160.21C254.793 154.07 254.94 149.606 248.549 150.971C242.158 152.335 241.576 155.013 241.638 157.198C241.7 159.384 245.634 169.397 248.253 168.893Z" fill="#FFB27D"/>
<path d="M240.994 153.705C242.01 151.44 243.272 151.53 244.07 151.907C248.643 147.467 253.315 150.892 253.315 150.892C255.184 155.115 259.053 156.766 259.053 156.766C259.053 156.766 257.562 158.368 253.129 158.441C251.775 158.463 250.398 157.874 249.139 157.047C251.586 159.396 254.423 160.793 254.423 160.793C248.849 159.866 244.974 153.532 244.576 152.859C244.123 153.565 243.26 155.064 243.214 156.313C243.152 158.011 243.815 161.289 242.847 161.438C242.847 161.438 239.47 157.101 240.994 153.705Z" fill="#2C3A64"/>
<path d="M245.405 173.572C245.405 173.572 262.029 169.536 269.258 175.498L265.646 225.879L233.133 218.024C233.133 218.024 234.048 214.836 240.282 206.359C246.517 197.882 243.805 185.447 245.405 173.572Z" fill="#FFB27D"/>
<path d="M255.097 220.271C255.097 220.271 255.078 220.441 255.044 220.767C255.03 220.907 255.011 221.076 254.99 221.273C254.85 222.579 254.585 225.084 254.244 228.342C253.351 236.887 251.951 250.61 250.998 261.443C250.251 269.912 249.777 276.615 250.033 277.691C250.803 280.93 250.033 319.647 250.033 319.647C247.27 320.972 243.08 319.647 243.08 319.647C243.08 319.647 235.719 284.757 236.75 279.908C237.78 275.058 236.061 270.919 236.061 270.919C230.346 244.304 230.972 229.552 232.107 222.491C232.436 220.437 232.811 219.034 233.084 218.179C233.315 217.451 233.476 217.119 233.476 217.119C246.082 213.727 255.097 220.271 255.097 220.271Z" fill="#2B478B"/>
<path d="M271.5 189.868C270.698 195.928 267.486 203.345 266.34 207.338C266.34 207.338 268.257 221.198 266.427 225.004C266.219 225.438 265.961 225.741 265.646 225.878C258.867 228.831 232.465 225.964 231.351 217.447C230.946 214.353 241.407 203.467 242.017 202.147C242.27 201.601 242.539 199.829 241.313 196.16C239.575 201.52 229.979 199.978 229.979 199.978C231.105 198.051 233.911 184.719 237.044 178.701C239.399 174.177 245.688 173.522 245.688 173.522C245.688 173.522 248.306 177.673 254.636 177.085C260.966 176.496 262.124 172.621 262.124 172.621C262.124 172.621 267.738 173.367 269.468 174.763C269.768 175.005 272.552 181.927 271.5 189.868Z" fill="#F99746"/>
<path d="M266.34 207.338C266.34 207.338 268.257 221.198 266.427 225.004C261.488 222.525 257.596 215.818 258.494 208.347C259.159 202.824 260.146 201.564 263.1 198.404C265.271 196.082 270.291 195.951 269.897 197.056C268.726 200.346 266.946 205.229 266.34 207.338Z" fill="#ED7D2B"/>
<path d="M245.722 190.947L257.043 209.108H237.781L226.995 191.34L245.722 190.947Z" fill="#1C468A"/>
<path d="M256.454 208.196L256.649 207.562L245.937 190.375L245.722 190.947L256.454 208.196Z" fill="#EFDECE"/>
<path d="M245.937 190.375L227.792 190.892L226.995 191.34L245.722 190.947L245.937 190.375Z" fill="#FCECDB"/>
<path d="M226.995 191.34L216.816 185.83L228.682 204.464L237.781 209.108L226.995 191.34Z" fill="#163560"/>
<path d="M280.863 204.066C279.772 204.565 276.974 207.861 275.975 208.196C271.483 209.698 252.368 205.699 252.368 205.699L252.96 202.352C252.96 202.352 271.721 202.85 273.784 202.298C274.172 202.194 276.2 199.022 276.979 198.567L280.863 204.066Z" fill="#FFB27D"/>
<path d="M252.962 202.351C252.962 202.351 250.699 200.51 249.171 200.926C247.642 201.343 245.393 203.276 244.558 203.734C243.722 204.192 241.453 205.829 242.603 206.819C243.753 207.809 247.334 206.959 248.752 206.2C250.171 205.441 252.37 205.7 252.37 205.7L252.962 202.351Z" fill="#FFB27D"/>
<path d="M249.603 200.866C249.603 200.866 246.854 200.538 246.103 200.553C245.352 200.568 245.556 200.733 245.97 201.316C246.385 201.898 247.816 202.121 247.882 202.325C247.948 202.529 249.603 200.866 249.603 200.866Z" fill="#FFB27D"/>
<path d="M262.124 172.621C262.124 172.621 270.278 173.588 272.523 177.085C275.362 181.506 282.061 199.114 281.845 203.55C281.845 203.55 276.947 211.886 260.151 210.552C260.151 210.552 258.404 204.38 261.937 202.343C261.937 202.343 270.564 200.808 271.557 199.933L264.523 187.151L262.124 172.621Z" fill="#F99746"/>
<path d="M229.604 197.979C229.351 196.951 227.111 197.593 226.356 198.184C226.172 198.328 225.975 198.572 225.782 198.859C225.758 198.687 225.738 198.522 225.727 198.394C225.684 197.912 225.122 197.047 224.982 197.694C224.843 198.341 224.613 201.061 224.613 201.061C224.586 203.251 225.994 204.154 226.898 203.442C227.803 202.729 229.857 199.006 229.604 197.979Z" fill="#FFB27D"/>
<path d="M14.6556 324.748C14.6556 324.263 15.0487 323.87 15.5337 323.87H528.68C529.165 323.87 529.559 324.263 529.559 324.748V324.748C529.559 325.233 529.165 325.626 528.68 325.626H15.534C15.0488 325.626 14.6556 325.233 14.6556 324.748V324.748Z" fill="#2E3552"/>
</svg>
