<svg width="20" height="20" viewBox="0 0 20 20" fill="none" xmlns="http://www.w3.org/2000/svg">
<path d="M12.9584 17.6741C12.8933 18.0004 12.7784 18.2999 12.613 18.5727C12.4421 18.8541 12.2184 19.1064 11.9421 19.3292C11.6658 19.5517 11.3643 19.7193 11.0393 19.8315C10.7136 19.9436 10.367 19.9999 10.0009 19.9999C9.63472 19.9999 9.28832 19.9436 8.96243 19.8315C8.63722 19.7195 8.33611 19.5517 8.05978 19.3292C7.78327 19.1064 7.55958 18.8539 7.38869 18.5727C7.21814 18.2914 7.10124 17.9819 7.03767 17.644C7.00674 17.4788 7.12226 17.3206 7.29572 17.2909C7.30119 17.2901 7.35194 17.2854 7.35194 17.2851H12.6498C12.827 17.2851 12.9705 17.4218 12.9705 17.5903C12.9704 17.6194 12.9664 17.6474 12.9584 17.6741ZM11.6887 1.11793C11.9486 1.18255 12.201 1.261 12.4457 1.35296C12.8061 1.48838 13.1524 1.65179 13.4841 1.84238C13.497 1.85003 13.5097 1.85817 13.5222 1.86647C13.8402 2.05267 14.136 2.25726 14.4089 2.4804C14.6943 2.7138 14.9604 2.97177 15.207 3.25416L15.209 3.25628H15.2094C15.4503 3.53427 15.666 3.83099 15.8566 4.14528C16.0478 4.4612 16.2113 4.79013 16.3465 5.13095L16.3472 5.13079C16.487 5.48138 16.5916 5.84075 16.6606 6.20859C16.73 6.57822 16.7643 6.95713 16.7643 7.34531C16.7643 8.11256 16.7643 8.52646 16.7647 8.57676C16.7664 8.97015 16.7686 9.35459 16.7717 9.72991V9.73382C16.773 10.0728 16.7965 10.414 16.8407 10.7558C16.8845 11.0938 16.9486 11.4203 17.0313 11.7346L17.0319 11.7345C17.115 12.0444 17.2273 12.3424 17.3681 12.6285C17.5127 12.9231 17.6885 13.2112 17.8955 13.4929L17.8965 13.4923C18.1007 13.7685 18.3564 14.0413 18.6635 14.3105C18.9805 14.5886 19.3487 14.8611 19.7676 15.128C20.0079 15.2813 20.0723 15.5912 19.9111 15.8202C19.8103 15.9636 19.6447 16.0413 19.4759 16.0414V16.0431H14.7384H10.0009H5.26313H0.525664C0.235318 16.0431 0 15.8189 0 15.5426C0 15.3608 0.101681 15.2018 0.253775 15.114C0.679466 14.8396 1.045 14.5681 1.35022 14.2989C1.65389 14.031 1.90818 13.7569 2.11274 13.4762C2.11889 13.4679 2.12504 13.4599 2.13154 13.4521C2.32926 13.1764 2.49844 12.8954 2.63857 12.6101C2.7811 12.3199 2.89542 12.0206 2.98104 11.7122C2.98275 11.7057 2.98463 11.6993 2.98668 11.693C3.06785 11.3935 3.12972 11.0779 3.17261 10.747C3.21567 10.4138 3.23721 10.0698 3.23721 9.71559V7.34531C3.23721 6.96445 3.27309 6.58506 3.3447 6.2081C3.4163 5.83164 3.52174 5.47015 3.66068 5.12493C3.79893 4.77972 3.96469 4.44883 4.15712 4.13274C4.34835 3.81878 4.56675 3.52028 4.81129 3.23821L4.8142 3.23496L4.81351 3.23431C5.05755 2.95648 5.32534 2.6985 5.61688 2.46136C5.90449 2.22747 6.215 2.01491 6.54824 1.82431C6.88575 1.63242 7.23437 1.47129 7.59546 1.34075C7.8465 1.24993 8.10455 1.17376 8.36943 1.11207C8.45984 0.810805 8.61501 0.56699 8.8346 0.380303C9.13776 0.122491 9.53748 -0.00397388 10.0334 9.51265e-05C10.5247 0.00416414 10.921 0.133721 11.2215 0.389255C11.4417 0.576593 11.5976 0.819431 11.6887 1.11793ZM12.0639 2.28362C11.7733 2.17457 11.4768 2.08864 11.1748 2.02695C10.9422 1.9983 10.7506 1.82301 10.7209 1.59124C10.6925 1.37298 10.6267 1.21998 10.5237 1.13242C10.4203 1.04437 10.254 0.999444 10.0252 0.997491C9.79792 0.995538 9.63369 1.03753 9.5327 1.12347C9.43016 1.21071 9.36522 1.36517 9.33788 1.58733H9.33737C9.31207 1.79941 9.14477 1.98024 8.91287 2.02142C8.58561 2.0805 8.26998 2.16513 7.96493 2.27549C7.6604 2.38551 7.36767 2.52077 7.08604 2.68076C6.8056 2.84108 6.54311 3.02109 6.29839 3.21998C6.05402 3.41872 5.82725 3.63763 5.61824 3.87558L5.61756 3.8751C5.41352 4.11094 5.22895 4.36386 5.0649 4.6334C4.9034 4.89853 4.76225 5.18125 4.64228 5.48089C4.52231 5.77874 4.43345 6.08017 4.37569 6.38421C4.31759 6.68922 4.28871 7.00986 4.28871 7.34547V9.71592C4.28871 10.1085 4.26427 10.4929 4.21573 10.8687C4.16891 11.2307 4.09731 11.5895 4.00109 11.9438C3.99938 11.9514 3.9975 11.9592 3.99545 11.9669C3.89514 12.3281 3.75894 12.6834 3.58719 13.0328C3.42143 13.3702 3.22405 13.6983 2.99574 14.0169C2.98924 14.0273 2.98241 14.0375 2.97506 14.0476C2.73444 14.3774 2.42957 14.705 2.06044 15.0305L2.04711 15.0421H5.26313H10.0009H14.7384H17.949C17.5882 14.7254 17.2847 14.4005 17.0384 14.0673L17.0391 14.0667L17.0384 14.0654C16.7965 13.7359 16.5899 13.3977 16.4196 13.0512C16.2457 12.6977 16.1105 12.3409 16.0138 11.9811L16.0141 11.9809L16.0138 11.9791C15.9189 11.6207 15.8465 11.253 15.7978 10.877C15.7515 10.5175 15.7267 10.1381 15.7246 9.73903V9.73789C15.7215 9.36712 15.7193 8.98008 15.7176 8.57692C15.7145 7.83082 15.7133 7.4236 15.7133 7.34547C15.7133 7.01605 15.6843 6.69573 15.6258 6.38486C15.5677 6.07513 15.4809 5.77565 15.3659 5.48691L15.3666 5.48675L15.3659 5.48496C15.2478 5.18727 15.1089 4.90602 14.9491 4.64218C14.7895 4.379 14.6066 4.12802 14.4004 3.88991L14.4007 3.88974C14.1962 3.65569 13.9718 3.4389 13.7276 3.23919C13.4909 3.04583 13.2409 2.872 12.9769 2.71722C12.9652 2.71152 12.9534 2.7055 12.9422 2.69883C12.6573 2.53541 12.3647 2.39658 12.0639 2.28362Z" fill="black"/>
</svg>
