<svg width="19" height="17" viewBox="0 0 19 17" fill="none" xmlns="http://www.w3.org/2000/svg">
<path d="M11.1669 7.35059C10.8304 7.01422 10.285 7.01422 9.94849 7.35059L9.3393 7.95892C8.66649 8.6321 7.57536 8.6321 6.90236 7.9591C6.22937 7.28611 6.22937 6.19497 6.90236 5.52198L11.7537 0.669329C14.1093 0.133538 16.543 1.16856 17.7912 3.23696C19.0393 5.30537 18.8205 7.94098 17.2484 9.77528L15.4321 11.6149L11.1669 7.34973L11.1669 7.35059ZM1.72315 2.17033C3.55863 0.335087 6.41425 0.000641346 8.62413 1.3621L5.68331 4.30378C4.35863 5.6258 4.33101 7.76335 5.62107 9.11917C6.91113 10.475 9.04741 10.5536 10.4336 9.29621L10.5577 9.17816L14.2137 12.8333L10.5577 16.4893C9.88473 17.162 8.79388 17.162 8.12093 16.4893L1.72228 10.0906C-0.46472 7.90346 -0.46472 4.35752 1.72229 2.17033L1.72315 2.17033Z" fill="#C8C1DF"/>
</svg>
