<svg xmlns="http://www.w3.org/2000/svg" width="12.54" height="8.36" viewBox="0 0 12.54 8.36">
  <path id="Icon_awesome-eye" data-name="Icon awesome-eye" d="M12.464,8.362A6.983,6.983,0,0,0,6.27,4.5,6.984,6.984,0,0,0,.076,8.362.7.7,0,0,0,.076,9,6.983,6.983,0,0,0,6.27,12.86,6.984,6.984,0,0,0,12.464,9,.7.7,0,0,0,12.464,8.362ZM6.27,11.815A3.135,3.135,0,1,1,9.4,8.68,3.135,3.135,0,0,1,6.27,11.815Zm0-5.225a2.075,2.075,0,0,0-.551.083A1.042,1.042,0,0,1,4.262,8.129,2.085,2.085,0,1,0,6.27,6.59Z" transform="translate(0 -4.5)"/>
</svg>
