<svg width="24" height="24" viewBox="0 0 24 24" fill="none" xmlns="http://www.w3.org/2000/svg">
<path fill-rule="evenodd" clip-rule="evenodd" d="M12 24C18.6274 24 24 18.6274 24 12C24 5.37258 18.6274 0 12 0C5.37258 0 0 5.37258 0 12C0 18.6274 5.37258 24 12 24ZM10.7325 13.4096L10.7325 17.6163C10.7325 17.866 10.9374 18.0709 11.1871 18.0709L12.955 18.0709C13.2047 18.0709 13.4096 17.866 13.4096 17.6163V13.4096H17.6163C17.866 13.4096 18.0709 13.2047 18.0709 12.955V11.1871C18.0709 10.9374 17.866 10.7325 17.6163 10.7325H13.4096V6.52585C13.4096 6.2761 13.2047 6.07123 12.955 6.07123H11.1871C10.9374 6.07123 10.7325 6.2761 10.7325 6.52586L10.7325 10.7325H6.52585C6.2761 10.7325 6.07123 10.9374 6.07123 11.1871V12.955C6.07123 13.2047 6.2761 13.4096 6.52585 13.4096H10.7325Z" fill="#463196"/>
</svg>
