<svg width="17" height="18" viewBox="0 0 17 18" fill="none" xmlns="http://www.w3.org/2000/svg">
<path d="M4.35286 3.99007V1.40511C4.35286 0.929232 4.73864 0.543457 5.21452 0.543457H15.5544C16.0302 0.543457 16.416 0.929232 16.416 1.40511V13.4683C16.416 13.9441 16.0302 14.3299 15.5544 14.3299H12.9694V16.9149C12.9694 17.3905 12.5817 17.7765 12.1017 17.7765H1.77393C1.54444 17.7779 1.32385 17.6878 1.16101 17.526C0.998158 17.3643 0.906476 17.1444 0.90625 16.9149L0.908835 4.85173C0.908835 4.37609 1.29658 3.99007 1.77652 3.99007H4.35286ZM6.07617 3.99007H12.9694V12.6066H14.6927V2.26676H6.07617V3.99007ZM4.35286 8.29834V10.0216H9.52279V8.29834H4.35286ZM4.35286 11.745V13.4683H9.52279V11.745H4.35286Z" fill="#C8C1DF"/>
</svg>
