<svg width="20" height="20" viewBox="0 0 20 20" fill="none" xmlns="http://www.w3.org/2000/svg">
<g id="Component 119 &#226;&#128;&#147; 9">
<path id="Path 348" d="M10.3811 16.7113L13.9676 13.1249C14.3725 12.7199 14.4368 12.1216 14.1105 11.7952L13.7546 11.4393C13.4641 11.1489 12.9586 11.1682 12.5654 11.461L14.258 9.77874C14.663 9.37377 14.7272 8.77546 14.4009 8.44915L14.0448 8.09324C13.7185 7.7669 13.1202 7.83116 12.7154 8.23612L13.3763 7.57517C13.7813 7.17024 13.8455 6.57191 13.5192 6.2456L13.1633 5.88969C12.837 5.56336 12.2387 5.62762 11.8337 6.03256L10.8783 6.98802C11.2832 6.58305 11.3475 5.98474 11.0212 5.65843L10.6653 5.30252C10.339 4.97618 9.74067 5.04045 9.33569 5.4454L4.59416 10.0311L4.21494 10.4103C4.21494 10.4103 4.6872 9.26338 4.6872 8.41854C4.6872 7.57397 4.11826 6.88279 3.4231 6.88279C2.72793 6.88279 2.15899 7.57392 2.15899 8.41854C2.15899 9.2631 1.68673 10.4103 1.68673 10.4103C1.68673 10.4103 -0.0540988 14.1109 2.00758 16.1729C4.06944 18.2347 5.46513 19.6304 8.09437 18.5951C9.07916 18.2074 10.3812 16.7114 10.3812 16.7114L10.3811 16.7113Z" stroke="#484651"/>
<path id="Path 349" d="M17.8377 12.548H16.4876C17.0598 12.5476 17.5276 12.1702 17.5276 11.7089V11.2054C17.5276 10.744 17.059 10.3663 16.4864 10.3663L14.3188 10.3301L13.6759 10.9691C13.8589 11.0104 14.0273 11.098 14.1631 11.234L14.519 11.5899C14.7371 11.808 14.8412 12.1256 14.8052 12.4617C14.7711 12.7793 14.6187 13.0878 14.3761 13.3304L10.8144 16.8922H10.83L10.8122 16.91C10.6999 17.0381 9.51297 18.3749 8.52002 18.8231L8.746 18.8419L13.8055 19.0716C14.3781 19.0716 14.8467 18.694 14.8467 18.2325V17.729C14.8467 17.3151 14.4697 16.969 13.9788 16.9019L16.9029 16.911C17.4754 16.911 17.944 16.5334 17.944 16.0718V15.5684C17.944 15.1069 17.4754 14.7293 16.9029 14.7293H17.8379C18.4104 14.7293 18.879 14.3517 18.879 13.8902V13.3867C18.8786 12.9257 18.4102 12.548 17.8376 12.548H17.8377Z" stroke="#484651"/>
<path id="Path 350" d="M10.9201 2.77494C10.927 2.77555 10.9341 2.77596 10.9409 2.77596C11.052 2.77596 11.1469 2.69145 11.1576 2.57855L11.326 0.800019C11.3374 0.680238 11.2494 0.573823 11.1296 0.562478C11.0099 0.551331 10.9034 0.6391 10.892 0.758881L10.7236 2.5374C10.7123 2.65719 10.8001 2.7636 10.9201 2.77495V2.77494Z" stroke="#484651"/>
<path id="Path 351" d="M7.63971 3.25454C7.67643 3.33461 7.75544 3.38183 7.83796 3.38183C7.86832 3.38183 7.89917 3.37554 7.92856 3.36196C8.03803 3.3119 8.08603 3.18259 8.03598 3.07314L7.29255 1.44861C7.2425 1.33918 7.11319 1.29093 7.00373 1.3412C6.89426 1.39125 6.84623 1.52057 6.89628 1.63002L7.63971 3.25454Z" stroke="#484651"/>
<path id="Path 352" d="M3.87152 4.38198L5.32753 5.41708C5.36584 5.44423 5.41003 5.45739 5.4536 5.45739C5.5217 5.45739 5.58899 5.42558 5.63136 5.3658C5.70108 5.26771 5.67816 5.13171 5.58006 5.06198L4.12405 4.02667C4.02594 3.95695 3.88995 3.97985 3.82022 4.07795C3.75027 4.17625 3.77342 4.31224 3.87152 4.38198Z" stroke="#484651"/>
<path id="Path 353" d="M16.0071 6.18726C16.0375 6.18726 16.0683 6.18099 16.0977 6.16739L17.7222 5.42396C17.8317 5.37389 17.8799 5.24459 17.8296 5.13514C17.7796 5.0257 17.6503 4.97745 17.5408 5.02772L15.9163 5.77115C15.8068 5.8212 15.7588 5.95051 15.8089 6.05997C15.8453 6.14004 15.9244 6.18726 16.0071 6.18726Z" stroke="#484651"/>
<path id="Path 354" d="M13.8045 3.76263C13.8428 3.78978 13.887 3.80296 13.9305 3.80296C13.9986 3.80296 14.066 3.77114 14.1083 3.71135L15.1436 2.2553C15.2133 2.15721 15.1904 2.0212 15.0923 1.95148C14.9942 1.88175 14.8583 1.90466 14.7885 2.00276L13.7532 3.4588C13.6835 3.5567 13.7064 3.6929 13.8045 3.76263Z" stroke="#484651"/>
</g>
</svg>
