<svg id="Component_119_1" data-name="Component 119 – 1" xmlns="http://www.w3.org/2000/svg" width="17.879" height="18.51" viewBox="0 0 17.879 18.51">
  <path id="Path_348" data-name="Path 348" d="M187.089,198.5l3.586-3.586a.96.96,0,0,0,.143-1.33l-.356-.356a.917.917,0,0,0-1.189.022l1.693-1.682a.96.96,0,0,0,.143-1.33l-.356-.356a.959.959,0,0,0-1.329.143l.661-.661a.96.96,0,0,0,.143-1.33l-.356-.356a.96.96,0,0,0-1.33.143l-.955.955a.96.96,0,0,0,.143-1.33l-.356-.356a.96.96,0,0,0-1.33.143l-4.742,4.586-.379.379a6.56,6.56,0,0,0,.472-1.992,1.288,1.288,0,1,0-2.528,0,6.562,6.562,0,0,1-.472,1.992s-1.741,3.7.321,5.763,3.458,3.458,6.087,2.422a8.44,8.44,0,0,0,2.287-1.884Z" transform="translate(-177.708 -182.355)" fill="#463196"/>
  <path id="Path_349" data-name="Path 349" d="M331.959,290.012h-1.35a.959.959,0,0,0,1.04-.839v-.5a.96.96,0,0,0-1.041-.839l-2.168-.036-.643.639a.989.989,0,0,1,.487.265l.356.356a1.06,1.06,0,0,1,.286.872,1.462,1.462,0,0,1-.429.869l-3.562,3.562h.016l-.018.018a8.936,8.936,0,0,1-2.292,1.913l.226.019,5.06.23a.96.96,0,0,0,1.041-.839v-.5a.92.92,0,0,0-.868-.827l2.924.009a.96.96,0,0,0,1.041-.839v-.5a.96.96,0,0,0-1.041-.839h.935a.96.96,0,0,0,1.041-.839v-.5a.96.96,0,0,0-1.041-.839Z" transform="translate(-315.121 -278.025)" fill="#463196"/>
  <path id="Path_350" data-name="Path 350" d="M365.3,101.745h.021a.218.218,0,0,0,.217-.2l.168-1.779a.218.218,0,0,0-.434-.041l-.168,1.779a.218.218,0,0,0,.2.238Z" transform="translate(-355.383 -99.531)" fill="#463196"/>
  <path id="Path_351" data-name="Path 351" d="M291.733,116.1a.218.218,0,0,0,.2.127.215.215,0,0,0,.091-.02.218.218,0,0,0,.107-.289l-.743-1.625a.218.218,0,0,0-.4.181Z" transform="translate(-285.093 -113.411)" fill="#463196"/>
  <path id="Path_352" data-name="Path 352" d="M231.374,165.93l1.456,1.035a.218.218,0,1,0,.253-.355l-1.456-1.035a.218.218,0,0,0-.253.355Z" transform="translate(-228.503 -162.11)" fill="#463196"/>
  <path id="Path_353" data-name="Path 353" d="M462.956,186.408a.215.215,0,0,0,.091-.02l1.625-.743a.218.218,0,1,0-.181-.4l-1.625.743a.218.218,0,0,0,.091.416Z" transform="translate(-447.949 -180.782)" fill="#463196"/>
  <path id="Path_354" data-name="Path 354" d="M422.816,127.4a.218.218,0,0,0,.3-.051l1.035-1.456a.218.218,0,0,0-.355-.253l-1.035,1.456A.218.218,0,0,0,422.816,127.4Z" transform="translate(-410.011 -124.197)" fill="#463196"/>
</svg>
