<svg width="25" height="22" viewBox="0 0 25 22" fill="none" xmlns="http://www.w3.org/2000/svg">
<path fill-rule="evenodd" clip-rule="evenodd" d="M23.1917 1.09184C24.5822 2.01029 24.731 3.20984 24.8843 3.50167L24.9598 3.94926C25.1597 4.91427 24.5933 6.23197 23.7203 7.06091L19.8131 10.7133C18.3115 12.1169 15.806 12.5824 13.7091 11.8537L13.7024 11.8609C14.4688 12.8689 14.4021 13.5868 14.471 13.7533C14.6709 14.7219 14.1045 16.0342 13.2315 16.865L9.32209 20.5173C7.42735 22.288 4.08434 22.5046 1.87418 20.9846C0.75466 20.0822 0.132706 19.3178 0.0149785 18.0323C-0.089421 16.9151 0.354832 15.8176 1.25667 14.9564L5.23718 11.2343C6.35003 10.314 6.90313 10.1851 8.19812 9.89685L8.75344 9.83598L11.1213 10.1153C11.1702 10.1296 11.219 10.1475 11.2657 10.1636L11.2724 10.1565C10.084 8.59705 10.2572 6.55603 11.7477 5.1488L15.6549 1.49825C16.5679 0.644246 17.874 0.117879 19.2423 0.0319418C20.4351 -0.127401 22.0788 0.325562 23.1028 1.03097L23.1917 1.09184ZM16.4879 9.25769L15.6749 10.0168L15.8171 10.0186H15.8215L15.9548 10.015H15.957L15.9881 10.0132H15.9925C16.4612 9.98458 16.9233 9.85567 17.3164 9.63009C17.3919 9.58712 17.4675 9.53878 17.543 9.48328C17.6096 9.43494 17.6807 9.37765 17.7496 9.31319L17.7762 9.28992L21.6523 5.66622C21.9789 5.36186 22.1766 4.99483 22.2476 4.61707C22.2632 4.53829 22.2721 4.4613 22.2765 4.39148C22.281 4.31807 22.2787 4.2393 22.2743 4.16231V4.15336L22.2721 4.13367C22.2365 3.7559 22.0766 3.3835 21.7967 3.06661C21.7434 3.00574 21.6834 2.94666 21.6235 2.89294L21.6168 2.88578C21.5524 2.82849 21.4813 2.7712 21.408 2.71749L21.3947 2.70854L21.3836 2.69959L21.3591 2.68526C20.9837 2.42924 20.5373 2.27348 20.0752 2.21798H20.0686C19.9731 2.20723 19.8798 2.19828 19.7931 2.19649C19.7021 2.19291 19.6065 2.1947 19.511 2.19828H19.4955L19.4733 2.20007C19.0046 2.22872 18.5426 2.35763 18.1494 2.58321C18.0739 2.62618 17.9984 2.67452 17.9317 2.72286L17.925 2.72823C17.8517 2.78015 17.7829 2.83744 17.7163 2.89832L17.6896 2.92159L13.8157 6.5435C13.4892 6.84786 13.2915 7.21488 13.2204 7.59265C13.2071 7.66964 13.196 7.74662 13.1938 7.81824C13.1893 7.89164 13.1915 7.97042 13.196 8.0474L13.1982 8.07426V8.07605V8.07963C13.2049 8.16199 13.2182 8.24255 13.2382 8.32491L14.0334 7.58191L14.0556 7.56043L14.0845 7.53536L14.0889 7.53178C14.3755 7.28292 14.7597 7.14148 15.1529 7.12C15.5483 7.09672 15.957 7.18982 16.2858 7.40645L16.2902 7.40824L16.3102 7.42257L16.3146 7.42615L16.3191 7.42973L16.3213 7.43152L16.3257 7.43331L16.3413 7.44405C16.7989 7.77169 16.9677 8.26762 16.8322 8.72058C16.8055 8.8101 16.7655 8.89962 16.7122 8.98556C16.6634 9.06791 16.599 9.14669 16.5279 9.22009L16.5234 9.22367L16.5168 9.23084L16.5145 9.23442L16.4923 9.2559L16.4879 9.25769ZM8.89782 14.3638C9.41538 14.7237 10.2039 14.6771 10.6504 14.26L11.8899 13.1016C12.0343 13.3612 12.1209 13.6387 12.1475 13.9198C12.2031 14.5357 11.9721 15.1677 11.439 15.6654L7.56062 19.2891C7.02752 19.7886 6.28783 20.0661 5.52594 20.1109C4.77515 20.1556 4.00659 19.9766 3.39575 19.5648L3.36021 19.5398C2.74269 19.1101 2.39618 18.5139 2.34064 17.8998C2.28511 17.2911 2.50946 16.6662 3.02924 16.1721L3.04923 16.1542L6.88091 12.5734L6.92756 12.5305C7.46066 12.0328 8.20035 11.7535 8.96224 11.7087C9.3132 11.6872 9.6686 11.7159 10.0085 11.7928L8.76899 12.9512C8.32252 13.3684 8.38027 14.0039 8.89782 14.3638Z" fill="#463196"/>
</svg>
