<svg width="14" height="13" viewBox="0 0 14 13" fill="none" xmlns="http://www.w3.org/2000/svg">
<path d="M13.0249 6.10156C13.0249 9.47211 10.2929 12.2031 6.92334 12.2031C3.55378 12.2031 0.821777 9.47211 0.821777 6.10156C0.821777 2.73298 3.55378 0 6.92334 0C10.2929 0 13.0249 2.73298 13.0249 6.10156ZM7.08707 2.01745C5.74628 2.01745 4.89113 2.58227 4.21961 3.58609C4.13261 3.71615 4.16172 3.89154 4.28641 3.98609L5.14011 4.6334C5.26817 4.73051 5.45062 4.7074 5.55012 4.58119C5.98963 4.02373 6.29099 3.70047 6.95995 3.70047C7.46257 3.70047 8.08426 4.02396 8.08426 4.51134C8.08426 4.8798 7.78009 5.06902 7.28382 5.34726C6.70506 5.6717 5.93922 6.07551 5.93922 7.08569V7.1841C5.93922 7.34714 6.07141 7.47933 6.23445 7.47933H7.61223C7.77527 7.47933 7.90746 7.34714 7.90746 7.1841V7.1513C7.90746 6.45105 9.95409 6.42189 9.95409 4.52697C9.95409 3.09994 8.47385 2.01745 7.08707 2.01745ZM6.92334 8.11902C6.29928 8.11902 5.7916 8.6267 5.7916 9.25076C5.7916 9.87479 6.29928 10.3825 6.92334 10.3825C7.5474 10.3825 8.05508 9.87479 8.05508 9.25076C8.05508 8.6267 7.5474 8.11902 6.92334 8.11902Z" fill="#0F0C1A" fill-opacity="0.811765"/>
</svg>
