<svg width="18" height="18" viewBox="0 0 18 18" fill="none" xmlns="http://www.w3.org/2000/svg">
<path d="M9.33919 17.2765C4.58028 17.2765 0.722656 13.4189 0.722656 8.65999C0.722656 3.90108 4.58028 0.043457 9.33919 0.043457C14.0981 0.043457 17.9557 3.90108 17.9557 8.65999C17.9557 13.4189 14.0981 17.2765 9.33919 17.2765ZM8.47754 11.245V12.9683H10.2008V11.245H8.47754ZM10.2008 9.82753C11.6321 9.39617 12.5318 7.98197 12.316 6.50281C12.1002 5.02366 10.834 3.92542 9.33919 3.9209C7.90136 3.9209 6.66349 4.93536 6.38109 6.34495L8.0717 6.68336C8.20514 6.01573 8.83362 5.56609 9.50858 5.65536C10.1835 5.74463 10.6735 6.3422 10.6288 7.02156C10.5841 7.70093 10.02 8.22912 9.33919 8.22917C8.86331 8.22917 8.47754 8.61494 8.47754 9.09082V10.3833H10.2008V9.82753Z" fill="#C8C1DF"/>
</svg>
