<svg width="24" height="23" viewBox="0 0 24 23" fill="none" xmlns="http://www.w3.org/2000/svg">
<ellipse cx="12.2327" cy="11.4999" rx="11.3865" ry="11.4999" fill="#FEDF06"/>
<path d="M15.6691 15.4504C14.8893 14.1466 13.6425 13.2979 12.2329 13.2979C10.823 13.2979 9.57652 14.1466 8.79639 15.4504" stroke="#3C3C3B" stroke-width="2" stroke-linecap="round" stroke-linejoin="round"/>
<path d="M10.6514 9.83633C10.6514 8.91425 10.0265 8.16699 9.25564 8.16699C8.48473 8.16699 7.85986 8.91425 7.85986 9.83633C7.85986 10.7584 8.48473 11.5057 9.25564 11.5057C10.0265 11.5057 10.6514 10.7584 10.6514 9.83633Z" fill="#3C3C3B"/>
<path d="M7.60449 6.71737C7.60449 6.71737 8.64983 5.9247 9.9886 6.21547" stroke="#3C3C3B" stroke-width="2" stroke-linecap="round" stroke-linejoin="round"/>
<path d="M13.8145 9.83633C13.8145 8.91425 14.4393 8.16699 15.21 8.16699C15.9809 8.16699 16.6057 8.91425 16.6057 9.83633C16.6057 10.7584 15.9809 11.5057 15.21 11.5057C14.4393 11.5057 13.8145 10.7584 13.8145 9.83633Z" fill="#3C3C3B"/>
<path d="M16.8609 6.71737C16.8609 6.71737 15.8155 5.9247 14.4771 6.21547" stroke="#3C3C3B" stroke-width="2" stroke-linecap="round" stroke-linejoin="round"/>
<path d="M8.23345 13.0222C7.94788 12.6569 7.60451 11.9663 7.60451 11.9663C7.60451 11.9663 7.26113 12.6569 6.97584 13.0222C6.43295 13.7168 6.92427 14.3737 7.60451 14.3737C8.28475 14.3737 8.77634 13.7166 8.23345 13.0222Z" fill="#C4E6F7"/>
</svg>
