<svg width="17" height="20" viewBox="0 0 17 20" fill="none" xmlns="http://www.w3.org/2000/svg">
<path d="M15.4567 11.0382C15.154 11.0382 14.8946 11.2701 14.8711 11.5727C14.5999 14.8389 11.8525 17.3858 8.51166 17.3858C4.99395 17.3858 2.12868 14.5402 2.12868 11.0421C2.12868 7.5991 4.90355 4.78493 8.34658 4.69846C8.43698 4.69453 8.50773 4.76528 8.50773 4.85568V6.83267C8.50773 7.3279 9.05406 7.62661 9.47461 7.36328L13.2557 4.71811C13.6487 4.4705 13.6487 3.90059 13.2557 3.65297L9.47854 1.04319C9.05799 0.779848 8.51166 1.07856 8.51166 1.57379V3.36999C8.51166 3.45645 8.44485 3.5272 8.35838 3.5272C4.25503 3.60974 0.953491 6.94272 0.953491 11.0421C0.953491 15.1926 4.33757 18.5531 8.51166 18.5531C12.4735 18.5531 15.72 15.5385 16.0423 11.671C16.0738 11.3291 15.7986 11.0382 15.4567 11.0382Z" fill="#939198"/>
<path d="M15.4567 11.0382C15.154 11.0382 14.8946 11.2701 14.8711 11.5727C14.5999 14.8389 11.8525 17.3858 8.51166 17.3858C4.99395 17.3858 2.12868 14.5402 2.12868 11.0421C2.12868 7.5991 4.90355 4.78493 8.34658 4.69846C8.43698 4.69453 8.50773 4.76528 8.50773 4.85568V6.83267C8.50773 7.3279 9.05406 7.62661 9.47461 7.36328L13.2557 4.71811C13.6487 4.4705 13.6487 3.90059 13.2557 3.65297L9.47854 1.04319C9.05799 0.779848 8.51166 1.07856 8.51166 1.57379V3.36999C8.51166 3.45645 8.44485 3.5272 8.35838 3.5272C4.25503 3.60974 0.953491 6.94272 0.953491 11.0421C0.953491 15.1926 4.33757 18.5531 8.51166 18.5531C12.4735 18.5531 15.72 15.5385 16.0423 11.671C16.0738 11.3291 15.7986 11.0382 15.4567 11.0382ZM15.4567 11.0382V11.0382Z" stroke="#939198"/>
</svg>
