<svg width="25" height="22" viewBox="0 0 25 22" fill="none" xmlns="http://www.w3.org/2000/svg">
<path d="M2.01026 13.8956C2.03272 9.51781 2.05371 5.14167 2.07666 0.780975C2.07666 0.490704 2.26026 0.248443 2.50196 0.191603V0.190499C3.91456 -0.142265 6.12745 -0.0578321 7.63234 0.592795C8.67189 1.0431 9.61525 1.76106 10.3037 2.79522C11 1.83059 11.9287 1.13636 12.9741 0.687713C14.4024 0.0757148 16.5513 -0.0721801 18.1011 0.184429C18.3687 0.228025 18.5601 0.487393 18.5601 0.783734H18.5611V5.37952C18.2334 5.32845 17.9031 5.30282 17.5723 5.30281L17.4873 5.30336V1.32123C16.2466 1.18769 14.4683 1.34165 13.3506 1.8201C12.3062 2.26765 11.4063 3.00326 10.8213 4.05729V10.6066C10.1987 12.4972 10.1987 14.6285 10.9102 16.5654C11.0615 16.9777 11.2417 17.3734 11.4478 17.7481C11.1582 17.8579 10.8696 17.9848 10.5806 18.1294C10.4902 18.1965 10.384 18.2313 10.2759 18.2293C10.167 18.2315 10.0611 18.1962 9.97121 18.1294C8.53175 17.4103 7.09718 17.1256 5.66261 17.1361C4.19093 17.1465 2.20606 17.4677 0.709962 17.9528C0.656251 17.9738 0.597657 17.9848 0.536622 17.9848C0.240235 17.9848 0 17.7133 0 17.3789V3.41218C0 3.07721 0.240235 2.8057 0.536622 2.8057H1.07373V16.5848C2.42872 16.1896 4.28809 15.9369 5.6587 15.9275C6.92384 15.9192 8.18947 16.1174 9.45656 16.6024C8.66798 15.8812 7.78956 15.3519 6.85304 15.0076C5.67286 14.5716 3.89551 14.427 2.58936 14.554C2.29395 14.5805 2.03467 14.3338 2.01026 13.9999C2.0083 13.964 2.0083 13.9293 2.01026 13.8956ZM17.7266 6.8535C19.3218 6.8535 20.8453 7.56759 21.9712 8.84125C23.5293 10.6011 24.1084 13.1953 23.4815 15.5782C23.3373 16.1253 23.1322 16.6495 22.8711 17.1383L24.9248 19.6939C25.0313 19.8263 25.024 20.0316 24.9073 20.153L23.1997 21.9145C23.1721 21.9434 23.1396 21.9658 23.1042 21.9804C23.0688 21.995 23.0312 22.0016 22.9936 21.9997C22.956 21.9978 22.919 21.9875 22.8849 21.9693C22.8508 21.9512 22.8203 21.9256 22.795 21.8941L20.8438 19.4384C19.9014 20.0868 18.8301 20.4245 17.7266 20.4245C16.1319 20.4245 14.6094 19.7121 13.482 18.4373C12.9235 17.8071 12.4806 17.0585 12.1787 16.2343C11.2481 13.7014 11.7769 10.7683 13.482 8.84125C14.0337 8.21766 14.6944 7.71328 15.4317 7.36947C16.1392 7.03671 16.9146 6.8535 17.7266 6.8535ZM21.1138 9.8114C19.7471 8.26512 17.6748 7.80102 15.8941 8.63486C12.6988 10.1293 11.9644 14.7857 14.3384 17.4672C15.7085 19.0112 17.7769 19.4781 19.5596 18.6443C21.3516 17.8027 22.5166 15.832 22.5166 13.6385C22.5166 12.9039 22.3887 12.2042 22.1558 11.5685C21.9138 10.9112 21.5597 10.3142 21.1138 9.8114ZM19.4781 5.59198V2.8057H20.0147C20.3116 2.8057 20.5513 3.07721 20.5513 3.41218V6.03069C20.2051 5.853 19.8457 5.70621 19.4781 5.59198ZM11.7837 8.59899C11.7541 8.50621 11.7533 8.40481 11.7814 8.31144C11.8095 8.21807 11.8649 8.1383 11.9385 8.08522C12.0796 7.98313 12.2305 7.88545 12.3887 7.79109C12.1699 8.04659 11.9683 8.31644 11.7837 8.59899ZM12.3604 5.47002C12.2741 5.53187 12.1697 5.55248 12.0699 5.52734C11.9702 5.50219 11.8834 5.43335 11.8286 5.33592C11.7144 5.13284 11.7681 4.86409 11.9473 4.73551C12.4961 4.34204 13.1992 3.99714 13.9077 3.73832C14.6621 3.46405 15.4317 3.28526 16.0381 3.24663C16.25 3.23393 16.4317 3.41715 16.4429 3.65665C16.4541 3.8956 16.292 4.10089 16.0806 4.11358C15.5376 4.14834 14.8374 4.31224 14.1426 4.56554C13.4956 4.80063 12.856 5.11463 12.3604 5.47002ZM8.65431 11.4454C8.83254 11.5762 8.88283 11.8461 8.76759 12.0464C8.65236 12.2467 8.41359 12.3046 8.23634 12.1739C7.74562 11.8135 7.1006 11.4934 6.44337 11.2512C5.73634 10.9907 5.02149 10.8207 4.4712 10.786C4.25977 10.7733 4.09718 10.568 4.10889 10.329C4.12012 10.0901 4.30128 9.90631 4.51319 9.91956C5.13087 9.95819 5.91651 10.1431 6.68116 10.4239C7.39552 10.6877 8.10499 11.0409 8.65431 11.4454ZM8.6133 8.08522C8.65582 8.11586 8.69259 8.15567 8.72149 8.20238C8.7504 8.24909 8.77088 8.30178 8.78176 8.35743C8.79265 8.41309 8.79372 8.47062 8.78492 8.52674C8.77612 8.58287 8.75762 8.63648 8.73048 8.68453C8.61671 8.88595 8.37892 8.94555 8.20021 8.81642C7.70753 8.46158 7.06642 8.14703 6.41505 7.90918C5.71778 7.65533 5.01515 7.49033 4.4712 7.45556C4.25977 7.44287 4.09718 7.23814 4.10889 6.99863C4.12012 6.75968 4.30128 6.57592 4.51319 6.58861C5.1211 6.62724 5.89405 6.80714 6.64943 7.08251C7.35792 7.34078 8.06203 7.68789 8.6133 8.08522ZM8.60402 4.73551C8.64675 4.76607 8.68373 4.80586 8.71283 4.8526C8.74193 4.89934 8.76258 4.95211 8.77361 5.00788C8.78463 5.06366 8.7858 5.12135 8.77706 5.17764C8.76832 5.23393 8.74984 5.28772 8.72267 5.33592C8.6089 5.539 8.37111 5.5986 8.19142 5.47002C7.69533 5.11463 7.05568 4.80063 6.40919 4.56554C5.71437 4.31224 5.01417 4.14834 4.4712 4.11358C4.25977 4.10089 4.09718 3.8956 4.10889 3.65665C4.12012 3.41715 4.30128 3.23393 4.51319 3.24663C5.12013 3.28526 5.88966 3.46405 6.64357 3.73832C7.35255 3.99714 8.05568 4.34204 8.60402 4.73551ZM9.74806 15.331V4.03963C9.18507 2.91938 8.27736 2.16997 7.25001 1.72574C6.0879 1.22245 4.28175 1.10822 3.14307 1.29199L3.08252 13.3062C4.32471 13.2555 6.04005 13.4343 7.18409 13.8553C8.09474 14.1914 8.95705 14.6809 9.74806 15.331Z" fill="#463196"/>
</svg>
