<svg width="22" height="22" viewBox="0 0 22 22" fill="none" xmlns="http://www.w3.org/2000/svg">
<g clip-path="url(#clip0_37_15)">
<path d="M11 22C9.29819 22 7.66609 21.324 6.46273 20.1206C5.25937 18.9172 4.58333 17.2851 4.58333 15.5833C4.58333 13.8815 5.25937 12.2494 6.46273 11.0461C7.66609 9.84271 9.29819 9.16667 11 9.16667C12.7018 9.16667 14.3339 9.84271 15.5373 11.0461C16.7406 12.2494 17.4167 13.8815 17.4167 15.5833C17.4167 17.2851 16.7406 18.9172 15.5373 20.1206C14.3339 21.324 12.7018 22 11 22ZM11 0L0 8.70833L4.43483 12.32C5.04209 11.0979 5.97828 10.0696 7.13811 9.35054C8.29794 8.63152 9.63538 8.25038 11 8.25C12.3646 8.25038 13.7021 8.63152 14.8619 9.35054C16.0217 10.0696 16.9579 11.0979 17.5652 12.32L22 8.70833L11 0Z" fill="#C8C1DF"/>
</g>
<defs>
<clipPath id="clip0_37_15">
<rect width="22" height="22" fill="white"/>
</clipPath>
</defs>
</svg>
