<svg width="11" height="16" viewBox="0 0 11 16" fill="none" xmlns="http://www.w3.org/2000/svg">
<path fill-rule="evenodd" clip-rule="evenodd" d="M5.9957 5.38716H4.13203L1.74902 0.488892C2.26847 0.275116 2.81847 0.11203 3.38885 0L5.0793 3.48283L5.19121 3.70699L5.2931 3.92079L5.80219 4.96971L5.90417 5.18352L5.9957 5.38716Z" fill="#F1543F"/>
<path fill-rule="evenodd" clip-rule="evenodd" d="M6.04672 7.14914H4.1115C4.05052 7.14914 3.98944 7.10837 3.97929 7.04718L3.59227 5.82516C3.54122 5.65204 3.57198 5.46878 3.6839 5.32611C3.79593 5.18353 3.94875 5.10205 4.1319 5.10205H6.02611C6.20937 5.10205 6.37233 5.18353 6.48447 5.32611C6.5966 5.46878 6.62703 5.65204 6.56584 5.82516L6.19922 7.04718C6.15852 7.10837 6.11784 7.14914 6.04672 7.14914ZM4.20323 6.86392H5.94473L6.28081 5.74365C6.31136 5.65204 6.3011 5.57043 6.24013 5.4993C6.18907 5.42798 6.11784 5.38718 6.01596 5.38718H4.1319C4.05052 5.38718 3.96904 5.42798 3.90785 5.4993C3.85701 5.57043 3.83661 5.65204 3.86716 5.74365L4.20323 6.86392Z" fill="white"/>
<path fill-rule="evenodd" clip-rule="evenodd" d="M9.88606 11.2022C10.1814 10.9069 10.1814 10.4383 9.88606 10.1432C9.67226 9.92911 9.60092 9.60339 9.73335 9.31815C9.88606 8.93103 9.70281 8.49332 9.31579 8.33032C9.03053 8.2182 8.84727 7.9433 8.84727 7.63776C8.84727 7.22021 8.50116 6.88412 8.09363 6.88412C7.79846 6.88412 7.51321 6.70078 7.39114 6.41574C7.23832 6.02872 6.80047 5.84549 6.41333 5.99829C6.1282 6.1102 5.81251 6.0593 5.58846 5.84549C5.29317 5.53995 4.82467 5.53995 4.51923 5.84549C4.30521 6.0593 3.9795 6.13052 3.69414 5.99829C3.30723 5.84549 2.86937 6.02872 2.71655 6.41574C2.60452 6.70078 2.32964 6.88412 2.01384 6.88412C1.60654 6.88412 1.26019 7.22021 1.26019 7.63776C1.26019 7.93314 1.07694 8.2182 0.791801 8.33032C0.404884 8.49332 0.221626 8.93103 0.384483 9.31815C0.496407 9.60339 0.435432 9.90872 0.221626 10.1432C-0.0738754 10.4383 -0.0738754 10.9069 0.221626 11.2022C0.435432 11.416 0.50666 11.7419 0.384483 12.0269C0.221626 12.414 0.404884 12.8519 0.791801 13.015C1.07694 13.1268 1.26019 13.4019 1.26019 13.7073C1.26019 14.1248 1.60654 14.4608 2.01384 14.4608C2.31938 14.4608 2.60452 14.6544 2.71655 14.9295C2.86937 15.3165 3.30723 15.4998 3.69414 15.347C3.9795 15.2349 4.29507 15.2857 4.51923 15.4998C4.82467 15.8052 5.29317 15.8052 5.58846 15.4998C5.80226 15.2857 6.1282 15.2145 6.41333 15.347C6.80047 15.4998 7.23832 15.3165 7.39114 14.9295C7.51321 14.6544 7.77805 14.4608 8.09363 14.4608C8.50116 14.4608 8.84727 14.1248 8.84727 13.7073C8.84727 13.412 9.03053 13.1268 9.31579 13.015C9.70281 12.8519 9.88606 12.414 9.73335 12.0269C9.61107 11.7318 9.67226 11.416 9.88606 11.2022Z" fill="#FFD05B"/>
<path fill-rule="evenodd" clip-rule="evenodd" d="M8.6329 10.6725C8.6329 8.69693 7.03408 7.08789 5.05829 7.08789C3.07245 7.08789 1.47363 8.69693 1.47363 10.6725C1.47363 12.6484 3.07245 14.2573 5.05829 14.2573C7.03408 14.2573 8.6329 12.6484 8.6329 10.6725Z" fill="#F9B54C"/>
<path fill-rule="evenodd" clip-rule="evenodd" d="M8.39901 0.488892L6.0159 5.38716H4.15234L4.25412 5.18352L4.34586 4.96971L4.86509 3.92079L4.96708 3.70699L5.07911 3.48283L6.76944 0C7.32957 0.11203 7.87946 0.275116 8.39901 0.488892Z" fill="#FF7058"/>
</svg>
