<svg width="14" height="14" viewBox="0 0 14 14" fill="none" xmlns="http://www.w3.org/2000/svg">
<path fill-rule="evenodd" clip-rule="evenodd" d="M0.185432 11.1644L4.34983 7L0.185432 2.83561C-0.0618108 2.58836 -0.0618108 2.18275 0.185432 1.9355L1.9355 0.185432C2.18275 -0.0618108 2.58836 -0.0618108 2.83561 0.185432L7 4.34983L11.1644 0.185432C11.4116 -0.0618108 11.8173 -0.0618108 12.0645 0.185432L13.8146 1.9355C14.0618 2.18275 14.0618 2.58836 13.8146 2.83561L9.65017 7L13.8146 11.1644C14.0618 11.4116 14.0618 11.8173 13.8146 12.0645L12.0645 13.8146C11.8173 14.0618 11.4116 14.0618 11.1644 13.8146L7 9.65017L2.83561 13.8146C2.58836 14.0618 2.18275 14.0618 1.9355 13.8146L0.185432 12.0645C-0.0618108 11.8173 -0.0618108 11.4116 0.185432 11.1644Z" fill="white"/>
</svg>
