<svg width="16" height="22" viewBox="0 0 16 22" fill="none" xmlns="http://www.w3.org/2000/svg">
<path d="M7.99966 7.62939e-06C3.79003 7.62939e-06 0.365295 3.42524 0.365295 7.63499C0.365295 11.6872 7.29209 21.1547 7.58703 21.5556L7.86229 21.9302C7.89448 21.9743 7.94574 22 7.99966 22C8.05443 22 8.10535 21.9743 8.13788 21.9302L8.41297 21.5556C8.70807 21.1547 15.6347 11.6872 15.6347 7.63499C15.6347 3.42524 12.2094 7.62939e-06 7.99966 7.62939e-06ZM7.99966 4.90015C9.50799 4.90015 10.7345 6.12672 10.7345 7.63499C10.7345 9.14248 9.50793 10.3698 7.99966 10.3698C6.49223 10.3698 5.26483 9.14248 5.26483 7.63499C5.26483 6.12672 6.49217 4.90015 7.99966 4.90015Z" fill="white"/>
</svg>
